solid carbon mini cub fuselage
facet normal 0.0 -1.0 0.0
outer loop
vertex -854.331619501811 -14.2191910789654 -89.8779927446183
vertex -848.831619501811 -14.2191910789654 -84.8779927446183
vertex -854.331619501811 -14.2191910789654 -84.8779927446183
endloop
endfacet
facet normal 0.0 -1.0 0.0
outer loop
vertex -848.831619501811 -14.2191910789654 -84.8779927446183
vertex -854.331619501811 -14.2191910789654 -89.8779927446183
vertex -848.831619501811 -14.2191910789654 -89.8779927446183
endloop
endfacet
facet normal -1.0 0.0 0.0
outer loop
vertex -854.331619501811 -14.2191910789654 -89.8779927446183
vertex -854.331619501811 -7.71919107896535 -84.8779927446183
vertex -854.331619501811 -7.71919107896535 -89.8779927446183
endloop
endfacet
facet normal -1.0 0.0 0.0
outer loop
vertex -854.331619501811 -7.71919107896535 -84.8779927446183
vertex -854.331619501811 -14.2191910789654 -89.8779927446183
vertex -854.331619501811 -14.2191910789654 -84.8779927446183
endloop
endfacet
facet normal 1.0 0.0 0.0
outer loop
vertex -848.831619501811 -14.2191910789654 -84.8779927446183
vertex -848.831619501811 -7.71919107896535 -89.8779927446183
vertex -848.831619501811 -7.71919107896535 -84.8779927446183
endloop
endfacet
facet normal 1.0 0.0 0.0
outer loop
vertex -848.831619501811 -7.71919107896535 -89.8779927446183
vertex -848.831619501811 -14.2191910789654 -84.8779927446183
vertex -848.831619501811 -14.2191910789654 -89.8779927446183
endloop
endfacet
facet normal 0.0 0.0 -1.0
outer loop
vertex -848.831619501811 -7.71919107896535 -89.8779927446183
vertex -854.331619501811 -14.2191910789654 -89.8779927446183
vertex -854.331619501811 -7.71919107896535 -89.8779927446183
endloop
endfacet
facet normal 0.0 0.0 -1.0
outer loop
vertex -854.331619501811 -14.2191910789654 -89.8779927446183
vertex -848.831619501811 -7.71919107896535 -89.8779927446183
vertex -848.831619501811 -14.2191910789654 -89.8779927446183
endloop
endfacet
facet normal 0.0 1.0 0.0
outer loop
vertex -848.831619501811 -7.71919107896535 -84.8779927446183
vertex -851.179616158714 -7.71919107896535 -85.8776958433683
vertex -854.331619501811 -7.71919107896535 -84.8779927446183
endloop
endfacet
facet normal 0.0 1.0 0.0
outer loop
vertex -851.179616158714 -7.71919107896535 -85.8776958433683
vertex -848.831619501811 -7.71919107896535 -84.8779927446183
vertex -850.805008679108 -7.71919107896535 -86.0328633419878
endloop
endfacet
facet normal 0.0 1.0 0.0
outer loop
vertex -850.805008679108 -7.71919107896535 -86.0328633419878
vertex -848.831619501811 -7.71919107896535 -84.8779927446183
vertex -850.483325943658 -7.71919107896535 -86.2796991864653
endloop
endfacet
facet normal 0.0 1.0 0.0
outer loop
vertex -850.483325943658 -7.71919107896535 -86.2796991864653
vertex -848.831619501811 -7.71919107896535 -84.8779927446183
vertex -850.236490099181 -7.71919107896535 -86.6013819219146
endloop
endfacet
facet normal 0.0 1.0 0.0
outer loop
vertex -850.236490099181 -7.71919107896535 -86.6013819219146
vertex -848.831619501811 -7.71919107896535 -84.8779927446183
vertex -848.831619501811 -7.71919107896535 -89.8779927446183
endloop
endfacet
facet normal 0.0 1.0 0.0
outer loop
vertex -854.331619501811 -7.71919107896535 -84.8779927446183
vertex -851.179616158714 -7.71919107896535 -85.8776958433683
vertex -851.581619501811 -7.71919107896535 -85.8247710992111
endloop
endfacet
facet normal 0.0 1.0 0.0
outer loop
vertex -850.236490099181 -7.71919107896535 -86.6013819219146
vertex -848.831619501811 -7.71919107896535 -89.8779927446183
vertex -850.081322600561 -7.71919107896535 -86.9759894015215
endloop
endfacet
facet normal 0.0 1.0 0.0
outer loop
vertex -850.081322600561 -7.71919107896535 -86.9759894015215
vertex -848.831619501811 -7.71919107896535 -89.8779927446183
vertex -850.028397856404 -7.71919107896535 -87.3779927446183
endloop
endfacet
facet normal 0.0 1.0 0.0
outer loop
vertex -850.028397856404 -7.71919107896535 -87.3779927446183
vertex -848.831619501811 -7.71919107896535 -89.8779927446183
vertex -850.081322600561 -7.71919107896535 -87.7799960877152
endloop
endfacet
facet normal 0.0 1.0 0.0
outer loop
vertex -850.081322600561 -7.71919107896535 -87.7799960877152
vertex -848.831619501811 -7.71919107896535 -89.8779927446183
vertex -850.236490099181 -7.71919107896535 -88.1546035673221
endloop
endfacet
facet normal 0.0 1.0 0.0
outer loop
vertex -850.236490099181 -7.71919107896535 -88.1546035673221
vertex -848.831619501811 -7.71919107896535 -89.8779927446183
vertex -850.483325943658 -7.71919107896535 -88.4762863027714
endloop
endfacet
facet normal 0.0 1.0 0.0
outer loop
vertex -850.483325943658 -7.71919107896535 -88.4762863027714
vertex -848.831619501811 -7.71919107896535 -89.8779927446183
vertex -850.805008679108 -7.71919107896535 -88.7231221472489
endloop
endfacet
facet normal 0.0 1.0 0.0
outer loop
vertex -850.805008679108 -7.71919107896535 -88.7231221472489
vertex -848.831619501811 -7.71919107896535 -89.8779927446183
vertex -851.179616158714 -7.71919107896535 -88.8782896458684
endloop
endfacet
facet normal 0.0 1.0 0.0
outer loop
vertex -851.179616158714 -7.71919107896535 -88.8782896458684
vertex -848.831619501811 -7.71919107896535 -89.8779927446183
vertex -851.581619501811 -7.71919107896535 -88.9312143900256
endloop
endfacet
facet normal 0.0 1.0 0.0
outer loop
vertex -854.331619501811 -7.71919107896535 -84.8779927446183
vertex -852.926748904442 -7.71919107896535 -86.6013819219146
vertex -854.331619501811 -7.71919107896535 -89.8779927446183
endloop
endfacet
facet normal 0.0 1.0 0.0
outer loop
vertex -852.926748904442 -7.71919107896535 -86.6013819219146
vertex -854.331619501811 -7.71919107896535 -84.8779927446183
vertex -852.679913059965 -7.71919107896535 -86.2796991864653
endloop
endfacet
facet normal 0.0 1.0 0.0
outer loop
vertex -852.679913059965 -7.71919107896535 -86.2796991864653
vertex -854.331619501811 -7.71919107896535 -84.8779927446183
vertex -852.358230324515 -7.71919107896535 -86.0328633419878
endloop
endfacet
facet normal 0.0 1.0 0.0
outer loop
vertex -852.358230324515 -7.71919107896535 -86.0328633419878
vertex -854.331619501811 -7.71919107896535 -84.8779927446183
vertex -851.983622844908 -7.71919107896535 -85.8776958433683
endloop
endfacet
facet normal 0.0 1.0 0.0
outer loop
vertex -851.983622844908 -7.71919107896535 -85.8776958433683
vertex -854.331619501811 -7.71919107896535 -84.8779927446183
vertex -851.581619501811 -7.71919107896535 -85.8247710992111
endloop
endfacet
facet normal 0.0 1.0 0.0
outer loop
vertex -854.331619501811 -7.71919107896535 -89.8779927446183
vertex -852.926748904442 -7.71919107896535 -86.6013819219146
vertex -853.081916403062 -7.71919107896535 -86.9759894015215
endloop
endfacet
facet normal 0.0 1.0 0.0
outer loop
vertex -854.331619501811 -7.71919107896535 -89.8779927446183
vertex -853.081916403062 -7.71919107896535 -86.9759894015215
vertex -853.134841147218 -7.71919107896535 -87.3779927446183
endloop
endfacet
facet normal 0.0 1.0 0.0
outer loop
vertex -854.331619501811 -7.71919107896535 -89.8779927446183
vertex -853.134841147218 -7.71919107896535 -87.3779927446183
vertex -853.081916403062 -7.71919107896535 -87.7799960877152
endloop
endfacet
facet normal 0.0 1.0 0.0
outer loop
vertex -854.331619501811 -7.71919107896535 -89.8779927446183
vertex -853.081916403062 -7.71919107896535 -87.7799960877152
vertex -852.926748904442 -7.71919107896535 -88.1546035673221
endloop
endfacet
facet normal 0.0 1.0 0.0
outer loop
vertex -854.331619501811 -7.71919107896535 -89.8779927446183
vertex -852.926748904442 -7.71919107896535 -88.1546035673221
vertex -852.679913059965 -7.71919107896535 -88.4762863027714
endloop
endfacet
facet normal 0.0 1.0 0.0
outer loop
vertex -854.331619501811 -7.71919107896535 -89.8779927446183
vertex -852.679913059965 -7.71919107896535 -88.4762863027714
vertex -852.358230324515 -7.71919107896535 -88.7231221472489
endloop
endfacet
facet normal 0.0 1.0 0.0
outer loop
vertex -854.331619501811 -7.71919107896535 -89.8779927446183
vertex -852.358230324515 -7.71919107896535 -88.7231221472489
vertex -851.983622844908 -7.71919107896535 -88.8782896458684
endloop
endfacet
facet normal 0.0 1.0 0.0
outer loop
vertex -854.331619501811 -7.71919107896535 -89.8779927446183
vertex -851.983622844908 -7.71919107896535 -88.8782896458684
vertex -851.581619501811 -7.71919107896535 -88.9312143900256
endloop
endfacet
facet normal 0.0 1.0 0.0
outer loop
vertex -854.331619501811 -7.71919107896535 -89.8779927446183
vertex -851.581619501811 -7.71919107896535 -88.9312143900256
vertex -848.831619501811 -7.71919107896535 -89.8779927446183
endloop
endfacet
facet normal 0.0 0.0 1.0
outer loop
vertex -848.831619501811 -14.2191910789654 -84.8779927446183
vertex -854.331619501811 -7.71919107896535 -84.8779927446183
vertex -854.331619501811 -14.2191910789654 -84.8779927446183
endloop
endfacet
facet normal 0.0 0.0 1.0
outer loop
vertex -854.331619501811 -7.71919107896535 -84.8779927446183
vertex -848.831619501811 -14.2191910789654 -84.8779927446183
vertex -848.831619501811 -7.71919107896535 -84.8779927446183
endloop
endfacet
facet normal 0.0 -1.0 0.0
outer loop
vertex -846.231619501811 -14.2191910789654 -89.8779927446183
vertex -840.731619501811 -14.2191910789654 -84.8779927446183
vertex -846.231619501811 -14.2191910789654 -84.8779927446183
endloop
endfacet
facet normal 0.0 -1.0 0.0
outer loop
vertex -840.731619501811 -14.2191910789654 -84.8779927446183
vertex -846.231619501811 -14.2191910789654 -89.8779927446183
vertex -840.731619501811 -14.2191910789654 -89.8779927446183
endloop
endfacet
facet normal -1.0 0.0 0.0
outer loop
vertex -846.231619501811 -14.2191910789654 -89.8779927446183
vertex -846.231619501811 -7.71919107896535 -84.8779927446183
vertex -846.231619501811 -7.71919107896535 -89.8779927446183
endloop
endfacet
facet normal -1.0 0.0 0.0
outer loop
vertex -846.231619501811 -7.71919107896535 -84.8779927446183
vertex -846.231619501811 -14.2191910789654 -89.8779927446183
vertex -846.231619501811 -14.2191910789654 -84.8779927446183
endloop
endfacet
facet normal 1.0 0.0 0.0
outer loop
vertex -840.731619501811 -14.2191910789654 -84.8779927446183
vertex -840.731619501811 -7.71919107896535 -89.8779927446183
vertex -840.731619501811 -7.71919107896535 -84.8779927446183
endloop
endfacet
facet normal 1.0 0.0 0.0
outer loop
vertex -840.731619501811 -7.71919107896535 -89.8779927446183
vertex -840.731619501811 -14.2191910789654 -84.8779927446183
vertex -840.731619501811 -14.2191910789654 -89.8779927446183
endloop
endfacet
facet normal 0.0 0.0 -1.0
outer loop
vertex -840.731619501811 -7.71919107896535 -89.8779927446183
vertex -846.231619501811 -14.2191910789654 -89.8779927446183
vertex -846.231619501811 -7.71919107896535 -89.8779927446183
endloop
endfacet
facet normal 0.0 0.0 -1.0
outer loop
vertex -846.231619501811 -14.2191910789654 -89.8779927446183
vertex -840.731619501811 -7.71919107896535 -89.8779927446183
vertex -840.731619501811 -14.2191910789654 -89.8779927446183
endloop
endfacet
facet normal 0.0 1.0 0.0
outer loop
vertex -840.731619501811 -7.71919107896535 -84.8779927446183
vertex -843.080338314935 -7.71919107896535 -85.8803909670764
vertex -846.231619501811 -7.71919107896535 -84.8779927446183
endloop
endfacet
facet normal 0.0 1.0 0.0
outer loop
vertex -843.080338314935 -7.71919107896535 -85.8803909670764
vertex -840.731619501811 -7.71919107896535 -84.8779927446183
vertex -842.706403777797 -7.71919107896535 -86.0352797237988
endloop
endfacet
facet normal 0.0 1.0 0.0
outer loop
vertex -842.706403777797 -7.71919107896535 -86.0352797237988
vertex -840.731619501811 -7.71919107896535 -84.8779927446183
vertex -842.385298911145 -7.71919107896535 -86.2816721539522
endloop
endfacet
facet normal 0.0 1.0 0.0
outer loop
vertex -842.385298911145 -7.71919107896535 -86.2816721539522
vertex -840.731619501811 -7.71919107896535 -84.8779927446183
vertex -842.138906480992 -7.71919107896535 -86.6027770206041
endloop
endfacet
facet normal 0.0 1.0 0.0
outer loop
vertex -842.138906480992 -7.71919107896535 -86.6027770206041
vertex -840.731619501811 -7.71919107896535 -84.8779927446183
vertex -840.731619501811 -7.71919107896535 -89.8779927446183
endloop
endfacet
facet normal 0.0 1.0 0.0
outer loop
vertex -846.231619501811 -7.71919107896535 -84.8779927446183
vertex -843.080338314935 -7.71919107896535 -85.8803909670764
vertex -843.481619501811 -7.71919107896535 -85.8275612965893
endloop
endfacet
facet normal 0.0 1.0 0.0
outer loop
vertex -842.138906480992 -7.71919107896535 -86.6027770206041
vertex -840.731619501811 -7.71919107896535 -89.8779927446183
vertex -841.984017724269 -7.71919107896535 -86.9767115577423
endloop
endfacet
facet normal 0.0 1.0 0.0
outer loop
vertex -841.984017724269 -7.71919107896535 -86.9767115577423
vertex -840.731619501811 -7.71919107896535 -89.8779927446183
vertex -841.931188053782 -7.71919107896535 -87.3779927446183
endloop
endfacet
facet normal 0.0 1.0 0.0
outer loop
vertex -841.931188053782 -7.71919107896535 -87.3779927446183
vertex -840.731619501811 -7.71919107896535 -89.8779927446183
vertex -841.984017724269 -7.71919107896535 -87.7792739314944
endloop
endfacet
facet normal 0.0 1.0 0.0
outer loop
vertex -841.984017724269 -7.71919107896535 -87.7792739314944
vertex -840.731619501811 -7.71919107896535 -89.8779927446183
vertex -842.138906480992 -7.71919107896535 -88.1532084686326
endloop
endfacet
facet normal 0.0 1.0 0.0
outer loop
vertex -842.138906480992 -7.71919107896535 -88.1532084686326
vertex -840.731619501811 -7.71919107896535 -89.8779927446183
vertex -842.385298911145 -7.71919107896535 -88.4743133352845
endloop
endfacet
facet normal 0.0 1.0 0.0
outer loop
vertex -842.385298911145 -7.71919107896535 -88.4743133352845
vertex -840.731619501811 -7.71919107896535 -89.8779927446183
vertex -842.706403777797 -7.71919107896535 -88.7207057654379
endloop
endfacet
facet normal 0.0 1.0 0.0
outer loop
vertex -842.706403777797 -7.71919107896535 -88.7207057654379
vertex -840.731619501811 -7.71919107896535 -89.8779927446183
vertex -843.080338314935 -7.71919107896535 -88.8755945221603
endloop
endfacet
facet normal 0.0 1.0 0.0
outer loop
vertex -843.080338314935 -7.71919107896535 -88.8755945221603
vertex -840.731619501811 -7.71919107896535 -89.8779927446183
vertex -843.481619501811 -7.71919107896535 -88.9284241926474
endloop
endfacet
facet normal 0.0 1.0 0.0
outer loop
vertex -846.231619501811 -7.71919107896535 -84.8779927446183
vertex -844.824332522631 -7.71919107896535 -86.6027770206041
vertex -846.231619501811 -7.71919107896535 -89.8779927446183
endloop
endfacet
facet normal 0.0 1.0 0.0
outer loop
vertex -844.824332522631 -7.71919107896535 -86.6027770206041
vertex -846.231619501811 -7.71919107896535 -84.8779927446183
vertex -844.577940092478 -7.71919107896535 -86.2816721539522
endloop
endfacet
facet normal 0.0 1.0 0.0
outer loop
vertex -844.577940092478 -7.71919107896535 -86.2816721539522
vertex -846.231619501811 -7.71919107896535 -84.8779927446183
vertex -844.256835225826 -7.71919107896535 -86.0352797237988
endloop
endfacet
facet normal 0.0 1.0 0.0
outer loop
vertex -844.256835225826 -7.71919107896535 -86.0352797237988
vertex -846.231619501811 -7.71919107896535 -84.8779927446183
vertex -843.882900688687 -7.71919107896535 -85.8803909670764
endloop
endfacet
facet normal 0.0 1.0 0.0
outer loop
vertex -843.882900688687 -7.71919107896535 -85.8803909670764
vertex -846.231619501811 -7.71919107896535 -84.8779927446183
vertex -843.481619501811 -7.71919107896535 -85.8275612965893
endloop
endfacet
facet normal 0.0 1.0 0.0
outer loop
vertex -846.231619501811 -7.71919107896535 -89.8779927446183
vertex -844.824332522631 -7.71919107896535 -86.6027770206041
vertex -844.979221279354 -7.71919107896535 -86.9767115577423
endloop
endfacet
facet normal 0.0 1.0 0.0
outer loop
vertex -846.231619501811 -7.71919107896535 -89.8779927446183
vertex -844.979221279354 -7.71919107896535 -86.9767115577423
vertex -845.03205094984 -7.71919107896535 -87.3779927446183
endloop
endfacet
facet normal 0.0 1.0 0.0
outer loop
vertex -846.231619501811 -7.71919107896535 -89.8779927446183
vertex -845.03205094984 -7.71919107896535 -87.3779927446183
vertex -844.979221279354 -7.71919107896535 -87.7792739314944
endloop
endfacet
facet normal 0.0 1.0 0.0
outer loop
vertex -846.231619501811 -7.71919107896535 -89.8779927446183
vertex -844.979221279354 -7.71919107896535 -87.7792739314944
vertex -844.824332522631 -7.71919107896535 -88.1532084686326
endloop
endfacet
facet normal 0.0 1.0 0.0
outer loop
vertex -846.231619501811 -7.71919107896535 -89.8779927446183
vertex -844.824332522631 -7.71919107896535 -88.1532084686326
vertex -844.577940092478 -7.71919107896535 -88.4743133352845
endloop
endfacet
facet normal 0.0 1.0 0.0
outer loop
vertex -846.231619501811 -7.71919107896535 -89.8779927446183
vertex -844.577940092478 -7.71919107896535 -88.4743133352845
vertex -844.256835225826 -7.71919107896535 -88.7207057654379
endloop
endfacet
facet normal 0.0 1.0 0.0
outer loop
vertex -846.231619501811 -7.71919107896535 -89.8779927446183
vertex -844.256835225826 -7.71919107896535 -88.7207057654379
vertex -843.882900688687 -7.71919107896535 -88.8755945221603
endloop
endfacet
facet normal 0.0 1.0 0.0
outer loop
vertex -846.231619501811 -7.71919107896535 -89.8779927446183
vertex -843.882900688687 -7.71919107896535 -88.8755945221603
vertex -843.481619501811 -7.71919107896535 -88.9284241926474
endloop
endfacet
facet normal 0.0 1.0 0.0
outer loop
vertex -846.231619501811 -7.71919107896535 -89.8779927446183
vertex -843.481619501811 -7.71919107896535 -88.9284241926474
vertex -840.731619501811 -7.71919107896535 -89.8779927446183
endloop
endfacet
facet normal 0.0 0.0 1.0
outer loop
vertex -840.731619501811 -14.2191910789654 -84.8779927446183
vertex -846.231619501811 -7.71919107896535 -84.8779927446183
vertex -846.231619501811 -14.2191910789654 -84.8779927446183
endloop
endfacet
facet normal 0.0 0.0 1.0
outer loop
vertex -846.231619501811 -7.71919107896535 -84.8779927446183
vertex -840.731619501811 -14.2191910789654 -84.8779927446183
vertex -840.731619501811 -7.71919107896535 -84.8779927446183
endloop
endfacet
facet normal -0.707106781186483 -0.0 0.707106781186612
outer loop
vertex -842.385298911145 -10.7191910789654 -88.4743133352845
vertex -842.138906480992 -7.71919107896535 -88.1532084686326
vertex -842.385298911145 -7.71919107896535 -88.4743133352845
endloop
endfacet
facet normal -0.86602540378434 -0.0 0.50000000000017
outer loop
vertex -842.138906480992 -7.71919107896535 -88.1532084686326
vertex -842.385298911145 -10.7191910789654 -88.4743133352845
vertex -842.138906480992 -10.7191910789654 -88.1532084686326
endloop
endfacet
facet normal 0.0 0.0 -1.0
outer loop
vertex -851.581619501811 -7.71919107896535 -85.8247710992111
vertex -851.983622844908 -10.7191910789654 -85.8776958433683
vertex -851.983622844908 -7.71919107896535 -85.8776958433683
endloop
endfacet
facet normal 0.258819045102486 0.0 -0.965925826289078
outer loop
vertex -851.983622844908 -10.7191910789654 -85.8776958433683
vertex -851.581619501811 -7.71919107896535 -85.8247710992111
vertex -851.581619501811 -10.7191910789654 -85.8247710992111
endloop
endfacet
facet normal 0.500000000000041 0.0 0.866025403784415
outer loop
vertex -844.256835225826 -10.7191910789654 -88.7207057654379
vertex -844.577940092478 -7.71919107896535 -88.4743133352845
vertex -844.577940092478 -10.7191910789654 -88.4743133352845
endloop
endfacet
facet normal 0.707106781186483 0.0 0.707106781186612
outer loop
vertex -844.577940092478 -7.71919107896535 -88.4743133352845
vertex -844.256835225826 -10.7191910789654 -88.7207057654379
vertex -844.256835225826 -7.71919107896535 -88.7207057654379
endloop
endfacet
facet normal -0.86602540378434 -0.0 0.50000000000017
outer loop
vertex -842.138906480992 -10.7191910789654 -88.1532084686326
vertex -841.984017724269 -7.71919107896535 -87.7792739314944
vertex -842.138906480992 -7.71919107896535 -88.1532084686326
endloop
endfacet
facet normal -0.965925826289083 -0.0 0.258819045102468
outer loop
vertex -841.984017724269 -7.71919107896535 -87.7792739314944
vertex -842.138906480992 -10.7191910789654 -88.1532084686326
vertex -841.984017724269 -10.7191910789654 -87.7792739314944
endloop
endfacet
facet normal 0.965925826289083 0.0 0.258819045102468
outer loop
vertex -844.979221279354 -10.7191910789654 -87.7792739314944
vertex -844.824332522631 -7.71919107896535 -88.1532084686326
vertex -844.979221279354 -7.71919107896535 -87.7792739314944
endloop
endfacet
facet normal 0.86602540378434 0.0 0.50000000000017
outer loop
vertex -844.824332522631 -7.71919107896535 -88.1532084686326
vertex -844.979221279354 -10.7191910789654 -87.7792739314944
vertex -844.824332522631 -10.7191910789654 -88.1532084686326
endloop
endfacet
facet normal 0.86602540378434 0.0 0.50000000000017
outer loop
vertex -844.824332522631 -10.7191910789654 -88.1532084686326
vertex -844.577940092478 -7.71919107896535 -88.4743133352845
vertex -844.824332522631 -7.71919107896535 -88.1532084686326
endloop
endfacet
facet normal 0.707106781186483 0.0 0.707106781186612
outer loop
vertex -844.577940092478 -7.71919107896535 -88.4743133352845
vertex -844.824332522631 -10.7191910789654 -88.1532084686326
vertex -844.577940092478 -10.7191910789654 -88.4743133352845
endloop
endfacet
facet normal 0.500000000000015 0.0 -0.86602540378443
outer loop
vertex -852.358230324515 -7.71919107896535 -86.0328633419878
vertex -852.679913059965 -10.7191910789654 -86.2796991864653
vertex -852.679913059965 -7.71919107896535 -86.2796991864653
endloop
endfacet
facet normal 0.707106781186536 0.0 -0.707106781186559
outer loop
vertex -852.679913059965 -10.7191910789654 -86.2796991864653
vertex -852.358230324515 -7.71919107896535 -86.0328633419878
vertex -852.358230324515 -10.7191910789654 -86.0328633419878
endloop
endfacet
facet normal -0.965925826289083 -0.0 0.258819045102468
outer loop
vertex -841.984017724269 -10.7191910789654 -87.7792739314944
vertex -841.931188053782 -7.71919107896535 -87.3779927446183
vertex -841.984017724269 -7.71919107896535 -87.7792739314944
endloop
endfacet
facet normal -1.0 0.0 0.0
outer loop
vertex -841.931188053782 -7.71919107896535 -87.3779927446183
vertex -841.984017724269 -10.7191910789654 -87.7792739314944
vertex -841.931188053782 -10.7191910789654 -87.3779927446183
endloop
endfacet
facet normal -0.707106781186536 0.0 -0.707106781186559
outer loop
vertex -850.483325943658 -7.71919107896535 -86.2796991864653
vertex -850.805008679108 -10.7191910789654 -86.0328633419878
vertex -850.805008679108 -7.71919107896535 -86.0328633419878
endloop
endfacet
facet normal -0.500000000000015 0.0 -0.86602540378443
outer loop
vertex -850.805008679108 -10.7191910789654 -86.0328633419878
vertex -850.483325943658 -7.71919107896535 -86.2796991864653
vertex -850.483325943658 -10.7191910789654 -86.2796991864653
endloop
endfacet
facet normal 1.0 0.0 0.0
outer loop
vertex -845.03205094984 -10.7191910789654 -87.3779927446183
vertex -844.979221279354 -7.71919107896535 -87.7792739314944
vertex -845.03205094984 -7.71919107896535 -87.3779927446183
endloop
endfacet
facet normal 0.965925826289083 0.0 0.258819045102468
outer loop
vertex -844.979221279354 -7.71919107896535 -87.7792739314944
vertex -845.03205094984 -10.7191910789654 -87.3779927446183
vertex -844.979221279354 -10.7191910789654 -87.7792739314944
endloop
endfacet
facet normal -1.0 0.0 0.0
outer loop
vertex -841.931188053782 -10.7191910789654 -87.3779927446183
vertex -841.984017724269 -7.71919107896535 -86.9767115577423
vertex -841.931188053782 -7.71919107896535 -87.3779927446183
endloop
endfacet
facet normal -0.965925826289083 0.0 -0.258819045102468
outer loop
vertex -841.984017724269 -7.71919107896535 -86.9767115577423
vertex -841.931188053782 -10.7191910789654 -87.3779927446183
vertex -841.984017724269 -10.7191910789654 -86.9767115577423
endloop
endfacet
facet normal -0.500000000000041 -0.0 0.866025403784415
outer loop
vertex -842.706403777797 -10.7191910789654 -88.7207057654379
vertex -843.080338314935 -7.71919107896535 -88.8755945221603
vertex -843.080338314935 -10.7191910789654 -88.8755945221603
endloop
endfacet
facet normal -0.258819045102549 -0.0 0.965925826289061
outer loop
vertex -843.080338314935 -7.71919107896535 -88.8755945221603
vertex -842.706403777797 -10.7191910789654 -88.7207057654379
vertex -842.706403777797 -7.71919107896535 -88.7207057654379
endloop
endfacet
facet normal -0.965925826289083 0.0 -0.258819045102468
outer loop
vertex -841.984017724269 -10.7191910789654 -86.9767115577423
vertex -842.138906480992 -7.71919107896535 -86.6027770206041
vertex -841.984017724269 -7.71919107896535 -86.9767115577423
endloop
endfacet
facet normal -0.86602540378434 0.0 -0.50000000000017
outer loop
vertex -842.138906480992 -7.71919107896535 -86.6027770206041
vertex -841.984017724269 -10.7191910789654 -86.9767115577423
vertex -842.138906480992 -10.7191910789654 -86.6027770206041
endloop
endfacet
facet normal 0.0 1.0 0.0
outer loop
vertex -843.080338314935 -10.7191910789654 -85.8803909670764
vertex -843.882900688687 -10.7191910789654 -85.8803909670764
vertex -843.481619501811 -10.7191910789654 -85.8275612965893
endloop
endfacet
facet normal 0.0 1.0 0.0
outer loop
vertex -843.882900688687 -10.7191910789654 -85.8803909670764
vertex -843.080338314935 -10.7191910789654 -85.8803909670764
vertex -842.706403777797 -10.7191910789654 -86.0352797237988
endloop
endfacet
facet normal 0.0 1.0 0.0
outer loop
vertex -843.882900688687 -10.7191910789654 -85.8803909670764
vertex -842.706403777797 -10.7191910789654 -86.0352797237988
vertex -844.256835225826 -10.7191910789654 -86.0352797237988
endloop
endfacet
facet normal 0.0 1.0 0.0
outer loop
vertex -844.256835225826 -10.7191910789654 -86.0352797237988
vertex -842.706403777797 -10.7191910789654 -86.0352797237988
vertex -842.385298911145 -10.7191910789654 -86.2816721539522
endloop
endfacet
facet normal 0.0 1.0 0.0
outer loop
vertex -844.256835225826 -10.7191910789654 -86.0352797237988
vertex -842.385298911145 -10.7191910789654 -86.2816721539522
vertex -844.577940092478 -10.7191910789654 -86.2816721539522
endloop
endfacet
facet normal 0.0 1.0 0.0
outer loop
vertex -844.577940092478 -10.7191910789654 -86.2816721539522
vertex -842.385298911145 -10.7191910789654 -86.2816721539522
vertex -842.138906480992 -10.7191910789654 -86.6027770206041
endloop
endfacet
facet normal 0.0 1.0 0.0
outer loop
vertex -844.577940092478 -10.7191910789654 -86.2816721539522
vertex -842.138906480992 -10.7191910789654 -86.6027770206041
vertex -844.824332522631 -10.7191910789654 -86.6027770206041
endloop
endfacet
facet normal 0.0 1.0 0.0
outer loop
vertex -844.824332522631 -10.7191910789654 -86.6027770206041
vertex -842.138906480992 -10.7191910789654 -86.6027770206041
vertex -841.984017724269 -10.7191910789654 -86.9767115577423
endloop
endfacet
facet normal 0.0 1.0 0.0
outer loop
vertex -844.824332522631 -10.7191910789654 -86.6027770206041
vertex -841.984017724269 -10.7191910789654 -86.9767115577423
vertex -844.979221279354 -10.7191910789654 -86.9767115577423
endloop
endfacet
facet normal 0.0 1.0 0.0
outer loop
vertex -844.979221279354 -10.7191910789654 -86.9767115577423
vertex -841.984017724269 -10.7191910789654 -86.9767115577423
vertex -841.931188053782 -10.7191910789654 -87.3779927446183
endloop
endfacet
facet normal 0.0 1.0 0.0
outer loop
vertex -844.979221279354 -10.7191910789654 -86.9767115577423
vertex -841.931188053782 -10.7191910789654 -87.3779927446183
vertex -845.03205094984 -10.7191910789654 -87.3779927446183
endloop
endfacet
facet normal 0.0 1.0 0.0
outer loop
vertex -845.03205094984 -10.7191910789654 -87.3779927446183
vertex -841.931188053782 -10.7191910789654 -87.3779927446183
vertex -841.984017724269 -10.7191910789654 -87.7792739314944
endloop
endfacet
facet normal 0.0 1.0 0.0
outer loop
vertex -845.03205094984 -10.7191910789654 -87.3779927446183
vertex -841.984017724269 -10.7191910789654 -87.7792739314944
vertex -844.979221279354 -10.7191910789654 -87.7792739314944
endloop
endfacet
facet normal 0.0 1.0 0.0
outer loop
vertex -844.979221279354 -10.7191910789654 -87.7792739314944
vertex -841.984017724269 -10.7191910789654 -87.7792739314944
vertex -842.138906480992 -10.7191910789654 -88.1532084686326
endloop
endfacet
facet normal 0.0 1.0 0.0
outer loop
vertex -844.979221279354 -10.7191910789654 -87.7792739314944
vertex -842.138906480992 -10.7191910789654 -88.1532084686326
vertex -844.824332522631 -10.7191910789654 -88.1532084686326
endloop
endfacet
facet normal 0.0 1.0 0.0
outer loop
vertex -844.824332522631 -10.7191910789654 -88.1532084686326
vertex -842.138906480992 -10.7191910789654 -88.1532084686326
vertex -842.385298911145 -10.7191910789654 -88.4743133352845
endloop
endfacet
facet normal 0.0 1.0 0.0
outer loop
vertex -844.824332522631 -10.7191910789654 -88.1532084686326
vertex -842.385298911145 -10.7191910789654 -88.4743133352845
vertex -844.577940092478 -10.7191910789654 -88.4743133352845
endloop
endfacet
facet normal 0.0 1.0 0.0
outer loop
vertex -844.577940092478 -10.7191910789654 -88.4743133352845
vertex -842.385298911145 -10.7191910789654 -88.4743133352845
vertex -842.706403777797 -10.7191910789654 -88.7207057654379
endloop
endfacet
facet normal 0.0 1.0 0.0
outer loop
vertex -844.577940092478 -10.7191910789654 -88.4743133352845
vertex -842.706403777797 -10.7191910789654 -88.7207057654379
vertex -844.256835225826 -10.7191910789654 -88.7207057654379
endloop
endfacet
facet normal 0.0 1.0 0.0
outer loop
vertex -844.256835225826 -10.7191910789654 -88.7207057654379
vertex -842.706403777797 -10.7191910789654 -88.7207057654379
vertex -843.080338314935 -10.7191910789654 -88.8755945221603
endloop
endfacet
facet normal 0.0 1.0 0.0
outer loop
vertex -844.256835225826 -10.7191910789654 -88.7207057654379
vertex -843.080338314935 -10.7191910789654 -88.8755945221603
vertex -843.882900688687 -10.7191910789654 -88.8755945221603
endloop
endfacet
facet normal 0.0 1.0 0.0
outer loop
vertex -843.882900688687 -10.7191910789654 -88.8755945221603
vertex -843.080338314935 -10.7191910789654 -88.8755945221603
vertex -843.481619501811 -10.7191910789654 -88.9284241926474
endloop
endfacet
facet normal -0.707106781186483 -0.0 0.707106781186612
outer loop
vertex -842.385298911145 -10.7191910789654 -88.4743133352845
vertex -842.706403777797 -7.71919107896535 -88.7207057654379
vertex -842.706403777797 -10.7191910789654 -88.7207057654379
endloop
endfacet
facet normal -0.500000000000041 -0.0 0.866025403784415
outer loop
vertex -842.706403777797 -7.71919107896535 -88.7207057654379
vertex -842.385298911145 -10.7191910789654 -88.4743133352845
vertex -842.385298911145 -7.71919107896535 -88.4743133352845
endloop
endfacet
facet normal -0.258819045102549 -0.0 0.965925826289061
outer loop
vertex -843.080338314935 -10.7191910789654 -88.8755945221603
vertex -843.481619501811 -7.71919107896535 -88.9284241926474
vertex -843.481619501811 -10.7191910789654 -88.9284241926474
endloop
endfacet
facet normal 0.0 0.0 1.0
outer loop
vertex -843.481619501811 -7.71919107896535 -88.9284241926474
vertex -843.080338314935 -10.7191910789654 -88.8755945221603
vertex -843.080338314935 -7.71919107896535 -88.8755945221603
endloop
endfacet
facet normal 0.258819045102549 0.0 0.965925826289061
outer loop
vertex -843.882900688687 -10.7191910789654 -88.8755945221603
vertex -844.256835225826 -7.71919107896535 -88.7207057654379
vertex -844.256835225826 -10.7191910789654 -88.7207057654379
endloop
endfacet
facet normal 0.500000000000041 0.0 0.866025403784415
outer loop
vertex -844.256835225826 -7.71919107896535 -88.7207057654379
vertex -843.882900688687 -10.7191910789654 -88.8755945221603
vertex -843.882900688687 -7.71919107896535 -88.8755945221603
endloop
endfacet
facet normal 0.0 0.0 1.0
outer loop
vertex -843.481619501811 -10.7191910789654 -88.9284241926474
vertex -843.882900688687 -7.71919107896535 -88.8755945221603
vertex -843.882900688687 -10.7191910789654 -88.8755945221603
endloop
endfacet
facet normal 0.258819045102549 0.0 0.965925826289061
outer loop
vertex -843.882900688687 -7.71919107896535 -88.8755945221603
vertex -843.481619501811 -10.7191910789654 -88.9284241926474
vertex -843.481619501811 -7.71919107896535 -88.9284241926474
endloop
endfacet
facet normal -0.500000000000015 0.0 -0.86602540378443
outer loop
vertex -850.805008679108 -7.71919107896535 -86.0328633419878
vertex -851.179616158714 -10.7191910789654 -85.8776958433683
vertex -851.179616158714 -7.71919107896535 -85.8776958433683
endloop
endfacet
facet normal -0.258819045102486 0.0 -0.965925826289078
outer loop
vertex -851.179616158714 -10.7191910789654 -85.8776958433683
vertex -850.805008679108 -7.71919107896535 -86.0328633419878
vertex -850.805008679108 -10.7191910789654 -86.0328633419878
endloop
endfacet
facet normal 0.965925826289083 0.0 -0.258819045102468
outer loop
vertex -844.979221279354 -10.7191910789654 -86.9767115577423
vertex -845.03205094984 -7.71919107896535 -87.3779927446183
vertex -844.979221279354 -7.71919107896535 -86.9767115577423
endloop
endfacet
facet normal 1.0 0.0 0.0
outer loop
vertex -845.03205094984 -7.71919107896535 -87.3779927446183
vertex -844.979221279354 -10.7191910789654 -86.9767115577423
vertex -845.03205094984 -10.7191910789654 -87.3779927446183
endloop
endfacet
facet normal 0.86602540378434 0.0 -0.50000000000017
outer loop
vertex -844.824332522631 -10.7191910789654 -86.6027770206041
vertex -844.979221279354 -7.71919107896535 -86.9767115577423
vertex -844.824332522631 -7.71919107896535 -86.6027770206041
endloop
endfacet
facet normal 0.965925826289083 0.0 -0.258819045102468
outer loop
vertex -844.979221279354 -7.71919107896535 -86.9767115577423
vertex -844.824332522631 -10.7191910789654 -86.6027770206041
vertex -844.979221279354 -10.7191910789654 -86.9767115577423
endloop
endfacet
facet normal 0.707106781186483 0.0 -0.707106781186612
outer loop
vertex -844.577940092478 -10.7191910789654 -86.2816721539522
vertex -844.824332522631 -7.71919107896535 -86.6027770206041
vertex -844.577940092478 -7.71919107896535 -86.2816721539522
endloop
endfacet
facet normal 0.86602540378434 0.0 -0.50000000000017
outer loop
vertex -844.824332522631 -7.71919107896535 -86.6027770206041
vertex -844.577940092478 -10.7191910789654 -86.2816721539522
vertex -844.824332522631 -10.7191910789654 -86.6027770206041
endloop
endfacet
facet normal 0.500000000000041 0.0 -0.866025403784415
outer loop
vertex -844.256835225826 -7.71919107896535 -86.0352797237988
vertex -844.577940092478 -10.7191910789654 -86.2816721539522
vertex -844.577940092478 -7.71919107896535 -86.2816721539522
endloop
endfacet
facet normal 0.707106781186483 0.0 -0.707106781186612
outer loop
vertex -844.577940092478 -10.7191910789654 -86.2816721539522
vertex -844.256835225826 -7.71919107896535 -86.0352797237988
vertex -844.256835225826 -10.7191910789654 -86.0352797237988
endloop
endfacet
facet normal -0.86602540378434 0.0 -0.50000000000017
outer loop
vertex -842.138906480992 -10.7191910789654 -86.6027770206041
vertex -842.385298911145 -7.71919107896535 -86.2816721539522
vertex -842.138906480992 -7.71919107896535 -86.6027770206041
endloop
endfacet
facet normal -0.707106781186483 0.0 -0.707106781186612
outer loop
vertex -842.385298911145 -7.71919107896535 -86.2816721539522
vertex -842.138906480992 -10.7191910789654 -86.6027770206041
vertex -842.385298911145 -10.7191910789654 -86.2816721539522
endloop
endfacet
facet normal -0.707106781186483 0.0 -0.707106781186612
outer loop
vertex -842.385298911145 -7.71919107896535 -86.2816721539522
vertex -842.706403777797 -10.7191910789654 -86.0352797237988
vertex -842.706403777797 -7.71919107896535 -86.0352797237988
endloop
endfacet
facet normal -0.500000000000041 0.0 -0.866025403784415
outer loop
vertex -842.706403777797 -10.7191910789654 -86.0352797237988
vertex -842.385298911145 -7.71919107896535 -86.2816721539522
vertex -842.385298911145 -10.7191910789654 -86.2816721539522
endloop
endfacet
facet normal -0.500000000000041 0.0 -0.866025403784415
outer loop
vertex -842.706403777797 -7.71919107896535 -86.0352797237988
vertex -843.080338314935 -10.7191910789654 -85.8803909670764
vertex -843.080338314935 -7.71919107896535 -85.8803909670764
endloop
endfacet
facet normal -0.258819045102549 0.0 -0.965925826289061
outer loop
vertex -843.080338314935 -10.7191910789654 -85.8803909670764
vertex -842.706403777797 -7.71919107896535 -86.0352797237988
vertex -842.706403777797 -10.7191910789654 -86.0352797237988
endloop
endfacet
facet normal -0.258819045102549 0.0 -0.965925826289061
outer loop
vertex -843.080338314935 -7.71919107896535 -85.8803909670764
vertex -843.481619501811 -10.7191910789654 -85.8275612965893
vertex -843.481619501811 -7.71919107896535 -85.8275612965893
endloop
endfacet
facet normal 0.0 0.0 -1.0
outer loop
vertex -843.481619501811 -10.7191910789654 -85.8275612965893
vertex -843.080338314935 -7.71919107896535 -85.8803909670764
vertex -843.080338314935 -10.7191910789654 -85.8803909670764
endloop
endfacet
facet normal 0.0 0.0 -1.0
outer loop
vertex -843.481619501811 -7.71919107896535 -85.8275612965893
vertex -843.882900688687 -10.7191910789654 -85.8803909670764
vertex -843.882900688687 -7.71919107896535 -85.8803909670764
endloop
endfacet
facet normal 0.258819045102549 0.0 -0.965925826289061
outer loop
vertex -843.882900688687 -10.7191910789654 -85.8803909670764
vertex -843.481619501811 -7.71919107896535 -85.8275612965893
vertex -843.481619501811 -10.7191910789654 -85.8275612965893
endloop
endfacet
facet normal 0.258819045102549 0.0 -0.965925826289061
outer loop
vertex -843.882900688687 -7.71919107896535 -85.8803909670764
vertex -844.256835225826 -10.7191910789654 -86.0352797237988
vertex -844.256835225826 -7.71919107896535 -86.0352797237988
endloop
endfacet
facet normal 0.500000000000041 0.0 -0.866025403784415
outer loop
vertex -844.256835225826 -10.7191910789654 -86.0352797237988
vertex -843.882900688687 -7.71919107896535 -85.8803909670764
vertex -843.882900688687 -10.7191910789654 -85.8803909670764
endloop
endfacet
facet normal 0.965925826289112 0.0 -0.258819045102357
outer loop
vertex -853.081916403062 -10.7191910789654 -86.9759894015215
vertex -853.134841147218 -7.71919107896535 -87.3779927446183
vertex -853.081916403062 -7.71919107896535 -86.9759894015215
endloop
endfacet
facet normal 1.0 0.0 0.0
outer loop
vertex -853.134841147218 -7.71919107896535 -87.3779927446183
vertex -853.081916403062 -10.7191910789654 -86.9759894015215
vertex -853.134841147218 -10.7191910789654 -87.3779927446183
endloop
endfacet
facet normal -0.258819045102486 0.0 -0.965925826289078
outer loop
vertex -851.179616158714 -7.71919107896535 -85.8776958433683
vertex -851.581619501811 -10.7191910789654 -85.8247710992111
vertex -851.581619501811 -7.71919107896535 -85.8247710992111
endloop
endfacet
facet normal 0.0 0.0 -1.0
outer loop
vertex -851.581619501811 -10.7191910789654 -85.8247710992111
vertex -851.179616158714 -7.71919107896535 -85.8776958433683
vertex -851.179616158714 -10.7191910789654 -85.8776958433683
endloop
endfacet
facet normal -0.86602540378435 0.0 -0.500000000000154
outer loop
vertex -850.236490099181 -10.7191910789654 -86.6013819219146
vertex -850.483325943658 -7.71919107896535 -86.2796991864653
vertex -850.236490099181 -7.71919107896535 -86.6013819219146
endloop
endfacet
facet normal -0.707106781186536 0.0 -0.707106781186559
outer loop
vertex -850.483325943658 -7.71919107896535 -86.2796991864653
vertex -850.236490099181 -10.7191910789654 -86.6013819219146
vertex -850.483325943658 -10.7191910789654 -86.2796991864653
endloop
endfacet
facet normal 1.0 0.0 0.0
outer loop
vertex -853.134841147218 -10.7191910789654 -87.3779927446183
vertex -853.081916403062 -7.71919107896535 -87.7799960877152
vertex -853.134841147218 -7.71919107896535 -87.3779927446183
endloop
endfacet
facet normal 0.965925826289112 0.0 0.258819045102357
outer loop
vertex -853.081916403062 -7.71919107896535 -87.7799960877152
vertex -853.134841147218 -10.7191910789654 -87.3779927446183
vertex -853.081916403062 -10.7191910789654 -87.7799960877152
endloop
endfacet
facet normal 0.965925826289112 0.0 0.258819045102357
outer loop
vertex -853.081916403062 -10.7191910789654 -87.7799960877152
vertex -852.926748904442 -7.71919107896535 -88.1546035673221
vertex -853.081916403062 -7.71919107896535 -87.7799960877152
endloop
endfacet
facet normal 0.86602540378435 0.0 0.500000000000154
outer loop
vertex -852.926748904442 -7.71919107896535 -88.1546035673221
vertex -853.081916403062 -10.7191910789654 -87.7799960877152
vertex -852.926748904442 -10.7191910789654 -88.1546035673221
endloop
endfacet
facet normal 0.86602540378435 0.0 0.500000000000154
outer loop
vertex -852.926748904442 -10.7191910789654 -88.1546035673221
vertex -852.679913059965 -7.71919107896535 -88.4762863027714
vertex -852.926748904442 -7.71919107896535 -88.1546035673221
endloop
endfacet
facet normal 0.707106781186536 0.0 0.707106781186559
outer loop
vertex -852.679913059965 -7.71919107896535 -88.4762863027714
vertex -852.926748904442 -10.7191910789654 -88.1546035673221
vertex -852.679913059965 -10.7191910789654 -88.4762863027714
endloop
endfacet
facet normal 0.707106781186536 0.0 -0.707106781186559
outer loop
vertex -852.679913059965 -10.7191910789654 -86.2796991864653
vertex -852.926748904442 -7.71919107896535 -86.6013819219146
vertex -852.679913059965 -7.71919107896535 -86.2796991864653
endloop
endfacet
facet normal 0.86602540378435 0.0 -0.500000000000154
outer loop
vertex -852.926748904442 -7.71919107896535 -86.6013819219146
vertex -852.679913059965 -10.7191910789654 -86.2796991864653
vertex -852.926748904442 -10.7191910789654 -86.6013819219146
endloop
endfacet
facet normal 0.500000000000015 0.0 0.86602540378443
outer loop
vertex -852.358230324515 -10.7191910789654 -88.7231221472489
vertex -852.679913059965 -7.71919107896535 -88.4762863027714
vertex -852.679913059965 -10.7191910789654 -88.4762863027714
endloop
endfacet
facet normal 0.707106781186536 0.0 0.707106781186559
outer loop
vertex -852.679913059965 -7.71919107896535 -88.4762863027714
vertex -852.358230324515 -10.7191910789654 -88.7231221472489
vertex -852.358230324515 -7.71919107896535 -88.7231221472489
endloop
endfacet
facet normal 0.258819045102486 0.0 -0.965925826289078
outer loop
vertex -851.983622844908 -7.71919107896535 -85.8776958433683
vertex -852.358230324515 -10.7191910789654 -86.0328633419878
vertex -852.358230324515 -7.71919107896535 -86.0328633419878
endloop
endfacet
facet normal 0.500000000000015 0.0 -0.86602540378443
outer loop
vertex -852.358230324515 -10.7191910789654 -86.0328633419878
vertex -851.983622844908 -7.71919107896535 -85.8776958433683
vertex -851.983622844908 -10.7191910789654 -85.8776958433683
endloop
endfacet
facet normal 0.0 1.0 0.0
outer loop
vertex -851.179616158714 -10.7191910789654 -85.8776958433683
vertex -851.983622844908 -10.7191910789654 -85.8776958433683
vertex -851.581619501811 -10.7191910789654 -85.8247710992111
endloop
endfacet
facet normal 0.0 1.0 0.0
outer loop
vertex -851.983622844908 -10.7191910789654 -85.8776958433683
vertex -851.179616158714 -10.7191910789654 -85.8776958433683
vertex -850.805008679108 -10.7191910789654 -86.0328633419878
endloop
endfacet
facet normal 0.0 1.0 0.0
outer loop
vertex -851.983622844908 -10.7191910789654 -85.8776958433683
vertex -850.805008679108 -10.7191910789654 -86.0328633419878
vertex -852.358230324515 -10.7191910789654 -86.0328633419878
endloop
endfacet
facet normal 0.0 1.0 0.0
outer loop
vertex -852.358230324515 -10.7191910789654 -86.0328633419878
vertex -850.805008679108 -10.7191910789654 -86.0328633419878
vertex -850.483325943658 -10.7191910789654 -86.2796991864653
endloop
endfacet
facet normal 0.0 1.0 0.0
outer loop
vertex -852.358230324515 -10.7191910789654 -86.0328633419878
vertex -850.483325943658 -10.7191910789654 -86.2796991864653
vertex -852.679913059965 -10.7191910789654 -86.2796991864653
endloop
endfacet
facet normal 0.0 1.0 0.0
outer loop
vertex -852.679913059965 -10.7191910789654 -86.2796991864653
vertex -850.483325943658 -10.7191910789654 -86.2796991864653
vertex -850.236490099181 -10.7191910789654 -86.6013819219146
endloop
endfacet
facet normal 0.0 1.0 0.0
outer loop
vertex -852.679913059965 -10.7191910789654 -86.2796991864653
vertex -850.236490099181 -10.7191910789654 -86.6013819219146
vertex -852.926748904442 -10.7191910789654 -86.6013819219146
endloop
endfacet
facet normal 0.0 1.0 0.0
outer loop
vertex -852.926748904442 -10.7191910789654 -86.6013819219146
vertex -850.236490099181 -10.7191910789654 -86.6013819219146
vertex -850.081322600561 -10.7191910789654 -86.9759894015215
endloop
endfacet
facet normal 0.0 1.0 0.0
outer loop
vertex -852.926748904442 -10.7191910789654 -86.6013819219146
vertex -850.081322600561 -10.7191910789654 -86.9759894015215
vertex -853.081916403062 -10.7191910789654 -86.9759894015215
endloop
endfacet
facet normal 0.0 1.0 0.0
outer loop
vertex -853.081916403062 -10.7191910789654 -86.9759894015215
vertex -850.081322600561 -10.7191910789654 -86.9759894015215
vertex -850.028397856404 -10.7191910789654 -87.3779927446183
endloop
endfacet
facet normal 0.0 1.0 0.0
outer loop
vertex -853.081916403062 -10.7191910789654 -86.9759894015215
vertex -850.028397856404 -10.7191910789654 -87.3779927446183
vertex -853.134841147218 -10.7191910789654 -87.3779927446183
endloop
endfacet
facet normal 0.0 1.0 0.0
outer loop
vertex -853.134841147218 -10.7191910789654 -87.3779927446183
vertex -850.028397856404 -10.7191910789654 -87.3779927446183
vertex -850.081322600561 -10.7191910789654 -87.7799960877152
endloop
endfacet
facet normal 0.0 1.0 0.0
outer loop
vertex -853.134841147218 -10.7191910789654 -87.3779927446183
vertex -850.081322600561 -10.7191910789654 -87.7799960877152
vertex -853.081916403062 -10.7191910789654 -87.7799960877152
endloop
endfacet
facet normal 0.0 1.0 0.0
outer loop
vertex -853.081916403062 -10.7191910789654 -87.7799960877152
vertex -850.081322600561 -10.7191910789654 -87.7799960877152
vertex -850.236490099181 -10.7191910789654 -88.1546035673221
endloop
endfacet
facet normal 0.0 1.0 0.0
outer loop
vertex -853.081916403062 -10.7191910789654 -87.7799960877152
vertex -850.236490099181 -10.7191910789654 -88.1546035673221
vertex -852.926748904442 -10.7191910789654 -88.1546035673221
endloop
endfacet
facet normal 0.0 1.0 0.0
outer loop
vertex -852.926748904442 -10.7191910789654 -88.1546035673221
vertex -850.236490099181 -10.7191910789654 -88.1546035673221
vertex -850.483325943658 -10.7191910789654 -88.4762863027714
endloop
endfacet
facet normal 0.0 1.0 0.0
outer loop
vertex -852.926748904442 -10.7191910789654 -88.1546035673221
vertex -850.483325943658 -10.7191910789654 -88.4762863027714
vertex -852.679913059965 -10.7191910789654 -88.4762863027714
endloop
endfacet
facet normal 0.0 1.0 0.0
outer loop
vertex -852.679913059965 -10.7191910789654 -88.4762863027714
vertex -850.483325943658 -10.7191910789654 -88.4762863027714
vertex -850.805008679108 -10.7191910789654 -88.7231221472489
endloop
endfacet
facet normal 0.0 1.0 0.0
outer loop
vertex -852.679913059965 -10.7191910789654 -88.4762863027714
vertex -850.805008679108 -10.7191910789654 -88.7231221472489
vertex -852.358230324515 -10.7191910789654 -88.7231221472489
endloop
endfacet
facet normal 0.0 1.0 0.0
outer loop
vertex -852.358230324515 -10.7191910789654 -88.7231221472489
vertex -850.805008679108 -10.7191910789654 -88.7231221472489
vertex -851.179616158714 -10.7191910789654 -88.8782896458684
endloop
endfacet
facet normal 0.0 1.0 0.0
outer loop
vertex -852.358230324515 -10.7191910789654 -88.7231221472489
vertex -851.179616158714 -10.7191910789654 -88.8782896458684
vertex -851.983622844908 -10.7191910789654 -88.8782896458684
endloop
endfacet
facet normal 0.0 1.0 0.0
outer loop
vertex -851.983622844908 -10.7191910789654 -88.8782896458684
vertex -851.179616158714 -10.7191910789654 -88.8782896458684
vertex -851.581619501811 -10.7191910789654 -88.9312143900256
endloop
endfacet
facet normal 0.86602540378435 0.0 -0.500000000000154
outer loop
vertex -852.926748904442 -10.7191910789654 -86.6013819219146
vertex -853.081916403062 -7.71919107896535 -86.9759894015215
vertex -852.926748904442 -7.71919107896535 -86.6013819219146
endloop
endfacet
facet normal 0.965925826289112 0.0 -0.258819045102357
outer loop
vertex -853.081916403062 -7.71919107896535 -86.9759894015215
vertex -852.926748904442 -10.7191910789654 -86.6013819219146
vertex -853.081916403062 -10.7191910789654 -86.9759894015215
endloop
endfacet
facet normal -0.965925826289112 0.0 -0.258819045102357
outer loop
vertex -850.081322600561 -10.7191910789654 -86.9759894015215
vertex -850.236490099181 -7.71919107896535 -86.6013819219146
vertex -850.081322600561 -7.71919107896535 -86.9759894015215
endloop
endfacet
facet normal -0.86602540378435 0.0 -0.500000000000154
outer loop
vertex -850.236490099181 -7.71919107896535 -86.6013819219146
vertex -850.081322600561 -10.7191910789654 -86.9759894015215
vertex -850.236490099181 -10.7191910789654 -86.6013819219146
endloop
endfacet
facet normal -1.0 0.0 0.0
outer loop
vertex -850.028397856404 -10.7191910789654 -87.3779927446183
vertex -850.081322600561 -7.71919107896535 -86.9759894015215
vertex -850.028397856404 -7.71919107896535 -87.3779927446183
endloop
endfacet
facet normal -0.965925826289112 0.0 -0.258819045102357
outer loop
vertex -850.081322600561 -7.71919107896535 -86.9759894015215
vertex -850.028397856404 -10.7191910789654 -87.3779927446183
vertex -850.081322600561 -10.7191910789654 -86.9759894015215
endloop
endfacet
facet normal -0.965925826289112 -0.0 0.258819045102357
outer loop
vertex -850.081322600561 -10.7191910789654 -87.7799960877152
vertex -850.028397856404 -7.71919107896535 -87.3779927446183
vertex -850.081322600561 -7.71919107896535 -87.7799960877152
endloop
endfacet
facet normal -1.0 0.0 0.0
outer loop
vertex -850.028397856404 -7.71919107896535 -87.3779927446183
vertex -850.081322600561 -10.7191910789654 -87.7799960877152
vertex -850.028397856404 -10.7191910789654 -87.3779927446183
endloop
endfacet
facet normal -0.86602540378435 -0.0 0.500000000000154
outer loop
vertex -850.236490099181 -10.7191910789654 -88.1546035673221
vertex -850.081322600561 -7.71919107896535 -87.7799960877152
vertex -850.236490099181 -7.71919107896535 -88.1546035673221
endloop
endfacet
facet normal -0.965925826289112 -0.0 0.258819045102357
outer loop
vertex -850.081322600561 -7.71919107896535 -87.7799960877152
vertex -850.236490099181 -10.7191910789654 -88.1546035673221
vertex -850.081322600561 -10.7191910789654 -87.7799960877152
endloop
endfacet
facet normal 0.258819045102486 0.0 0.965925826289078
outer loop
vertex -851.983622844908 -10.7191910789654 -88.8782896458684
vertex -852.358230324515 -7.71919107896535 -88.7231221472489
vertex -852.358230324515 -10.7191910789654 -88.7231221472489
endloop
endfacet
facet normal 0.500000000000015 0.0 0.86602540378443
outer loop
vertex -852.358230324515 -7.71919107896535 -88.7231221472489
vertex -851.983622844908 -10.7191910789654 -88.8782896458684
vertex -851.983622844908 -7.71919107896535 -88.8782896458684
endloop
endfacet
facet normal 0.0 0.0 1.0
outer loop
vertex -851.581619501811 -10.7191910789654 -88.9312143900256
vertex -851.983622844908 -7.71919107896535 -88.8782896458684
vertex -851.983622844908 -10.7191910789654 -88.8782896458684
endloop
endfacet
facet normal 0.258819045102486 0.0 0.965925826289078
outer loop
vertex -851.983622844908 -7.71919107896535 -88.8782896458684
vertex -851.581619501811 -10.7191910789654 -88.9312143900256
vertex -851.581619501811 -7.71919107896535 -88.9312143900256
endloop
endfacet
facet normal -0.258819045102486 -0.0 0.965925826289078
outer loop
vertex -851.179616158714 -10.7191910789654 -88.8782896458684
vertex -851.581619501811 -7.71919107896535 -88.9312143900256
vertex -851.581619501811 -10.7191910789654 -88.9312143900256
endloop
endfacet
facet normal 0.0 0.0 1.0
outer loop
vertex -851.581619501811 -7.71919107896535 -88.9312143900256
vertex -851.179616158714 -10.7191910789654 -88.8782896458684
vertex -851.179616158714 -7.71919107896535 -88.8782896458684
endloop
endfacet
facet normal -0.500000000000015 -0.0 0.86602540378443
outer loop
vertex -850.805008679108 -10.7191910789654 -88.7231221472489
vertex -851.179616158714 -7.71919107896535 -88.8782896458684
vertex -851.179616158714 -10.7191910789654 -88.8782896458684
endloop
endfacet
facet normal -0.258819045102486 -0.0 0.965925826289078
outer loop
vertex -851.179616158714 -7.71919107896535 -88.8782896458684
vertex -850.805008679108 -10.7191910789654 -88.7231221472489
vertex -850.805008679108 -7.71919107896535 -88.7231221472489
endloop
endfacet
facet normal -0.707106781186536 -0.0 0.707106781186559
outer loop
vertex -850.483325943658 -10.7191910789654 -88.4762863027714
vertex -850.805008679108 -7.71919107896535 -88.7231221472489
vertex -850.805008679108 -10.7191910789654 -88.7231221472489
endloop
endfacet
facet normal -0.500000000000015 -0.0 0.86602540378443
outer loop
vertex -850.805008679108 -7.71919107896535 -88.7231221472489
vertex -850.483325943658 -10.7191910789654 -88.4762863027714
vertex -850.483325943658 -7.71919107896535 -88.4762863027714
endloop
endfacet
facet normal -0.707106781186536 -0.0 0.707106781186559
outer loop
vertex -850.483325943658 -10.7191910789654 -88.4762863027714
vertex -850.236490099181 -7.71919107896535 -88.1546035673221
vertex -850.483325943658 -7.71919107896535 -88.4762863027714
endloop
endfacet
facet normal -0.86602540378435 -0.0 0.500000000000154
outer loop
vertex -850.236490099181 -7.71919107896535 -88.1546035673221
vertex -850.483325943658 -10.7191910789654 -88.4762863027714
vertex -850.236490099181 -10.7191910789654 -88.1546035673221
endloop
endfacet
facet normal 0.0 -1.0 0.0
outer loop
vertex -890.940789549295 -14.2191910789654 -89.9386529163982
vertex -858.940789549295 -14.2191910789654 -84.9386529163982
vertex -890.940789549295 -14.2191910789654 -84.9386529163982
endloop
endfacet
facet normal 0.0 -1.0 0.0
outer loop
vertex -858.940789549295 -14.2191910789654 -84.9386529163982
vertex -890.940789549295 -14.2191910789654 -89.9386529163982
vertex -858.940789549295 -14.2191910789654 -89.9386529163982
endloop
endfacet
facet normal 0.0 1.0 0.0
outer loop
vertex -858.940789549295 -9.21919107896535 -89.9386529163982
vertex -890.940789549295 -9.21919107896535 -84.9386529163982
vertex -858.940789549295 -9.21919107896535 -84.9386529163982
endloop
endfacet
facet normal 0.0 1.0 0.0
outer loop
vertex -890.940789549295 -9.21919107896535 -84.9386529163982
vertex -858.940789549295 -9.21919107896535 -89.9386529163982
vertex -890.940789549295 -9.21919107896535 -89.9386529163982
endloop
endfacet
facet normal -1.0 0.0 0.0
outer loop
vertex -890.940789549295 -14.2191910789654 -89.9386529163982
vertex -890.940789549295 -9.21919107896535 -84.9386529163982
vertex -890.940789549295 -9.21919107896535 -89.9386529163982
endloop
endfacet
facet normal -1.0 0.0 0.0
outer loop
vertex -890.940789549295 -9.21919107896535 -84.9386529163982
vertex -890.940789549295 -14.2191910789654 -89.9386529163982
vertex -890.940789549295 -14.2191910789654 -84.9386529163982
endloop
endfacet
facet normal 0.0 0.0 1.0
outer loop
vertex -858.940789549295 -14.2191910789654 -84.9386529163982
vertex -890.940789549295 -9.21919107896535 -84.9386529163982
vertex -890.940789549295 -14.2191910789654 -84.9386529163982
endloop
endfacet
facet normal 0.0 0.0 1.0
outer loop
vertex -890.940789549295 -9.21919107896535 -84.9386529163982
vertex -858.940789549295 -14.2191910789654 -84.9386529163982
vertex -858.940789549295 -9.21919107896535 -84.9386529163982
endloop
endfacet
facet normal 0.0 0.0 -1.0
outer loop
vertex -858.940789549295 -9.21919107896535 -89.9386529163982
vertex -890.940789549295 -14.2191910789654 -89.9386529163982
vertex -890.940789549295 -9.21919107896535 -89.9386529163982
endloop
endfacet
facet normal 0.0 0.0 -1.0
outer loop
vertex -890.940789549295 -14.2191910789654 -89.9386529163982
vertex -858.940789549295 -9.21919107896535 -89.9386529163982
vertex -858.940789549295 -14.2191910789654 -89.9386529163982
endloop
endfacet
facet normal 1.0 0.0 0.0
outer loop
vertex -858.940789549295 -14.2191910789654 -84.9386529163982
vertex -858.940789549295 -9.21919107896535 -89.9386529163982
vertex -858.940789549295 -9.21919107896535 -84.9386529163982
endloop
endfacet
facet normal 1.0 0.0 0.0
outer loop
vertex -858.940789549295 -9.21919107896535 -89.9386529163982
vertex -858.940789549295 -14.2191910789654 -84.9386529163982
vertex -858.940789549295 -14.2191910789654 -89.9386529163982
endloop
endfacet
endsolid carbon mini cub fuselage
