solid carbon mini cub fuselage
facet normal -6.44135595529799e-015 1.0 2.5182415539975e-015
outer loop
vertex -1744.07237285799 658.929641041364 -1000.36373602387
vertex -1786.57129594395 658.929641041364 -1032.41526081524
vertex -1745.78513225816 658.929641041364 -993.95290996456
endloop
endfacet
facet normal -6.44135595529799e-015 1.0 2.5182415539975e-015
outer loop
vertex -1786.57129594395 658.929641041364 -1032.41526081524
vertex -1744.07237285799 658.929641041364 -1000.36373602387
vertex -1782.96178004498 658.929641041364 -1037.03739906127
endloop
endfacet
facet normal -6.44135595529799e-015 1.0 2.5182415539975e-015
outer loop
vertex -1731.78560977387 658.929641041364 -1001.37250666066
vertex -1745.78513225816 658.929641041364 -993.95290996456
vertex -1730.29661763495 658.929641041364 -985.665938212728
endloop
endfacet
facet normal -6.44135595529799e-015 1.0 2.5182415539975e-015
outer loop
vertex -1745.78513225816 658.929641041364 -993.95290996456
vertex -1731.78560977387 658.929641041364 -1001.37250666066
vertex -1744.07237285799 658.929641041364 -1000.36373602387
endloop
endfacet
facet normal -6.44135595529799e-015 1.0 2.5182415539975e-015
outer loop
vertex -1744.07237285799 658.929641041364 -1000.36373602387
vertex -1731.78560977387 658.929641041364 -1001.37250666066
vertex -1739.99912675588 658.929641041364 -1001.74165699099
endloop
endfacet
facet normal -6.44135595529799e-015 1.0 2.5182415539975e-015
outer loop
vertex -1739.99912675588 658.929641041364 -1001.74165699099
vertex -1731.78560977387 658.929641041364 -1001.37250666066
vertex -1733.93471152789 658.929641041364 -1017.0024379353
endloop
endfacet
facet normal -6.44135595529799e-015 1.0 2.5182415539975e-015
outer loop
vertex -1739.99912675588 658.929641041364 -1001.74165699099
vertex -1733.93471152789 658.929641041364 -1017.0024379353
vertex -1760.410003181 658.929641041364 -1062.07786263957
endloop
endfacet
facet normal -6.44135595529799e-015 1.0 2.5182415539975e-015
outer loop
vertex -1760.410003181 658.929641041364 -1062.07786263957
vertex -1733.93471152789 658.929641041364 -1017.0024379353
vertex -1736.74010999672 658.929641041364 -1032.52800167483
endloop
endfacet
facet normal -6.44135595529799e-015 1.0 2.5182415539975e-015
outer loop
vertex -1760.410003181 658.929641041364 -1062.07786263957
vertex -1736.74010999672 658.929641041364 -1032.52800167483
vertex -1740.19682788947 658.929641041364 -1047.92165268456
endloop
endfacet
facet normal -6.44135595529799e-015 1.0 2.5182415539975e-015
outer loop
vertex -1760.410003181 658.929641041364 -1062.07786263957
vertex -1740.19682788947 658.929641041364 -1047.92165268456
vertex -1744.29873235525 658.929641041364 -1063.15607980712
endloop
endfacet
facet normal -6.44135595529799e-015 1.0 2.5182415539975e-015
outer loop
vertex -1786.57129594395 658.929641041364 -1032.41526081524
vertex -1816.79353156226 658.929641041364 -1005.63368177205
vertex -1816.60727918744 658.929641041364 -993.95290996456
endloop
endfacet
facet normal -6.44135595529799e-015 1.0 2.5182415539975e-015
outer loop
vertex -1816.79353156226 658.929641041364 -1005.63368177205
vertex -1786.57129594395 658.929641041364 -1032.41526081524
vertex -1770.76445158772 658.929641041364 -1064.57587151034
endloop
endfacet
facet normal -6.44135595529799e-015 1.0 2.5182415539975e-015
outer loop
vertex -1770.76445158772 658.929641041364 -1064.57587151034
vertex -1786.57129594395 658.929641041364 -1032.41526081524
vertex -1782.96178004498 658.929641041364 -1037.03739906127
endloop
endfacet
facet normal -6.44135595529799e-015 1.0 2.5182415539975e-015
outer loop
vertex -1770.76445158772 658.929641041364 -1064.57587151034
vertex -1782.96178004498 658.929641041364 -1037.03739906127
vertex -1764.48324928311 658.929641041364 -1060.69994167246
endloop
endfacet
facet normal -6.44135595529799e-015 1.0 2.5182415539975e-015
outer loop
vertex -1770.76445158772 658.929641041364 -1064.57587151034
vertex -1764.48324928311 658.929641041364 -1060.69994167246
vertex -1760.410003181 658.929641041364 -1062.07786263957
endloop
endfacet
facet normal -6.44135595529799e-015 1.0 2.5182415539975e-015
outer loop
vertex -1770.76445158772 658.929641041364 -1064.57587151034
vertex -1760.410003181 658.929641041364 -1062.07786263957
vertex -1744.29873235525 658.929641041364 -1063.15607980712
endloop
endfacet
facet normal -6.44135595529799e-015 1.0 2.5182415539975e-015
outer loop
vertex -1770.76445158772 658.929641041364 -1064.57587151034
vertex -1744.29873235525 658.929641041364 -1063.15607980712
vertex -1749.03854586399 658.929641041364 -1078.20425437753
endloop
endfacet
facet normal -6.44135595529799e-015 1.0 2.5182415539975e-015
outer loop
vertex -1770.76445158772 658.929641041364 -1064.57587151034
vertex -1749.03854586399 658.929641041364 -1078.20425437753
vertex -1771.42351782702 658.929641041364 -1074.39093821273
endloop
endfacet
facet normal -6.44135595529799e-015 1.0 2.5182415539975e-015
outer loop
vertex -1771.42351782702 658.929641041364 -1074.39093821273
vertex -1749.03854586399 658.929641041364 -1078.20425437753
vertex -1772.00695426868 658.929641041364 -1082.94062363995
endloop
endfacet
facet normal -6.44135595529799e-015 1.0 2.5182415539975e-015
outer loop
vertex -1771.42351782702 658.929641041364 -1074.39093821273
vertex -1772.00695426868 658.929641041364 -1082.94062363995
vertex -1795.45377144746 658.929641041364 -1097.38752007711
endloop
endfacet
facet normal -6.44135595529799e-015 1.0 2.5182415539975e-015
outer loop
vertex -1795.45377144746 658.929641041364 -1097.38752007711
vertex -1772.00695426868 658.929641041364 -1082.94062363995
vertex -1803.86710133897 658.929641041364 -1113.43029269987
endloop
endfacet
facet normal -6.44135595529799e-015 1.0 2.5182415539975e-015
outer loop
vertex -1795.45377144746 658.929641041364 -1097.38752007711
vertex -1803.86710133897 658.929641041364 -1113.43029269987
vertex -1808.94450143579 658.929641041364 -1097.38752007711
endloop
endfacet
facet normal -6.44135595529799e-015 1.0 2.5182415539975e-015
outer loop
vertex -1749.03854586399 658.929641041364 -1078.20425437753
vertex -1766.60753501705 658.929641041364 -1084.76717003822
vertex -1772.00695426868 658.929641041364 -1082.94062363995
endloop
endfacet
facet normal -6.44135595529799e-015 1.0 2.5182415539975e-015
outer loop
vertex -1766.60753501705 658.929641041364 -1084.76717003822
vertex -1749.03854586399 658.929641041364 -1078.20425437753
vertex -1754.40785911807 658.929641041364 -1093.03947817695
endloop
endfacet
facet normal -6.44135595529799e-015 1.0 2.5182415539975e-015
outer loop
vertex -1766.60753501705 658.929641041364 -1084.76717003822
vertex -1754.40785911807 658.929641041364 -1093.03947817695
vertex -1788.05329678401 658.929641041364 -1148.16258066691
endloop
endfacet
facet normal -6.44135595529799e-015 1.0 2.5182415539975e-015
outer loop
vertex -1788.05329678401 658.929641041364 -1148.16258066691
vertex -1754.40785911807 658.929641041364 -1093.03947817695
vertex -1760.39714597202 658.929641041364 -1107.63543080021
endloop
endfacet
facet normal -6.44135595529799e-015 1.0 2.5182415539975e-015
outer loop
vertex -1788.05329678401 658.929641041364 -1148.16258066691
vertex -1760.39714597202 658.929641041364 -1107.63543080021
vertex -1766.99578033358 658.929641041364 -1121.96621635305
endloop
endfacet
facet normal -6.44135595529799e-015 1.0 2.5182415539975e-015
outer loop
vertex -1788.05329678401 658.929641041364 -1148.16258066691
vertex -1766.99578033358 658.929641041364 -1121.96621635305
vertex -1774.19205501637 658.929641041364 -1136.0064093962
endloop
endfacet
facet normal -6.44135595529799e-015 1.0 2.5182415539975e-015
outer loop
vertex -1788.05329678401 658.929641041364 -1148.16258066691
vertex -1774.19205501637 658.929641041364 -1136.0064093962
vertex -1781.97320251061 658.929641041364 -1149.73110005472
endloop
endfacet
facet normal -6.44135595529799e-015 1.0 2.5182415539975e-015
outer loop
vertex -1808.94450143579 658.929641041364 -1097.38752007711
vertex -1816.79353156226 658.929641041364 -1090.71670553128
vertex -1816.22272258436 658.929641041364 -1074.39093821273
endloop
endfacet
facet normal -6.44135595529799e-015 1.0 2.5182415539975e-015
outer loop
vertex -1816.79353156226 658.929641041364 -1090.71670553128
vertex -1808.94450143579 658.929641041364 -1097.38752007711
vertex -1796.50255022719 658.929641041364 -1154.82896646089
endloop
endfacet
facet normal -6.44135595529799e-015 1.0 2.5182415539975e-015
outer loop
vertex -1796.50255022719 658.929641041364 -1154.82896646089
vertex -1808.94450143579 658.929641041364 -1097.38752007711
vertex -1803.86710133897 658.929641041364 -1113.43029269987
endloop
endfacet
facet normal -6.44135595529799e-015 1.0 2.5182415539975e-015
outer loop
vertex -1796.50255022719 658.929641041364 -1154.82896646089
vertex -1803.86710133897 658.929641041364 -1113.43029269987
vertex -1793.45271603565 658.929641041364 -1146.33603426864
endloop
endfacet
facet normal -6.44135595529799e-015 1.0 2.5182415539975e-015
outer loop
vertex -1796.50255022719 658.929641041364 -1154.82896646089
vertex -1793.45271603565 658.929641041364 -1146.33603426864
vertex -1788.05329678401 658.929641041364 -1148.16258066691
endloop
endfacet
facet normal -6.44135595529799e-015 1.0 2.5182415539975e-015
outer loop
vertex -1796.50255022719 658.929641041364 -1154.82896646089
vertex -1788.05329678401 658.929641041364 -1148.16258066691
vertex -1781.97320251061 658.929641041364 -1149.73110005472
endloop
endfacet
facet normal -6.44135595529799e-015 1.0 2.5182415539975e-015
outer loop
vertex -1796.50255022719 658.929641041364 -1154.82896646089
vertex -1781.97320251061 658.929641041364 -1149.73110005472
vertex -1790.32541763495 658.929641041364 -1163.11593821273
endloop
endfacet
facet normal -6.44135595529799e-015 1.0 2.5182415539975e-015
outer loop
vertex -1796.50255022719 658.929641041364 -1154.82896646089
vertex -1790.32541763495 658.929641041364 -1163.11593821273
vertex -1816.79353156226 658.929641041364 -1154.82896646089
endloop
endfacet
facet normal -6.44135595529799e-015 1.0 2.5182415539975e-015
outer loop
vertex -1730.29661763495 658.929641041364 -985.665938212728
vertex -1763.27534108375 658.929641041364 -958.456938212728
vertex -1730.29661763495 658.929641041364 -958.456938212728
endloop
endfacet
facet normal -6.44135595529799e-015 1.0 2.5182415539975e-015
outer loop
vertex -1763.27534108375 658.929641041364 -958.456938212728
vertex -1730.29661763495 658.929641041364 -985.665938212728
vertex -1763.27534108375 658.929641041364 -982.46655771168
endloop
endfacet
facet normal -6.44135595529799e-015 1.0 2.5182415539975e-015
outer loop
vertex -1763.27534108375 658.929641041364 -982.46655771168
vertex -1730.29661763495 658.929641041364 -985.665938212728
vertex -1824.95741763495 658.929641041364 -982.46655771168
endloop
endfacet
facet normal -6.44135595529799e-015 1.0 2.5182415539975e-015
outer loop
vertex -1824.95741763495 658.929641041364 -982.46655771168
vertex -1730.29661763495 658.929641041364 -985.665938212728
vertex -1816.60727918744 658.929641041364 -993.95290996456
endloop
endfacet
facet normal -6.44135595529799e-015 1.0 2.5182415539975e-015
outer loop
vertex -1824.95741763495 658.929641041364 -982.46655771168
vertex -1816.60727918744 658.929641041364 -993.95290996456
vertex -1824.95741763495 658.929641041364 -1163.11593821273
endloop
endfacet
facet normal -6.44135595529799e-015 1.0 2.5182415539975e-015
outer loop
vertex -1816.60727918744 658.929641041364 -993.95290996456
vertex -1730.29661763495 658.929641041364 -985.665938212728
vertex -1745.78513225816 658.929641041364 -993.95290996456
endloop
endfacet
facet normal -6.44135595529799e-015 1.0 2.5182415539975e-015
outer loop
vertex -1824.95741763495 658.929641041364 -1163.11593821273
vertex -1816.60727918744 658.929641041364 -993.95290996456
vertex -1816.79353156226 658.929641041364 -1005.63368177205
endloop
endfacet
facet normal -6.44135595529799e-015 1.0 2.5182415539975e-015
outer loop
vertex -1824.95741763495 658.929641041364 -1163.11593821273
vertex -1816.79353156226 658.929641041364 -1005.63368177205
vertex -1816.79353156226 658.929641041364 -1064.57587151034
endloop
endfacet
facet normal -6.44135595529799e-015 1.0 2.5182415539975e-015
outer loop
vertex -1824.95741763495 658.929641041364 -1163.11593821273
vertex -1816.79353156226 658.929641041364 -1064.57587151034
vertex -1816.22272258436 658.929641041364 -1074.39093821273
endloop
endfacet
facet normal -6.44135595529799e-015 1.0 2.5182415539975e-015
outer loop
vertex -1816.22272258436 658.929641041364 -1074.39093821273
vertex -1816.79353156226 658.929641041364 -1064.57587151034
vertex -1770.76445158772 658.929641041364 -1064.57587151034
endloop
endfacet
facet normal -6.44135595529799e-015 1.0 2.5182415539975e-015
outer loop
vertex -1816.22272258436 658.929641041364 -1074.39093821273
vertex -1770.76445158772 658.929641041364 -1064.57587151034
vertex -1771.42351782702 658.929641041364 -1074.39093821273
endloop
endfacet
facet normal -6.44135595529799e-015 1.0 2.5182415539975e-015
outer loop
vertex -1824.95741763495 658.929641041364 -1163.11593821273
vertex -1816.22272258436 658.929641041364 -1074.39093821273
vertex -1816.79353156226 658.929641041364 -1090.71670553128
endloop
endfacet
facet normal -6.44135595529799e-015 1.0 2.5182415539975e-015
outer loop
vertex -1824.95741763495 658.929641041364 -1163.11593821273
vertex -1816.79353156226 658.929641041364 -1090.71670553128
vertex -1816.79353156226 658.929641041364 -1154.82896646089
endloop
endfacet
facet normal -6.44135595529799e-015 1.0 2.5182415539975e-015
outer loop
vertex -1824.95741763495 658.929641041364 -1163.11593821273
vertex -1816.79353156226 658.929641041364 -1154.82896646089
vertex -1790.32541763495 658.929641041364 -1163.11593821273
endloop
endfacet
facet normal 0.995536486245161 -1.55383976103621e-017 -0.0943774578733591
outer loop
vertex -1730.29661763495 658.929641041364 -985.665938212728
vertex -1731.78560977387 656.029641041364 -1001.37250666066
vertex -1731.78560977387 658.929641041364 -1001.37250666066
endloop
endfacet
facet normal 0.993328039723929 -7.77092237633535e-018 -0.11532304842579
outer loop
vertex -1731.78560977387 656.029641041364 -1001.37250666066
vertex -1730.29661763495 658.929641041364 -985.665938212728
vertex -1730.29661763495 656.029641041364 -985.665938212728
endloop
endfacet
facet normal 0.859338322900256 8.71880878545089e-018 -0.511407515387657
outer loop
vertex -1781.97320251061 656.029641041364 -1149.73110005472
vertex -1790.32541763495 658.929641041364 -1163.11593821273
vertex -1781.97320251061 658.929641041364 -1149.73110005472
endloop
endfacet
facet normal 0.84837721192605 1.74337499509219e-017 -0.529392204593705
outer loop
vertex -1790.32541763495 658.929641041364 -1163.11593821273
vertex -1781.97320251061 656.029641041364 -1149.73110005472
vertex -1790.32541763495 656.029641041364 -1163.11593821273
endloop
endfacet
facet normal 0.880112257103176 0.0 -0.474765642076966
outer loop
vertex -1774.19205501637 656.029641041364 -1136.0064093962
vertex -1781.97320251061 658.929641041364 -1149.73110005472
vertex -1774.19205501637 658.929641041364 -1136.0064093962
endloop
endfacet
facet normal 0.859338322900256 8.71880878545079e-018 -0.511407515387656
outer loop
vertex -1781.97320251061 658.929641041364 -1149.73110005472
vertex -1774.19205501637 656.029641041364 -1136.0064093962
vertex -1781.97320251061 656.029641041364 -1149.73110005472
endloop
endfacet
facet normal 0.899324710906082 0.0 -0.437281447529727
outer loop
vertex -1766.99578033358 656.029641041364 -1121.96621635305
vertex -1774.19205501637 658.929641041364 -1136.0064093962
vertex -1766.99578033358 658.929641041364 -1121.96621635305
endloop
endfacet
facet normal 0.880112257103176 0.0 -0.474765642076966
outer loop
vertex -1774.19205501637 658.929641041364 -1136.0064093962
vertex -1766.99578033358 656.029641041364 -1121.96621635305
vertex -1774.19205501637 656.029641041364 -1136.0064093962
endloop
endfacet
facet normal 0.916941597895784 0.0 -0.399021435574992
outer loop
vertex -1760.39714597202 656.029641041364 -1107.63543080021
vertex -1766.99578033358 658.929641041364 -1121.96621635305
vertex -1760.39714597202 658.929641041364 -1107.63543080021
endloop
endfacet
facet normal 0.899324710906082 0.0 -0.437281447529727
outer loop
vertex -1766.99578033358 658.929641041364 -1121.96621635305
vertex -1760.39714597202 656.029641041364 -1107.63543080021
vertex -1766.99578033358 656.029641041364 -1121.96621635305
endloop
endfacet
facet normal 2.60626590410068e-031 -1.0 -2.35938827366705e-031
outer loop
vertex -1824.95741763495 656.029641041364 -982.46655771168
vertex -1816.60727918744 656.029641041364 -993.95290996456
vertex -1763.27534108375 656.029641041364 -982.46655771168
endloop
endfacet
facet normal 2.60626590410068e-031 -1.0 -2.35938827366705e-031
outer loop
vertex -1816.60727918744 656.029641041364 -993.95290996456
vertex -1824.95741763495 656.029641041364 -982.46655771168
vertex -1824.95741763495 656.029641041364 -1163.11593821273
endloop
endfacet
facet normal 2.60626590410068e-031 -1.0 -2.35938827366705e-031
outer loop
vertex -1763.27534108375 656.029641041364 -982.46655771168
vertex -1816.60727918744 656.029641041364 -993.95290996456
vertex -1730.29661763495 656.029641041364 -985.665938212728
endloop
endfacet
facet normal 2.60626590410068e-031 -1.0 -2.35938827366705e-031
outer loop
vertex -1816.60727918744 656.029641041364 -993.95290996456
vertex -1824.95741763495 656.029641041364 -1163.11593821273
vertex -1816.79353156226 656.029641041364 -1005.63368177205
endloop
endfacet
facet normal 2.60626590410068e-031 -1.0 -2.35938827366705e-031
outer loop
vertex -1816.79353156226 656.029641041364 -1005.63368177205
vertex -1824.95741763495 656.029641041364 -1163.11593821273
vertex -1816.79353156226 656.029641041364 -1064.57587151034
endloop
endfacet
facet normal 2.60626590410068e-031 -1.0 -2.35938827366705e-031
outer loop
vertex -1816.79353156226 656.029641041364 -1064.57587151034
vertex -1824.95741763495 656.029641041364 -1163.11593821273
vertex -1816.22272258436 656.029641041364 -1074.39093821273
endloop
endfacet
facet normal 2.60626590410068e-031 -1.0 -2.35938827366705e-031
outer loop
vertex -1816.79353156226 656.029641041364 -1064.57587151034
vertex -1816.22272258436 656.029641041364 -1074.39093821273
vertex -1770.76445158772 656.029641041364 -1064.57587151034
endloop
endfacet
facet normal 2.60626590410068e-031 -1.0 -2.35938827366705e-031
outer loop
vertex -1816.22272258436 656.029641041364 -1074.39093821273
vertex -1824.95741763495 656.029641041364 -1163.11593821273
vertex -1816.79353156226 656.029641041364 -1090.71670553128
endloop
endfacet
facet normal 2.60626590410068e-031 -1.0 -2.35938827366705e-031
outer loop
vertex -1816.79353156226 656.029641041364 -1090.71670553128
vertex -1824.95741763495 656.029641041364 -1163.11593821273
vertex -1816.79353156226 656.029641041364 -1154.82896646089
endloop
endfacet
facet normal 2.60626590410068e-031 -1.0 -2.35938827366705e-031
outer loop
vertex -1816.79353156226 656.029641041364 -1154.82896646089
vertex -1824.95741763495 656.029641041364 -1163.11593821273
vertex -1796.50255022719 656.029641041364 -1154.82896646089
endloop
endfacet
facet normal 2.60626590410068e-031 -1.0 -2.35938827366705e-031
outer loop
vertex -1816.79353156226 656.029641041364 -1090.71670553128
vertex -1808.94450143579 656.029641041364 -1097.38752007711
vertex -1816.22272258436 656.029641041364 -1074.39093821273
endloop
endfacet
facet normal 2.60626590410068e-031 -1.0 -2.35938827366705e-031
outer loop
vertex -1808.94450143579 656.029641041364 -1097.38752007711
vertex -1816.79353156226 656.029641041364 -1090.71670553128
vertex -1796.50255022719 656.029641041364 -1154.82896646089
endloop
endfacet
facet normal 2.60626590410068e-031 -1.0 -2.35938827366705e-031
outer loop
vertex -1808.94450143579 656.029641041364 -1097.38752007711
vertex -1796.50255022719 656.029641041364 -1154.82896646089
vertex -1803.86710133897 656.029641041364 -1113.43029269987
endloop
endfacet
facet normal 2.60626590410068e-031 -1.0 -2.35938827366705e-031
outer loop
vertex -1808.94450143579 656.029641041364 -1097.38752007711
vertex -1803.86710133897 656.029641041364 -1113.43029269987
vertex -1795.45377144746 656.029641041364 -1097.38752007711
endloop
endfacet
facet normal 2.60626590410068e-031 -1.0 -2.35938827366705e-031
outer loop
vertex -1803.86710133897 656.029641041364 -1113.43029269987
vertex -1796.50255022719 656.029641041364 -1154.82896646089
vertex -1793.45271603565 656.029641041364 -1146.33603426864
endloop
endfacet
facet normal 2.60626590410068e-031 -1.0 -2.35938827366705e-031
outer loop
vertex -1793.45271603565 656.029641041364 -1146.33603426864
vertex -1796.50255022719 656.029641041364 -1154.82896646089
vertex -1788.05329678401 656.029641041364 -1148.16258066691
endloop
endfacet
facet normal 2.60626590410068e-031 -1.0 -2.35938827366705e-031
outer loop
vertex -1788.05329678401 656.029641041364 -1148.16258066691
vertex -1796.50255022719 656.029641041364 -1154.82896646089
vertex -1781.97320251061 656.029641041364 -1149.73110005472
endloop
endfacet
facet normal 2.60626590410068e-031 -1.0 -2.35938827366705e-031
outer loop
vertex -1781.97320251061 656.029641041364 -1149.73110005472
vertex -1796.50255022719 656.029641041364 -1154.82896646089
vertex -1790.32541763495 656.029641041364 -1163.11593821273
endloop
endfacet
facet normal 2.60626590410068e-031 -1.0 -2.35938827366705e-031
outer loop
vertex -1790.32541763495 656.029641041364 -1163.11593821273
vertex -1796.50255022719 656.029641041364 -1154.82896646089
vertex -1824.95741763495 656.029641041364 -1163.11593821273
endloop
endfacet
facet normal 2.60626590410068e-031 -1.0 -2.35938827366705e-031
outer loop
vertex -1749.03854586399 656.029641041364 -1078.20425437753
vertex -1766.60753501705 656.029641041364 -1084.76717003822
vertex -1754.40785911807 656.029641041364 -1093.03947817695
endloop
endfacet
facet normal 2.60626590410068e-031 -1.0 -2.35938827366705e-031
outer loop
vertex -1766.60753501705 656.029641041364 -1084.76717003822
vertex -1749.03854586399 656.029641041364 -1078.20425437753
vertex -1772.00695426868 656.029641041364 -1082.94062363995
endloop
endfacet
facet normal 2.60626590410068e-031 -1.0 -2.35938827366705e-031
outer loop
vertex -1754.40785911807 656.029641041364 -1093.03947817695
vertex -1766.60753501705 656.029641041364 -1084.76717003822
vertex -1788.05329678401 656.029641041364 -1148.16258066691
endloop
endfacet
facet normal 2.60626590410068e-031 -1.0 -2.35938827366705e-031
outer loop
vertex -1754.40785911807 656.029641041364 -1093.03947817695
vertex -1788.05329678401 656.029641041364 -1148.16258066691
vertex -1760.39714597202 656.029641041364 -1107.63543080021
endloop
endfacet
facet normal 2.60626590410068e-031 -1.0 -2.35938827366705e-031
outer loop
vertex -1760.39714597202 656.029641041364 -1107.63543080021
vertex -1788.05329678401 656.029641041364 -1148.16258066691
vertex -1766.99578033358 656.029641041364 -1121.96621635305
endloop
endfacet
facet normal 2.60626590410068e-031 -1.0 -2.35938827366705e-031
outer loop
vertex -1766.99578033358 656.029641041364 -1121.96621635305
vertex -1788.05329678401 656.029641041364 -1148.16258066691
vertex -1774.19205501637 656.029641041364 -1136.0064093962
endloop
endfacet
facet normal 2.60626590410068e-031 -1.0 -2.35938827366705e-031
outer loop
vertex -1774.19205501637 656.029641041364 -1136.0064093962
vertex -1788.05329678401 656.029641041364 -1148.16258066691
vertex -1781.97320251061 656.029641041364 -1149.73110005472
endloop
endfacet
facet normal 2.60626590410068e-031 -1.0 -2.35938827366705e-031
outer loop
vertex -1816.79353156226 656.029641041364 -1005.63368177205
vertex -1786.57129594395 656.029641041364 -1032.41526081524
vertex -1816.60727918744 656.029641041364 -993.95290996456
endloop
endfacet
facet normal 2.60626590410068e-031 -1.0 -2.35938827366705e-031
outer loop
vertex -1786.57129594395 656.029641041364 -1032.41526081524
vertex -1816.79353156226 656.029641041364 -1005.63368177205
vertex -1770.76445158772 656.029641041364 -1064.57587151034
endloop
endfacet
facet normal 2.60626590410068e-031 -1.0 -2.35938827366705e-031
outer loop
vertex -1786.57129594395 656.029641041364 -1032.41526081524
vertex -1770.76445158772 656.029641041364 -1064.57587151034
vertex -1782.96178004498 656.029641041364 -1037.03739906127
endloop
endfacet
facet normal 2.60626590410068e-031 -1.0 -2.35938827366705e-031
outer loop
vertex -1782.96178004498 656.029641041364 -1037.03739906127
vertex -1770.76445158772 656.029641041364 -1064.57587151034
vertex -1764.48324928311 656.029641041364 -1060.69994167246
endloop
endfacet
facet normal 2.60626590410068e-031 -1.0 -2.35938827366705e-031
outer loop
vertex -1764.48324928311 656.029641041364 -1060.69994167246
vertex -1770.76445158772 656.029641041364 -1064.57587151034
vertex -1760.410003181 656.029641041364 -1062.07786263957
endloop
endfacet
facet normal 2.60626590410068e-031 -1.0 -2.35938827366705e-031
outer loop
vertex -1760.410003181 656.029641041364 -1062.07786263957
vertex -1770.76445158772 656.029641041364 -1064.57587151034
vertex -1744.29873235525 656.029641041364 -1063.15607980712
endloop
endfacet
facet normal 2.60626590410068e-031 -1.0 -2.35938827366705e-031
outer loop
vertex -1744.29873235525 656.029641041364 -1063.15607980712
vertex -1770.76445158772 656.029641041364 -1064.57587151034
vertex -1749.03854586399 656.029641041364 -1078.20425437753
endloop
endfacet
facet normal 2.60626590410068e-031 -1.0 -2.35938827366705e-031
outer loop
vertex -1749.03854586399 656.029641041364 -1078.20425437753
vertex -1770.76445158772 656.029641041364 -1064.57587151034
vertex -1771.42351782702 656.029641041364 -1074.39093821273
endloop
endfacet
facet normal 2.60626590410068e-031 -1.0 -2.35938827366705e-031
outer loop
vertex -1771.42351782702 656.029641041364 -1074.39093821273
vertex -1770.76445158772 656.029641041364 -1064.57587151034
vertex -1816.22272258436 656.029641041364 -1074.39093821273
endloop
endfacet
facet normal 2.60626590410068e-031 -1.0 -2.35938827366705e-031
outer loop
vertex -1749.03854586399 656.029641041364 -1078.20425437753
vertex -1771.42351782702 656.029641041364 -1074.39093821273
vertex -1772.00695426868 656.029641041364 -1082.94062363995
endloop
endfacet
facet normal 2.60626590410068e-031 -1.0 -2.35938827366705e-031
outer loop
vertex -1772.00695426868 656.029641041364 -1082.94062363995
vertex -1771.42351782702 656.029641041364 -1074.39093821273
vertex -1795.45377144746 656.029641041364 -1097.38752007711
endloop
endfacet
facet normal 2.60626590410068e-031 -1.0 -2.35938827366705e-031
outer loop
vertex -1772.00695426868 656.029641041364 -1082.94062363995
vertex -1795.45377144746 656.029641041364 -1097.38752007711
vertex -1803.86710133897 656.029641041364 -1113.43029269987
endloop
endfacet
facet normal 2.60626590410068e-031 -1.0 -2.35938827366705e-031
outer loop
vertex -1730.29661763495 656.029641041364 -985.665938212728
vertex -1745.78513225816 656.029641041364 -993.95290996456
vertex -1731.78560977387 656.029641041364 -1001.37250666066
endloop
endfacet
facet normal 2.60626590410068e-031 -1.0 -2.35938827366705e-031
outer loop
vertex -1745.78513225816 656.029641041364 -993.95290996456
vertex -1730.29661763495 656.029641041364 -985.665938212728
vertex -1816.60727918744 656.029641041364 -993.95290996456
endloop
endfacet
facet normal 2.60626590410068e-031 -1.0 -2.35938827366705e-031
outer loop
vertex -1731.78560977387 656.029641041364 -1001.37250666066
vertex -1745.78513225816 656.029641041364 -993.95290996456
vertex -1744.07237285799 656.029641041364 -1000.36373602387
endloop
endfacet
facet normal 2.60626590410068e-031 -1.0 -2.35938827366705e-031
outer loop
vertex -1731.78560977387 656.029641041364 -1001.37250666066
vertex -1744.07237285799 656.029641041364 -1000.36373602387
vertex -1739.99912675588 656.029641041364 -1001.74165699099
endloop
endfacet
facet normal 2.60626590410068e-031 -1.0 -2.35938827366705e-031
outer loop
vertex -1731.78560977387 656.029641041364 -1001.37250666066
vertex -1739.99912675588 656.029641041364 -1001.74165699099
vertex -1733.93471152789 656.029641041364 -1017.0024379353
endloop
endfacet
facet normal 2.60626590410068e-031 -1.0 -2.35938827366705e-031
outer loop
vertex -1733.93471152789 656.029641041364 -1017.0024379353
vertex -1739.99912675588 656.029641041364 -1001.74165699099
vertex -1760.410003181 656.029641041364 -1062.07786263957
endloop
endfacet
facet normal 2.60626590410068e-031 -1.0 -2.35938827366705e-031
outer loop
vertex -1733.93471152789 656.029641041364 -1017.0024379353
vertex -1760.410003181 656.029641041364 -1062.07786263957
vertex -1736.74010999672 656.029641041364 -1032.52800167483
endloop
endfacet
facet normal 2.60626590410068e-031 -1.0 -2.35938827366705e-031
outer loop
vertex -1736.74010999672 656.029641041364 -1032.52800167483
vertex -1760.410003181 656.029641041364 -1062.07786263957
vertex -1740.19682788947 656.029641041364 -1047.92165268456
endloop
endfacet
facet normal 2.60626590410068e-031 -1.0 -2.35938827366705e-031
outer loop
vertex -1740.19682788947 656.029641041364 -1047.92165268456
vertex -1760.410003181 656.029641041364 -1062.07786263957
vertex -1744.29873235525 656.029641041364 -1063.15607980712
endloop
endfacet
facet normal 2.60626590410068e-031 -1.0 -2.35938827366705e-031
outer loop
vertex -1786.57129594395 656.029641041364 -1032.41526081524
vertex -1744.07237285799 656.029641041364 -1000.36373602387
vertex -1745.78513225816 656.029641041364 -993.95290996456
endloop
endfacet
facet normal 2.60626590410068e-031 -1.0 -2.35938827366705e-031
outer loop
vertex -1744.07237285799 656.029641041364 -1000.36373602387
vertex -1786.57129594395 656.029641041364 -1032.41526081524
vertex -1782.96178004498 656.029641041364 -1037.03739906127
endloop
endfacet
facet normal 2.60626590410068e-031 -1.0 -2.35938827366705e-031
outer loop
vertex -1763.27534108375 656.029641041364 -982.46655771168
vertex -1730.29661763495 656.029641041364 -958.456938212728
vertex -1763.27534108375 656.029641041364 -958.456938212728
endloop
endfacet
facet normal 2.60626590410068e-031 -1.0 -2.35938827366705e-031
outer loop
vertex -1730.29661763495 656.029641041364 -958.456938212728
vertex -1763.27534108375 656.029641041364 -982.46655771168
vertex -1730.29661763495 656.029641041364 -985.665938212728
endloop
endfacet
facet normal 0.788150893423144 0.0 0.615482062448858
outer loop
vertex -1816.60727918744 656.029641041364 -993.95290996456
vertex -1786.57129594395 658.929641041364 -1032.41526081524
vertex -1816.60727918744 658.929641041364 -993.95290996456
endloop
endfacet
facet normal 0.788150893423144 0.0 0.615482062448858
outer loop
vertex -1786.57129594395 658.929641041364 -1032.41526081524
vertex -1816.60727918744 656.029641041364 -993.95290996456
vertex -1786.57129594395 656.029641041364 -1032.41526081524
endloop
endfacet
facet normal 1.0 0.0 3.0619468954986e-015
outer loop
vertex -1816.79353156226 656.029641041364 -1005.63368177205
vertex -1816.79353156226 658.929641041364 -1064.57587151034
vertex -1816.79353156226 658.929641041364 -1005.63368177205
endloop
endfacet
facet normal 1.0 0.0 3.0619468954986e-015
outer loop
vertex -1816.79353156226 658.929641041364 -1064.57587151034
vertex -1816.79353156226 656.029641041364 -1005.63368177205
vertex -1816.79353156226 656.029641041364 -1064.57587151034
endloop
endfacet
facet normal 9.93961561651098e-015 0.0 1.0
outer loop
vertex -1770.76445158772 656.029641041364 -1064.57587151034
vertex -1816.79353156226 658.929641041364 -1064.57587151034
vertex -1816.79353156226 656.029641041364 -1064.57587151034
endloop
endfacet
facet normal 9.93961561651098e-015 0.0 1.0
outer loop
vertex -1816.79353156226 658.929641041364 -1064.57587151034
vertex -1770.76445158772 656.029641041364 -1064.57587151034
vertex -1770.76445158772 658.929641041364 -1064.57587151034
endloop
endfacet
facet normal -0.770394321124664 0.637567714034257 -3.69519836518398e-020
outer loop
vertex -1826.15741763495 657.479641041364 -1163.11593821273
vertex -1824.95741763495 658.929641041364 -982.46655771168
vertex -1824.95741763495 658.929641041364 -1163.11593821273
endloop
endfacet
facet normal -0.770394321124664 0.637567714034257 -3.69519836518398e-020
outer loop
vertex -1824.95741763495 658.929641041364 -982.46655771168
vertex -1826.15741763495 657.479641041364 -1163.11593821273
vertex -1826.15741763495 657.479641041364 -982.46655771168
endloop
endfacet
facet normal -1.26754855489449e-015 4.03193518408444e-028 1.0
outer loop
vertex -1824.95741763495 656.029641041364 -982.46655771168
vertex -1824.95741763495 658.929641041364 -982.46655771168
vertex -1826.15741763495 657.479641041364 -982.46655771168
endloop
endfacet
facet normal -1.26754855489449e-015 4.03193518408444e-028 1.0
outer loop
vertex -1824.95741763495 658.929641041364 -982.46655771168
vertex -1824.95741763495 656.029641041364 -982.46655771168
vertex -1763.27534108375 656.029641041364 -982.46655771168
endloop
endfacet
facet normal -1.26754855489449e-015 4.03193518408444e-028 1.0
outer loop
vertex -1824.95741763495 658.929641041364 -982.46655771168
vertex -1763.27534108375 656.029641041364 -982.46655771168
vertex -1763.27534108375 658.929641041364 -982.46655771168
endloop
endfacet
facet normal -0.770394321124673 -0.637567714034246 -3.695198365203e-020
outer loop
vertex -1824.95741763495 656.029641041364 -1163.11593821273
vertex -1826.15741763495 657.479641041364 -982.46655771168
vertex -1826.15741763495 657.479641041364 -1163.11593821273
endloop
endfacet
facet normal -0.770394321124673 -0.637567714034246 -3.695198365203e-020
outer loop
vertex -1826.15741763495 657.479641041364 -982.46655771168
vertex -1824.95741763495 656.029641041364 -1163.11593821273
vertex -1824.95741763495 656.029641041364 -982.46655771168
endloop
endfacet
facet normal -0.78815089342314 0.0 -0.615482062448863
outer loop
vertex -1770.76445158772 656.029641041364 -1064.57587151034
vertex -1816.79353156226 658.929641041364 -1005.63368177205
vertex -1770.76445158772 658.929641041364 -1064.57587151034
endloop
endfacet
facet normal -0.78815089342314 0.0 -0.615482062448863
outer loop
vertex -1816.79353156226 658.929641041364 -1005.63368177205
vertex -1770.76445158772 656.029641041364 -1064.57587151034
vertex -1816.79353156226 656.029641041364 -1005.63368177205
endloop
endfacet
facet normal 0.0 0.0 1.0
outer loop
vertex -1730.29661763495 656.029641041364 -958.456938212728
vertex -1763.27534108375 658.929641041364 -958.456938212728
vertex -1763.27534108375 656.029641041364 -958.456938212728
endloop
endfacet
facet normal 0.0 0.0 1.0
outer loop
vertex -1763.27534108375 658.929641041364 -958.456938212728
vertex -1730.29661763495 656.029641041364 -958.456938212728
vertex -1730.29661763495 658.929641041364 -958.456938212728
endloop
endfacet
facet normal 1.0 0.0 0.0
outer loop
vertex -1730.29661763495 656.029641041364 -958.456938212728
vertex -1730.29661763495 658.929641041364 -985.665938212728
vertex -1730.29661763495 658.929641041364 -958.456938212728
endloop
endfacet
facet normal 1.0 0.0 0.0
outer loop
vertex -1730.29661763495 658.929641041364 -985.665938212728
vertex -1730.29661763495 656.029641041364 -958.456938212728
vertex -1730.29661763495 656.029641041364 -985.665938212728
endloop
endfacet
facet normal 0.0 0.0 -1.0
outer loop
vertex -1824.95741763495 658.929641041364 -1163.11593821273
vertex -1824.95741763495 656.029641041364 -1163.11593821273
vertex -1826.15741763495 657.479641041364 -1163.11593821273
endloop
endfacet
facet normal 0.0 0.0 -1.0
outer loop
vertex -1824.95741763495 656.029641041364 -1163.11593821273
vertex -1824.95741763495 658.929641041364 -1163.11593821273
vertex -1790.32541763495 658.929641041364 -1163.11593821273
endloop
endfacet
facet normal 0.0 0.0 -1.0
outer loop
vertex -1824.95741763495 656.029641041364 -1163.11593821273
vertex -1790.32541763495 658.929641041364 -1163.11593821273
vertex -1790.32541763495 656.029641041364 -1163.11593821273
endloop
endfacet
facet normal -1.0 0.0 0.0
outer loop
vertex -1763.27534108375 656.029641041364 -982.46655771168
vertex -1763.27534108375 658.929641041364 -958.456938212728
vertex -1763.27534108375 658.929641041364 -982.46655771168
endloop
endfacet
facet normal -1.0 0.0 0.0
outer loop
vertex -1763.27534108375 658.929641041364 -958.456938212728
vertex -1763.27534108375 656.029641041364 -982.46655771168
vertex -1763.27534108375 656.029641041364 -958.456938212728
endloop
endfacet
facet normal 1.0 0.0 0.0
outer loop
vertex -1816.79353156226 656.029641041364 -1090.71670553128
vertex -1816.79353156226 658.929641041364 -1154.82896646089
vertex -1816.79353156226 658.929641041364 -1090.71670553128
endloop
endfacet
facet normal 1.0 0.0 0.0
outer loop
vertex -1816.79353156226 658.929641041364 -1154.82896646089
vertex -1816.79353156226 656.029641041364 -1090.71670553128
vertex -1816.79353156226 656.029641041364 -1154.82896646089
endloop
endfacet
facet normal 0.0 0.0 1.0
outer loop
vertex -1796.50255022719 656.029641041364 -1154.82896646089
vertex -1816.79353156226 658.929641041364 -1154.82896646089
vertex -1816.79353156226 656.029641041364 -1154.82896646089
endloop
endfacet
facet normal 0.0 0.0 1.0
outer loop
vertex -1816.79353156226 658.929641041364 -1154.82896646089
vertex -1796.50255022719 656.029641041364 -1154.82896646089
vertex -1796.50255022719 658.929641041364 -1154.82896646089
endloop
endfacet
facet normal -0.953390295894143 0.0 -0.301739860964504
outer loop
vertex -1796.50255022719 656.029641041364 -1154.82896646089
vertex -1816.79353156226 658.929641041364 -1090.71670553128
vertex -1796.50255022719 658.929641041364 -1154.82896646089
endloop
endfacet
facet normal -0.953390295894143 0.0 -0.301739860964504
outer loop
vertex -1816.79353156226 658.929641041364 -1090.71670553128
vertex -1796.50255022719 656.029641041364 -1154.82896646089
vertex -1816.79353156226 656.029641041364 -1090.71670553128
endloop
endfacet
facet normal 0.953390295894146 0.0 0.301739860964496
outer loop
vertex -1816.22272258436 656.029641041364 -1074.39093821273
vertex -1808.94450143579 658.929641041364 -1097.38752007711
vertex -1816.22272258436 658.929641041364 -1074.39093821273
endloop
endfacet
facet normal 0.953390295894146 0.0 0.301739860964496
outer loop
vertex -1808.94450143579 658.929641041364 -1097.38752007711
vertex -1816.22272258436 656.029641041364 -1074.39093821273
vertex -1808.94450143579 656.029641041364 -1097.38752007711
endloop
endfacet
facet normal 3.40416282392167e-015 0.0 -1.0
outer loop
vertex -1771.42351782702 658.929641041364 -1074.39093821273
vertex -1816.22272258436 656.029641041364 -1074.39093821273
vertex -1816.22272258436 658.929641041364 -1074.39093821273
endloop
endfacet
facet normal 3.40416282392167e-015 0.0 -1.0
outer loop
vertex -1816.22272258436 656.029641041364 -1074.39093821273
vertex -1771.42351782702 658.929641041364 -1074.39093821273
vertex -1771.42351782702 656.029641041364 -1074.39093821273
endloop
endfacet
facet normal 0.0 0.0 -1.0
outer loop
vertex -1745.78513225816 658.929641041364 -993.95290996456
vertex -1816.60727918744 656.029641041364 -993.95290996456
vertex -1816.60727918744 658.929641041364 -993.95290996456
endloop
endfacet
facet normal 0.0 0.0 -1.0
outer loop
vertex -1816.60727918744 656.029641041364 -993.95290996456
vertex -1745.78513225816 658.929641041364 -993.95290996456
vertex -1745.78513225816 656.029641041364 -993.95290996456
endloop
endfacet
facet normal -0.686077315317468 -0.0 0.727528636829352
outer loop
vertex -1745.78513225816 656.029641041364 -993.95290996456
vertex -1786.57129594395 658.929641041364 -1032.41526081524
vertex -1786.57129594395 656.029641041364 -1032.41526081524
endloop
endfacet
facet normal -0.686077315317468 -0.0 0.727528636829352
outer loop
vertex -1786.57129594395 658.929641041364 -1032.41526081524
vertex -1745.78513225816 656.029641041364 -993.95290996456
vertex -1745.78513225816 658.929641041364 -993.95290996456
endloop
endfacet
facet normal 0.691397243691735 0.0 -0.722474810229029
outer loop
vertex -1772.00695426868 658.929641041364 -1082.94062363995
vertex -1803.86710133897 656.029641041364 -1113.43029269987
vertex -1803.86710133897 658.929641041364 -1113.43029269987
endloop
endfacet
facet normal 0.691397243691735 0.0 -0.722474810229029
outer loop
vertex -1803.86710133897 656.029641041364 -1113.43029269987
vertex -1772.00695426868 658.929641041364 -1082.94062363995
vertex -1772.00695426868 656.029641041364 -1082.94062363995
endloop
endfacet
facet normal 0.953390295894149 0.0 0.301739860964484
outer loop
vertex -1803.86710133897 656.029641041364 -1113.43029269987
vertex -1793.45271603565 658.929641041364 -1146.33603426864
vertex -1803.86710133897 658.929641041364 -1113.43029269987
endloop
endfacet
facet normal 0.953390295894149 0.0 0.301739860964484
outer loop
vertex -1793.45271603565 658.929641041364 -1146.33603426864
vertex -1803.86710133897 656.029641041364 -1113.43029269987
vertex -1793.45271603565 656.029641041364 -1146.33603426864
endloop
endfacet
facet normal 0.686077315317458 0.0 -0.727528636829362
outer loop
vertex -1744.07237285799 658.929641041364 -1000.36373602387
vertex -1782.96178004498 656.029641041364 -1037.03739906127
vertex -1782.96178004498 658.929641041364 -1037.03739906127
endloop
endfacet
facet normal 0.686077315317458 0.0 -0.727528636829362
outer loop
vertex -1782.96178004498 656.029641041364 -1037.03739906127
vertex -1744.07237285799 658.929641041364 -1000.36373602387
vertex -1744.07237285799 656.029641041364 -1000.36373602387
endloop
endfacet
facet normal 0.788150893423124 0.0 0.615482062448883
outer loop
vertex -1782.96178004498 656.029641041364 -1037.03739906127
vertex -1764.48324928311 658.929641041364 -1060.69994167246
vertex -1782.96178004498 658.929641041364 -1037.03739906127
endloop
endfacet
facet normal 0.788150893423124 0.0 0.615482062448883
outer loop
vertex -1764.48324928311 658.929641041364 -1060.69994167246
vertex -1782.96178004498 656.029641041364 -1037.03739906127
vertex -1764.48324928311 656.029641041364 -1060.69994167246
endloop
endfacet
facet normal -0.691397243691731 -0.0 0.722474810229033
outer loop
vertex -1771.42351782702 656.029641041364 -1074.39093821273
vertex -1795.45377144746 658.929641041364 -1097.38752007711
vertex -1795.45377144746 656.029641041364 -1097.38752007711
endloop
endfacet
facet normal -0.691397243691731 -0.0 0.722474810229033
outer loop
vertex -1795.45377144746 658.929641041364 -1097.38752007711
vertex -1771.42351782702 656.029641041364 -1074.39093821273
vertex -1771.42351782702 658.929641041364 -1074.39093821273
endloop
endfacet
facet normal 0.0 0.0 1.0
outer loop
vertex -1795.45377144746 656.029641041364 -1097.38752007711
vertex -1808.94450143579 658.929641041364 -1097.38752007711
vertex -1808.94450143579 656.029641041364 -1097.38752007711
endloop
endfacet
facet normal 0.0 0.0 1.0
outer loop
vertex -1808.94450143579 658.929641041364 -1097.38752007711
vertex -1795.45377144746 656.029641041364 -1097.38752007711
vertex -1795.45377144746 658.929641041364 -1097.38752007711
endloop
endfacet
facet normal 0.980100625423674 0.0 -0.198501294817245
outer loop
vertex -1736.74010999672 656.029641041364 -1032.52800167483
vertex -1740.19682788947 658.929641041364 -1047.92165268456
vertex -1736.74010999672 658.929641041364 -1032.52800167483
endloop
endfacet
facet normal 0.970871957015157 0.0 -0.239598921286303
outer loop
vertex -1740.19682788947 658.929641041364 -1047.92165268456
vertex -1736.74010999672 656.029641041364 -1032.52800167483
vertex -1740.19682788947 656.029641041364 -1047.92165268456
endloop
endfacet
facet normal 0.987590415746705 0.0 -0.157051490681399
outer loop
vertex -1733.93471152789 656.029641041364 -1017.0024379353
vertex -1736.74010999672 658.929641041364 -1032.52800167483
vertex -1733.93471152789 658.929641041364 -1017.0024379353
endloop
endfacet
facet normal 0.980100625423674 0.0 -0.198501294817245
outer loop
vertex -1736.74010999672 658.929641041364 -1032.52800167483
vertex -1733.93471152789 656.029641041364 -1017.0024379353
vertex -1736.74010999672 656.029641041364 -1032.52800167483
endloop
endfacet
facet normal 0.993328039723929 -7.77092237633535e-018 -0.11532304842579
outer loop
vertex -1731.78560977387 656.029641041364 -1001.37250666066
vertex -1733.93471152789 658.929641041364 -1017.0024379353
vertex -1731.78560977387 658.929641041364 -1001.37250666066
endloop
endfacet
facet normal 0.987590415746705 0.0 -0.157051490681399
outer loop
vertex -1733.93471152789 658.929641041364 -1017.0024379353
vertex -1731.78560977387 656.029641041364 -1001.37250666066
vertex -1733.93471152789 656.029641041364 -1017.0024379353
endloop
endfacet
facet normal 0.932931662486955 0.0 -0.36005348648406
outer loop
vertex -1754.40785911807 656.029641041364 -1093.03947817695
vertex -1760.39714597202 658.929641041364 -1107.63543080021
vertex -1754.40785911807 658.929641041364 -1093.03947817695
endloop
endfacet
facet normal 0.916941597895784 0.0 -0.399021435574992
outer loop
vertex -1760.39714597202 658.929641041364 -1107.63543080021
vertex -1754.40785911807 656.029641041364 -1093.03947817695
vertex -1760.39714597202 656.029641041364 -1107.63543080021
endloop
endfacet
facet normal 0.947266535375288 0.0 -0.32044673653838
outer loop
vertex -1749.03854586399 656.029641041364 -1078.20425437753
vertex -1754.40785911807 658.929641041364 -1093.03947817695
vertex -1749.03854586399 658.929641041364 -1078.20425437753
endloop
endfacet
facet normal 0.932931662486955 0.0 -0.36005348648406
outer loop
vertex -1754.40785911807 658.929641041364 -1093.03947817695
vertex -1749.03854586399 656.029641041364 -1078.20425437753
vertex -1754.40785911807 656.029641041364 -1093.03947817695
endloop
endfacet
facet normal 0.959920783869811 0.0 -0.280271455369196
outer loop
vertex -1744.29873235525 656.029641041364 -1063.15607980712
vertex -1749.03854586399 658.929641041364 -1078.20425437753
vertex -1744.29873235525 658.929641041364 -1063.15607980712
endloop
endfacet
facet normal 0.947266535375288 0.0 -0.32044673653838
outer loop
vertex -1749.03854586399 658.929641041364 -1078.20425437753
vertex -1744.29873235525 656.029641041364 -1063.15607980712
vertex -1749.03854586399 656.029641041364 -1078.20425437753
endloop
endfacet
facet normal 0.970871957015157 0.0 -0.239598921286303
outer loop
vertex -1740.19682788947 656.029641041364 -1047.92165268456
vertex -1744.29873235525 658.929641041364 -1063.15607980712
vertex -1740.19682788947 658.929641041364 -1047.92165268456
endloop
endfacet
facet normal 0.959920783869811 0.0 -0.280271455369196
outer loop
vertex -1744.29873235525 658.929641041364 -1063.15607980712
vertex -1740.19682788947 656.029641041364 -1047.92165268456
vertex -1744.29873235525 656.029641041364 -1063.15607980712
endloop
endfacet
facet normal -0.947266535375287 -0.0 0.320446736538382
outer loop
vertex -1760.410003181 656.029641041364 -1062.07786263957
vertex -1739.99912675588 658.929641041364 -1001.74165699099
vertex -1760.410003181 658.929641041364 -1062.07786263957
endloop
endfacet
facet normal -0.947266535375287 -0.0 0.320446736538382
outer loop
vertex -1739.99912675588 658.929641041364 -1001.74165699099
vertex -1760.410003181 656.029641041364 -1062.07786263957
vertex -1739.99912675588 656.029641041364 -1001.74165699099
endloop
endfacet
facet normal -0.320446736538382 0.0 -0.947266535375288
outer loop
vertex -1739.99912675588 658.929641041364 -1001.74165699099
vertex -1744.07237285799 656.029641041364 -1000.36373602387
vertex -1744.07237285799 658.929641041364 -1000.36373602387
endloop
endfacet
facet normal -0.320446736538382 0.0 -0.947266535375288
outer loop
vertex -1744.07237285799 656.029641041364 -1000.36373602387
vertex -1739.99912675588 658.929641041364 -1001.74165699099
vertex -1739.99912675588 656.029641041364 -1001.74165699099
endloop
endfacet
facet normal 0.320446736538382 0.0 0.947266535375288
outer loop
vertex -1760.410003181 656.029641041364 -1062.07786263957
vertex -1764.48324928311 658.929641041364 -1060.69994167246
vertex -1764.48324928311 656.029641041364 -1060.69994167246
endloop
endfacet
facet normal 0.320446736538382 0.0 0.947266535375288
outer loop
vertex -1764.48324928311 658.929641041364 -1060.69994167246
vertex -1760.410003181 656.029641041364 -1062.07786263957
vertex -1760.410003181 658.929641041364 -1062.07786263957
endloop
endfacet
facet normal -0.947266535375283 -0.0 0.320446736538395
outer loop
vertex -1788.05329678401 656.029641041364 -1148.16258066691
vertex -1766.60753501705 658.929641041364 -1084.76717003822
vertex -1788.05329678401 658.929641041364 -1148.16258066691
endloop
endfacet
facet normal -0.947266535375283 -0.0 0.320446736538395
outer loop
vertex -1766.60753501705 658.929641041364 -1084.76717003822
vertex -1788.05329678401 656.029641041364 -1148.16258066691
vertex -1766.60753501705 656.029641041364 -1084.76717003822
endloop
endfacet
facet normal -0.320446736538395 0.0 -0.947266535375283
outer loop
vertex -1766.60753501705 658.929641041364 -1084.76717003822
vertex -1772.00695426868 656.029641041364 -1082.94062363995
vertex -1772.00695426868 658.929641041364 -1082.94062363995
endloop
endfacet
facet normal -0.320446736538395 0.0 -0.947266535375283
outer loop
vertex -1772.00695426868 656.029641041364 -1082.94062363995
vertex -1766.60753501705 658.929641041364 -1084.76717003822
vertex -1766.60753501705 656.029641041364 -1084.76717003822
endloop
endfacet
facet normal 0.320446736538395 0.0 0.947266535375283
outer loop
vertex -1788.05329678401 656.029641041364 -1148.16258066691
vertex -1793.45271603565 658.929641041364 -1146.33603426864
vertex -1793.45271603565 656.029641041364 -1146.33603426864
endloop
endfacet
facet normal 0.320446736538395 0.0 0.947266535375283
outer loop
vertex -1793.45271603565 658.929641041364 -1146.33603426864
vertex -1788.05329678401 656.029641041364 -1148.16258066691
vertex -1788.05329678401 658.929641041364 -1148.16258066691
endloop
endfacet
endsolid carbon mini cub fuselage
