solid Default
  facet normal 7.505372e-01 -9.740738e-17 6.608282e-01
    outer loop
      vertex -6.331024e-01 7.000000e+00 2.292123e+01
      vertex -4.672546e-01 9.500000e+00 2.277640e+01
      vertex -6.331024e-01 9.500000e+00 2.292123e+01
    endloop
  endfacet
  facet normal 5.539283e-01 -5.077510e-17 8.325644e-01
    outer loop
      vertex -4.672546e-01 9.500000e+00 2.277640e+01
      vertex -6.331024e-01 7.000000e+00 2.292123e+01
      vertex -4.672546e-01 7.000000e+00 2.277640e+01
    endloop
  endfacet
  facet normal -4.440578e-01 1.364361e-16 8.959982e-01
    outer loop
      vertex 3.745728e-01 7.000000e+00 2.272287e+01
      vertex 5.574341e-01 9.500000e+00 2.284558e+01
      vertex 3.745728e-01 9.500000e+00 2.272287e+01
    endloop
  endfacet
  facet normal -6.608282e-01 1.673493e-16 7.505372e-01
    outer loop
      vertex 5.574341e-01 9.500000e+00 2.284558e+01
      vertex 3.745728e-01 7.000000e+00 2.272287e+01
      vertex 5.574341e-01 7.000000e+00 2.284558e+01
    endloop
  endfacet
  facet normal -1.970255e-01 9.622508e-17 9.803984e-01
    outer loop
      vertex 1.661987e-01 7.000000e+00 2.265167e+01
      vertex 3.745728e-01 9.500000e+00 2.272287e+01
      vertex 1.661987e-01 9.500000e+00 2.265167e+01
    endloop
  endfacet
  facet normal -4.440578e-01 1.364361e-16 8.959982e-01
    outer loop
      vertex 3.745728e-01 9.500000e+00 2.272287e+01
      vertex 1.661987e-01 7.000000e+00 2.265167e+01
      vertex 3.745728e-01 7.000000e+00 2.272287e+01
    endloop
  endfacet
  facet normal 9.979861e-01 -1.872113e-16 -6.343377e-02
    outer loop
      vertex -8.418274e-01 9.500000e+00 2.353220e+01
      vertex -8.269958e-01 7.000000e+00 2.331247e+01
      vertex -8.269958e-01 9.500000e+00 2.331247e+01
    endloop
  endfacet
  facet normal 9.803984e-01 -1.680319e-16 1.970255e-01
    outer loop
      vertex -8.269958e-01 7.000000e+00 2.331247e+01
      vertex -8.418274e-01 9.500000e+00 2.353220e+01
      vertex -8.418274e-01 7.000000e+00 2.353220e+01
    endloop
  endfacet
  facet normal 9.475626e-01 -1.936325e-16 -3.195701e-01
    outer loop
      vertex -7.992859e-01 9.500000e+00 2.374823e+01
      vertex -8.418274e-01 7.000000e+00 2.353220e+01
      vertex -8.418274e-01 9.500000e+00 2.353220e+01
    endloop
  endfacet
  facet normal 9.979861e-01 -1.872113e-16 -6.343377e-02
    outer loop
      vertex -8.418274e-01 7.000000e+00 2.353220e+01
      vertex -7.992859e-01 9.500000e+00 2.374823e+01
      vertex -7.992859e-01 7.000000e+00 2.374823e+01
    endloop
  endfacet
  facet normal 8.325644e-01 -1.868579e-16 -5.539283e-01
    outer loop
      vertex -7.022858e-01 9.500000e+00 2.394592e+01
      vertex -7.992859e-01 7.000000e+00 2.374823e+01
      vertex -7.992859e-01 9.500000e+00 2.374823e+01
    endloop
  endfacet
  facet normal 9.475626e-01 -1.936325e-16 -3.195701e-01
    outer loop
      vertex -7.992859e-01 7.000000e+00 2.374823e+01
      vertex -7.022858e-01 9.500000e+00 2.394592e+01
      vertex -7.022858e-01 7.000000e+00 2.394592e+01
    endloop
  endfacet
  facet normal 8.959982e-01 -1.374015e-16 4.440578e-01
    outer loop
      vertex -7.557983e-01 9.500000e+00 2.310410e+01
      vertex -6.331024e-01 7.000000e+00 2.292123e+01
      vertex -6.331024e-01 9.500000e+00 2.292123e+01
    endloop
  endfacet
  facet normal 7.505372e-01 -9.740738e-17 6.608282e-01
    outer loop
      vertex -6.331024e-01 7.000000e+00 2.292123e+01
      vertex -7.557983e-01 9.500000e+00 2.310410e+01
      vertex -7.557983e-01 7.000000e+00 2.310410e+01
    endloop
  endfacet
  facet normal 9.803984e-01 -1.680319e-16 1.970255e-01
    outer loop
      vertex -8.269958e-01 9.500000e+00 2.331247e+01
      vertex -7.557983e-01 7.000000e+00 2.310410e+01
      vertex -7.557983e-01 9.500000e+00 2.310410e+01
    endloop
  endfacet
  facet normal 8.959982e-01 -1.374015e-16 4.440578e-01
    outer loop
      vertex -7.557983e-01 7.000000e+00 2.310410e+01
      vertex -8.269958e-01 9.500000e+00 2.331247e+01
      vertex -8.269958e-01 7.000000e+00 2.331247e+01
    endloop
  endfacet
  facet normal -5.653080e-01 1.543547e-16 8.248799e-01
    outer loop
      vertex 5.165253e-01 -9.500000e+00 2.315948e+01
      vertex 6.803741e-01 -7.000000e+00 2.330661e+01
      vertex 5.165253e-01 -7.000000e+00 2.315948e+01
    endloop
  endfacet
  facet normal -7.595402e-01 1.793545e-16 6.504604e-01
    outer loop
      vertex 6.803741e-01 -7.000000e+00 2.330661e+01
      vertex 5.165253e-01 -9.500000e+00 2.315948e+01
      vertex 6.803741e-01 -9.500000e+00 2.330661e+01
    endloop
  endfacet
  facet normal -3.325509e-01 1.188359e-16 9.430853e-01
    outer loop
      vertex 3.201904e-01 -9.500000e+00 2.305978e+01
      vertex 5.165253e-01 -7.000000e+00 2.315948e+01
      vertex 3.201904e-01 -7.000000e+00 2.305978e+01
    endloop
  endfacet
  facet normal -5.653080e-01 1.543547e-16 8.248799e-01
    outer loop
      vertex 5.165253e-01 -7.000000e+00 2.315948e+01
      vertex 3.201904e-01 -9.500000e+00 2.305978e+01
      vertex 5.165253e-01 -9.500000e+00 2.315948e+01
    endloop
  endfacet
  facet normal 6.608282e-01 -1.673493e-16 -7.505372e-01
    outer loop
      vertex -5.574188e-01 9.500000e+00 2.411179e+01
      vertex -7.022858e-01 7.000000e+00 2.394592e+01
      vertex -7.022858e-01 9.500000e+00 2.394592e+01
    endloop
  endfacet
  facet normal 8.325644e-01 -1.868579e-16 -5.539283e-01
    outer loop
      vertex -7.022858e-01 7.000000e+00 2.394592e+01
      vertex -5.574188e-01 9.500000e+00 2.411179e+01
      vertex -5.574188e-01 7.000000e+00 2.411179e+01
    endloop
  endfacet
  facet normal 1.970255e-01 -9.622508e-17 -9.803984e-01
    outer loop
      vertex -1.661987e-01 7.000000e+00 2.430566e+01
      vertex -3.745728e-01 9.500000e+00 2.423447e+01
      vertex -1.661987e-01 9.500000e+00 2.430566e+01
    endloop
  endfacet
  facet normal 4.440578e-01 -1.364361e-16 -8.959982e-01
    outer loop
      vertex -3.745728e-01 9.500000e+00 2.423447e+01
      vertex -1.661987e-01 7.000000e+00 2.430566e+01
      vertex -3.745728e-01 7.000000e+00 2.423447e+01
    endloop
  endfacet
  facet normal -6.343377e-02 -4.945643e-17 -9.979861e-01
    outer loop
      vertex 5.351257e-02 7.000000e+00 2.432050e+01
      vertex -1.661987e-01 9.500000e+00 2.430566e+01
      vertex 5.351257e-02 9.500000e+00 2.432050e+01
    endloop
  endfacet
  facet normal 1.970255e-01 -9.622508e-17 -9.803984e-01
    outer loop
      vertex -1.661987e-01 9.500000e+00 2.430566e+01
      vertex 5.351257e-02 7.000000e+00 2.432050e+01
      vertex -1.661987e-01 7.000000e+00 2.430566e+01
    endloop
  endfacet
  facet normal -3.195701e-01 6.826021e-19 -9.475626e-01
    outer loop
      vertex 2.695770e-01 7.000000e+00 2.427798e+01
      vertex 5.351257e-02 9.500000e+00 2.432050e+01
      vertex 2.695770e-01 9.500000e+00 2.427798e+01
    endloop
  endfacet
  facet normal -6.343377e-02 -4.945643e-17 -9.979861e-01
    outer loop
      vertex 5.351257e-02 9.500000e+00 2.432050e+01
      vertex 2.695770e-01 7.000000e+00 2.427798e+01
      vertex 5.351257e-02 7.000000e+00 2.432050e+01
    endloop
  endfacet
  facet normal -5.539283e-01 5.077510e-17 -8.325644e-01
    outer loop
      vertex 4.672546e-01 7.000000e+00 2.418097e+01
      vertex 2.695770e-01 9.500000e+00 2.427798e+01
      vertex 4.672546e-01 9.500000e+00 2.418097e+01
    endloop
  endfacet
  facet normal -3.195701e-01 6.826021e-19 -9.475626e-01
    outer loop
      vertex 2.695770e-01 9.500000e+00 2.427798e+01
      vertex 4.672546e-01 7.000000e+00 2.418097e+01
      vertex 2.695770e-01 7.000000e+00 2.427798e+01
    endloop
  endfacet
  facet normal -7.505372e-01 9.740738e-17 -6.608282e-01
    outer loop
      vertex 6.331024e-01 7.000000e+00 2.403610e+01
      vertex 4.672546e-01 9.500000e+00 2.418097e+01
      vertex 6.331024e-01 9.500000e+00 2.403610e+01
    endloop
  endfacet
  facet normal -5.539283e-01 5.077510e-17 -8.325644e-01
    outer loop
      vertex 4.672546e-01 9.500000e+00 2.418097e+01
      vertex 6.331024e-01 7.000000e+00 2.403610e+01
      vertex 4.672546e-01 7.000000e+00 2.418097e+01
    endloop
  endfacet
  facet normal -7.505372e-01 9.740738e-17 -6.608282e-01
    outer loop
      vertex 6.331024e-01 7.000000e+00 2.403610e+01
      vertex 7.557983e-01 9.500000e+00 2.385324e+01
      vertex 7.557983e-01 7.000000e+00 2.385324e+01
    endloop
  endfacet
  facet normal -8.959982e-01 1.374015e-16 -4.440578e-01
    outer loop
      vertex 7.557983e-01 9.500000e+00 2.385324e+01
      vertex 6.331024e-01 7.000000e+00 2.403610e+01
      vertex 6.331024e-01 9.500000e+00 2.403610e+01
    endloop
  endfacet
  facet normal -8.959982e-01 1.374015e-16 -4.440578e-01
    outer loop
      vertex 7.557983e-01 7.000000e+00 2.385324e+01
      vertex 8.269958e-01 9.500000e+00 2.364487e+01
      vertex 8.269958e-01 7.000000e+00 2.364487e+01
    endloop
  endfacet
  facet normal -9.803984e-01 1.680319e-16 -1.970255e-01
    outer loop
      vertex 8.269958e-01 9.500000e+00 2.364487e+01
      vertex 7.557983e-01 7.000000e+00 2.385324e+01
      vertex 7.557983e-01 9.500000e+00 2.385324e+01
    endloop
  endfacet
  facet normal -9.803984e-01 1.680319e-16 -1.970255e-01
    outer loop
      vertex 8.269958e-01 7.000000e+00 2.364487e+01
      vertex 8.418274e-01 9.500000e+00 2.342517e+01
      vertex 8.418274e-01 7.000000e+00 2.342517e+01
    endloop
  endfacet
  facet normal -9.979861e-01 1.872113e-16 6.343377e-02
    outer loop
      vertex 8.418274e-01 9.500000e+00 2.342517e+01
      vertex 8.269958e-01 7.000000e+00 2.364487e+01
      vertex 8.269958e-01 9.500000e+00 2.364487e+01
    endloop
  endfacet
  facet normal -9.979861e-01 1.872113e-16 6.343377e-02
    outer loop
      vertex 8.418274e-01 7.000000e+00 2.342517e+01
      vertex 7.993011e-01 9.500000e+00 2.320911e+01
      vertex 7.993011e-01 7.000000e+00 2.320911e+01
    endloop
  endfacet
  facet normal -9.475626e-01 1.936325e-16 3.195701e-01
    outer loop
      vertex 7.993011e-01 9.500000e+00 2.320911e+01
      vertex 8.418274e-01 7.000000e+00 2.342517e+01
      vertex 8.418274e-01 9.500000e+00 2.342517e+01
    endloop
  endfacet
  facet normal -9.475626e-01 1.936325e-16 3.195701e-01
    outer loop
      vertex 7.993011e-01 7.000000e+00 2.320911e+01
      vertex 7.023010e-01 9.500000e+00 2.301141e+01
      vertex 7.023010e-01 7.000000e+00 2.301141e+01
    endloop
  endfacet
  facet normal -8.325644e-01 1.868579e-16 5.539283e-01
    outer loop
      vertex 7.023010e-01 9.500000e+00 2.301141e+01
      vertex 7.993011e-01 7.000000e+00 2.320911e+01
      vertex 7.993011e-01 9.500000e+00 2.320911e+01
    endloop
  endfacet
  facet normal -8.325644e-01 1.868579e-16 5.539283e-01
    outer loop
      vertex 7.023010e-01 7.000000e+00 2.301141e+01
      vertex 5.574341e-01 9.500000e+00 2.284558e+01
      vertex 5.574341e-01 7.000000e+00 2.284558e+01
    endloop
  endfacet
  facet normal -6.608282e-01 1.673493e-16 7.505372e-01
    outer loop
      vertex 5.574341e-01 9.500000e+00 2.284558e+01
      vertex 7.023010e-01 7.000000e+00 2.301141e+01
      vertex 7.023010e-01 9.500000e+00 2.301141e+01
    endloop
  endfacet
  facet normal -6.504604e-01 7.297921e-17 -7.595402e-01
    outer loop
      vertex 5.883484e-01 -9.500000e+00 2.449600e+01
      vertex 4.038391e-01 -7.000000e+00 2.461618e+01
      vertex 5.883484e-01 -7.000000e+00 2.449600e+01
    endloop
  endfacet
  facet normal -4.317130e-01 2.407214e-17 -9.020110e-01
    outer loop
      vertex 4.038391e-01 -7.000000e+00 2.461618e+01
      vertex 5.883484e-01 -9.500000e+00 2.449600e+01
      vertex 4.038391e-01 -9.500000e+00 2.461618e+01
    endloop
  endfacet
  facet normal -4.317130e-01 2.407214e-17 -9.020110e-01
    outer loop
      vertex 4.038391e-01 -9.500000e+00 2.461618e+01
      vertex 1.945038e-01 -7.000000e+00 2.468448e+01
      vertex 4.038391e-01 -7.000000e+00 2.461618e+01
    endloop
  endfacet
  facet normal -1.835451e-01 -2.647539e-17 -9.830113e-01
    outer loop
      vertex 1.945038e-01 -7.000000e+00 2.468448e+01
      vertex 4.038391e-01 -9.500000e+00 2.461618e+01
      vertex 1.945038e-01 -9.500000e+00 2.468448e+01
    endloop
  endfacet
  facet normal -9.658864e-01 1.871002e-16 2.589661e-01
    outer loop
      vertex -4.241028e+00 -9.500000e+00 2.444455e+01
      vertex -1.050000e+01 -7.000000e+00 1.100006e+00
      vertex -1.050000e+01 -9.500000e+00 1.100006e+00
    endloop
  endfacet
  facet normal -9.658864e-01 1.871002e-16 2.589661e-01
    outer loop
      vertex -1.050000e+01 -7.000000e+00 1.100006e+00
      vertex -4.241028e+00 -9.500000e+00 2.444455e+01
      vertex -1.011684e+01 -7.000000e+00 2.529083e+00
    endloop
  endfacet
  facet normal -9.658864e-01 1.871002e-16 2.589661e-01
    outer loop
      vertex -1.050000e+01 -7.000000e+00 1.100006e+00
      vertex -1.011684e+01 -7.000000e+00 2.529083e+00
      vertex -1.050000e+01 7.000000e+00 1.100006e+00
    endloop
  endfacet
  facet normal -9.658864e-01 1.871002e-16 2.589661e-01
    outer loop
      vertex -1.050000e+01 7.000000e+00 1.100006e+00
      vertex -1.011684e+01 -7.000000e+00 2.529083e+00
      vertex -1.050000e+01 9.500000e+00 1.100006e+00
    endloop
  endfacet
  facet normal -9.658864e-01 1.871002e-16 2.589661e-01
    outer loop
      vertex -1.011684e+01 -7.000000e+00 2.529083e+00
      vertex -4.241028e+00 -9.500000e+00 2.444455e+01
      vertex -4.241028e+00 -7.000000e+00 2.444455e+01
    endloop
  endfacet
  facet normal -9.658864e-01 1.871002e-16 2.589661e-01
    outer loop
      vertex -1.050000e+01 9.500000e+00 1.100006e+00
      vertex -1.011684e+01 7.000000e+00 2.529083e+00
      vertex -4.241028e+00 9.500000e+00 2.444455e+01
    endloop
  endfacet
  facet normal -9.658864e-01 1.871002e-16 2.589661e-01
    outer loop
      vertex -1.011684e+01 7.000000e+00 2.529083e+00
      vertex -1.050000e+01 9.500000e+00 1.100006e+00
      vertex -1.011684e+01 -7.000000e+00 2.529083e+00
    endloop
  endfacet
  facet normal -9.658864e-01 1.871002e-16 2.589661e-01
    outer loop
      vertex -4.241028e+00 9.500000e+00 2.444455e+01
      vertex -1.011684e+01 7.000000e+00 2.529083e+00
      vertex -4.241028e+00 7.000000e+00 2.444455e+01
    endloop
  endfacet
  facet normal 7.713109e-02 -7.521868e-17 -9.970210e-01
    outer loop
      vertex -2.539063e-02 -9.500000e+00 2.469632e+01
      vertex -2.408447e-01 -7.000000e+00 2.465082e+01
      vertex -2.539063e-02 -7.000000e+00 2.469632e+01
    endloop
  endfacet
  facet normal 3.325509e-01 -1.188359e-16 -9.430853e-01
    outer loop
      vertex -2.408447e-01 -7.000000e+00 2.465082e+01
      vertex -2.539063e-02 -9.500000e+00 2.469632e+01
      vertex -2.408447e-01 -9.500000e+00 2.465082e+01
    endloop
  endfacet
  facet normal -1.835451e-01 -2.647539e-17 -9.830113e-01
    outer loop
      vertex 1.945038e-01 -9.500000e+00 2.468448e+01
      vertex -2.539063e-02 -7.000000e+00 2.469632e+01
      vertex 1.945038e-01 -7.000000e+00 2.468448e+01
    endloop
  endfacet
  facet normal 7.713109e-02 -7.521868e-17 -9.970210e-01
    outer loop
      vertex -2.539063e-02 -7.000000e+00 2.469632e+01
      vertex 1.945038e-01 -9.500000e+00 2.468448e+01
      vertex -2.539063e-02 -9.500000e+00 2.469632e+01
    endloop
  endfacet
  facet normal 9.701148e-01 -1.930650e-16 -2.426465e-01
    outer loop
      vertex -1.074646e+00 -9.500000e+00 1.879282e+01
      vertex -4.913513e+00 -9.500000e+00 3.444824e+00
      vertex -1.074646e+00 -7.000000e+00 1.879282e+01
    endloop
  endfacet
  facet normal 9.701126e-01 5.714562e-05 -2.426552e-01
    outer loop
      vertex -1.074646e+00 -7.000000e+00 1.879282e+01
      vertex -4.913513e+00 -9.500000e+00 3.444824e+00
      vertex -4.913651e+00 -7.000000e+00 3.444855e+00
    endloop
  endfacet
  facet normal 9.705678e-01 -1.930369e-16 -2.408279e-01
    outer loop
      vertex -1.087646e+00 7.000000e+00 1.887643e+01
      vertex -4.916534e+00 7.000000e+00 3.445557e+00
      vertex -1.087646e+00 9.500000e+00 1.887643e+01
    endloop
  endfacet
  facet normal 9.705821e-01 -3.771617e-04 -2.407703e-01
    outer loop
      vertex -1.087646e+00 9.500000e+00 1.887643e+01
      vertex -4.916534e+00 7.000000e+00 3.445557e+00
      vertex -4.915619e+00 9.500000e+00 3.445343e+00
    endloop
  endfacet
  facet normal 3.313219e-15 1.000000e+00 1.477762e-14
    outer loop
      vertex -8.140411e-01 -7.000000e+00 2.648206e+01
      vertex -7.895203e-01 -7.000000e+00 2.401013e+01
      vertex -8.013458e-01 -7.000000e+00 2.379022e+01
    endloop
  endfacet
  facet normal 3.313219e-15 1.000000e+00 1.477762e-14
    outer loop
      vertex -7.895203e-01 -7.000000e+00 2.401013e+01
      vertex -8.140411e-01 -7.000000e+00 2.648206e+01
      vertex 0.000000e+00 -7.000000e+00 2.654456e+01
    endloop
  endfacet
  facet normal 3.313219e-15 1.000000e+00 1.477762e-14
    outer loop
      vertex -7.895203e-01 -7.000000e+00 2.401013e+01
      vertex 0.000000e+00 -7.000000e+00 2.654456e+01
      vertex -7.211914e-01 -7.000000e+00 2.421945e+01
    endloop
  endfacet
  facet normal 3.313219e-15 1.000000e+00 1.477762e-14
    outer loop
      vertex -7.211914e-01 -7.000000e+00 2.421945e+01
      vertex 0.000000e+00 -7.000000e+00 2.654456e+01
      vertex -6.010132e-01 -7.000000e+00 2.440399e+01
    endloop
  endfacet
  facet normal 3.313219e-15 1.000000e+00 1.477762e-14
    outer loop
      vertex -6.010132e-01 -7.000000e+00 2.440399e+01
      vertex 0.000000e+00 -7.000000e+00 2.654456e+01
      vertex -4.371796e-01 -7.000000e+00 2.455112e+01
    endloop
  endfacet
  facet normal 3.313219e-15 1.000000e+00 1.477762e-14
    outer loop
      vertex -4.371796e-01 -7.000000e+00 2.455112e+01
      vertex 0.000000e+00 -7.000000e+00 2.654456e+01
      vertex -2.408447e-01 -7.000000e+00 2.465082e+01
    endloop
  endfacet
  facet normal 3.313219e-15 1.000000e+00 1.477762e-14
    outer loop
      vertex -2.408447e-01 -7.000000e+00 2.465082e+01
      vertex 0.000000e+00 -7.000000e+00 2.654456e+01
      vertex -2.539063e-02 -7.000000e+00 2.469632e+01
    endloop
  endfacet
  facet normal 3.313219e-15 1.000000e+00 1.477762e-14
    outer loop
      vertex -2.539063e-02 -7.000000e+00 2.469632e+01
      vertex 0.000000e+00 -7.000000e+00 2.654456e+01
      vertex 1.945038e-01 -7.000000e+00 2.468448e+01
    endloop
  endfacet
  facet normal 3.313219e-15 1.000000e+00 1.477762e-14
    outer loop
      vertex 1.945038e-01 -7.000000e+00 2.468448e+01
      vertex 0.000000e+00 -7.000000e+00 2.654456e+01
      vertex 8.140411e-01 -7.000000e+00 2.648206e+01
    endloop
  endfacet
  facet normal 3.313219e-15 1.000000e+00 1.477762e-14
    outer loop
      vertex 1.945038e-01 -7.000000e+00 2.468448e+01
      vertex 8.140411e-01 -7.000000e+00 2.648206e+01
      vertex 4.038391e-01 -7.000000e+00 2.461618e+01
    endloop
  endfacet
  facet normal 3.313219e-15 1.000000e+00 1.477762e-14
    outer loop
      vertex 4.038391e-01 -7.000000e+00 2.461618e+01
      vertex 8.140411e-01 -7.000000e+00 2.648206e+01
      vertex 5.883484e-01 -7.000000e+00 2.449600e+01
    endloop
  endfacet
  facet normal 3.313219e-15 1.000000e+00 1.477762e-14
    outer loop
      vertex 5.883484e-01 -7.000000e+00 2.449600e+01
      vertex 8.140411e-01 -7.000000e+00 2.648206e+01
      vertex 7.354889e-01 -7.000000e+00 2.433215e+01
    endloop
  endfacet
  facet normal 3.313219e-15 1.000000e+00 1.477762e-14
    outer loop
      vertex 7.354889e-01 -7.000000e+00 2.433215e+01
      vertex 8.140411e-01 -7.000000e+00 2.648206e+01
      vertex 8.351898e-01 -7.000000e+00 2.413580e+01
    endloop
  endfacet
  facet normal 3.313219e-15 1.000000e+00 1.477762e-14
    outer loop
      vertex 8.351898e-01 -7.000000e+00 2.413580e+01
      vertex 8.140411e-01 -7.000000e+00 2.648206e+01
      vertex 1.609009e+00 -7.000000e+00 2.629602e+01
    endloop
  endfacet
  facet normal 3.313219e-15 1.000000e+00 1.477762e-14
    outer loop
      vertex 8.351898e-01 -7.000000e+00 2.413580e+01
      vertex 1.609009e+00 -7.000000e+00 2.629602e+01
      vertex 8.806915e-01 -7.000000e+00 2.392035e+01
    endloop
  endfacet
  facet normal 3.313219e-15 1.000000e+00 1.477762e-14
    outer loop
      vertex 8.806915e-01 -7.000000e+00 2.392035e+01
      vertex 1.609009e+00 -7.000000e+00 2.629602e+01
      vertex 1.087662e+00 -7.000000e+00 1.879282e+01
    endloop
  endfacet
  facet normal 3.313219e-15 1.000000e+00 1.477762e-14
    outer loop
      vertex 1.087662e+00 -7.000000e+00 1.879282e+01
      vertex 1.609009e+00 -7.000000e+00 2.629602e+01
      vertex 4.917862e+00 -7.000000e+00 3.434296e+00
    endloop
  endfacet
  facet normal 3.313219e-15 1.000000e+00 1.477762e-14
    outer loop
      vertex 4.917862e+00 -7.000000e+00 3.434296e+00
      vertex 1.609009e+00 -7.000000e+00 2.629602e+01
      vertex 2.366241e+00 -7.000000e+00 2.599081e+01
    endloop
  endfacet
  facet normal 3.313219e-15 1.000000e+00 1.477762e-14
    outer loop
      vertex 4.917862e+00 -7.000000e+00 3.434296e+00
      vertex 2.366241e+00 -7.000000e+00 2.599081e+01
      vertex 3.068008e+00 -7.000000e+00 2.557358e+01
    endloop
  endfacet
  facet normal 3.313219e-15 1.000000e+00 1.477762e-14
    outer loop
      vertex 4.917862e+00 -7.000000e+00 3.434296e+00
      vertex 3.068008e+00 -7.000000e+00 2.557358e+01
      vertex 3.697861e+00 -7.000000e+00 2.505411e+01
    endloop
  endfacet
  facet normal 3.313219e-15 1.000000e+00 1.477762e-14
    outer loop
      vertex 4.917862e+00 -7.000000e+00 3.434296e+00
      vertex 3.697861e+00 -7.000000e+00 2.505411e+01
      vertex 4.241043e+00 -7.000000e+00 2.444455e+01
    endloop
  endfacet
  facet normal 3.313219e-15 1.000000e+00 1.477762e-14
    outer loop
      vertex 4.917862e+00 -7.000000e+00 3.434296e+00
      vertex 4.241043e+00 -7.000000e+00 2.444455e+01
      vertex 1.011685e+01 -7.000000e+00 2.529083e+00
    endloop
  endfacet
  facet normal 3.313219e-15 1.000000e+00 1.477762e-14
    outer loop
      vertex -4.913651e+00 -7.000000e+00 3.444855e+00
      vertex 1.011685e+01 -7.000000e+00 2.529083e+00
      vertex -1.011684e+01 -7.000000e+00 2.529083e+00
    endloop
  endfacet
  facet normal 3.313219e-15 1.000000e+00 1.477762e-14
    outer loop
      vertex 1.011685e+01 -7.000000e+00 2.529083e+00
      vertex -4.913651e+00 -7.000000e+00 3.444855e+00
      vertex 4.917862e+00 -7.000000e+00 3.434296e+00
    endloop
  endfacet
  facet normal 3.313219e-15 1.000000e+00 1.477762e-14
    outer loop
      vertex -4.241028e+00 -7.000000e+00 2.444455e+01
      vertex -4.913651e+00 -7.000000e+00 3.444855e+00
      vertex -1.011684e+01 -7.000000e+00 2.529083e+00
    endloop
  endfacet
  facet normal 3.313219e-15 1.000000e+00 1.477762e-14
    outer loop
      vertex -4.913651e+00 -7.000000e+00 3.444855e+00
      vertex -4.241028e+00 -7.000000e+00 2.444455e+01
      vertex -1.074646e+00 -7.000000e+00 1.879282e+01
    endloop
  endfacet
  facet normal 3.313219e-15 1.000000e+00 1.477762e-14
    outer loop
      vertex -1.074646e+00 -7.000000e+00 1.879282e+01
      vertex -4.241028e+00 -7.000000e+00 2.444455e+01
      vertex -3.697861e+00 -7.000000e+00 2.505411e+01
    endloop
  endfacet
  facet normal 3.313219e-15 1.000000e+00 1.477762e-14
    outer loop
      vertex -1.074646e+00 -7.000000e+00 1.879282e+01
      vertex -3.697861e+00 -7.000000e+00 2.505411e+01
      vertex -3.068008e+00 -7.000000e+00 2.557358e+01
    endloop
  endfacet
  facet normal 3.313219e-15 1.000000e+00 1.477762e-14
    outer loop
      vertex -1.074646e+00 -7.000000e+00 1.879282e+01
      vertex -3.068008e+00 -7.000000e+00 2.557358e+01
      vertex -2.366241e+00 -7.000000e+00 2.599081e+01
    endloop
  endfacet
  facet normal 3.313219e-15 1.000000e+00 1.477762e-14
    outer loop
      vertex -1.074646e+00 -7.000000e+00 1.879282e+01
      vertex -2.366241e+00 -7.000000e+00 2.599081e+01
      vertex -1.608994e+00 -7.000000e+00 2.629602e+01
    endloop
  endfacet
  facet normal 3.313219e-15 1.000000e+00 1.477762e-14
    outer loop
      vertex -1.074646e+00 -7.000000e+00 1.879282e+01
      vertex -1.608994e+00 -7.000000e+00 2.629602e+01
      vertex -8.140411e-01 -7.000000e+00 2.648206e+01
    endloop
  endfacet
  facet normal 3.313219e-15 1.000000e+00 1.477762e-14
    outer loop
      vertex -1.074646e+00 -7.000000e+00 1.879282e+01
      vertex -8.140411e-01 -7.000000e+00 2.648206e+01
      vertex -8.013458e-01 -7.000000e+00 2.379022e+01
    endloop
  endfacet
  facet normal 3.313219e-15 1.000000e+00 1.477762e-14
    outer loop
      vertex -1.074646e+00 -7.000000e+00 1.879282e+01
      vertex -8.013458e-01 -7.000000e+00 2.379022e+01
      vertex -7.558441e-01 -7.000000e+00 2.357477e+01
    endloop
  endfacet
  facet normal 3.313219e-15 1.000000e+00 1.477762e-14
    outer loop
      vertex -1.074646e+00 -7.000000e+00 1.879282e+01
      vertex -7.558441e-01 -7.000000e+00 2.357477e+01
      vertex 1.087662e+00 -7.000000e+00 1.879282e+01
    endloop
  endfacet
  facet normal 3.313219e-15 1.000000e+00 1.477762e-14
    outer loop
      vertex 1.087662e+00 -7.000000e+00 1.879282e+01
      vertex -7.558441e-01 -7.000000e+00 2.357477e+01
      vertex -6.561432e-01 -7.000000e+00 2.337845e+01
    endloop
  endfacet
  facet normal 3.313219e-15 1.000000e+00 1.477762e-14
    outer loop
      vertex 1.087662e+00 -7.000000e+00 1.879282e+01
      vertex -6.561432e-01 -7.000000e+00 2.337845e+01
      vertex -5.090027e-01 -7.000000e+00 2.321460e+01
    endloop
  endfacet
  facet normal 3.313219e-15 1.000000e+00 1.477762e-14
    outer loop
      vertex 1.087662e+00 -7.000000e+00 1.879282e+01
      vertex -5.090027e-01 -7.000000e+00 2.321460e+01
      vertex -3.244934e-01 -7.000000e+00 2.309442e+01
    endloop
  endfacet
  facet normal 3.313219e-15 1.000000e+00 1.477762e-14
    outer loop
      vertex 1.087662e+00 -7.000000e+00 1.879282e+01
      vertex -3.244934e-01 -7.000000e+00 2.309442e+01
      vertex -1.151581e-01 -7.000000e+00 2.302609e+01
    endloop
  endfacet
  facet normal 3.313219e-15 1.000000e+00 1.477762e-14
    outer loop
      vertex 1.087662e+00 -7.000000e+00 1.879282e+01
      vertex -1.151581e-01 -7.000000e+00 2.302609e+01
      vertex 1.047363e-01 -7.000000e+00 2.301428e+01
    endloop
  endfacet
  facet normal 3.313219e-15 1.000000e+00 1.477762e-14
    outer loop
      vertex 1.087662e+00 -7.000000e+00 1.879282e+01
      vertex 1.047363e-01 -7.000000e+00 2.301428e+01
      vertex 3.201904e-01 -7.000000e+00 2.305978e+01
    endloop
  endfacet
  facet normal 3.313219e-15 1.000000e+00 1.477762e-14
    outer loop
      vertex 1.087662e+00 -7.000000e+00 1.879282e+01
      vertex 3.201904e-01 -7.000000e+00 2.305978e+01
      vertex 5.165253e-01 -7.000000e+00 2.315948e+01
    endloop
  endfacet
  facet normal 3.313219e-15 1.000000e+00 1.477762e-14
    outer loop
      vertex 1.087662e+00 -7.000000e+00 1.879282e+01
      vertex 5.165253e-01 -7.000000e+00 2.315948e+01
      vertex 6.803741e-01 -7.000000e+00 2.330661e+01
    endloop
  endfacet
  facet normal 3.313219e-15 1.000000e+00 1.477762e-14
    outer loop
      vertex 1.087662e+00 -7.000000e+00 1.879282e+01
      vertex 6.803741e-01 -7.000000e+00 2.330661e+01
      vertex 8.005524e-01 -7.000000e+00 2.349112e+01
    endloop
  endfacet
  facet normal 3.313219e-15 1.000000e+00 1.477762e-14
    outer loop
      vertex 1.087662e+00 -7.000000e+00 1.879282e+01
      vertex 8.005524e-01 -7.000000e+00 2.349112e+01
      vertex 8.688660e-01 -7.000000e+00 2.370047e+01
    endloop
  endfacet
  facet normal 3.313219e-15 1.000000e+00 1.477762e-14
    outer loop
      vertex 1.087662e+00 -7.000000e+00 1.879282e+01
      vertex 8.688660e-01 -7.000000e+00 2.370047e+01
      vertex 8.806915e-01 -7.000000e+00 2.392035e+01
    endloop
  endfacet
  facet normal -1.836970e-16 -1.000000e+00 -1.365914e-14
    outer loop
      vertex -4.913513e+00 -9.500000e+00 3.444824e+00
      vertex -4.241028e+00 -9.500000e+00 2.444455e+01
      vertex -1.050000e+01 -9.500000e+00 1.100006e+00
    endloop
  endfacet
  facet normal -1.836970e-16 -1.000000e+00 -1.365914e-14
    outer loop
      vertex -4.241028e+00 -9.500000e+00 2.444455e+01
      vertex -4.913513e+00 -9.500000e+00 3.444824e+00
      vertex -1.074646e+00 -9.500000e+00 1.879282e+01
    endloop
  endfacet
  facet normal -1.836970e-16 -1.000000e+00 -1.365914e-14
    outer loop
      vertex -4.241028e+00 -9.500000e+00 2.444455e+01
      vertex -1.074646e+00 -9.500000e+00 1.879282e+01
      vertex -3.697861e+00 -9.500000e+00 2.505411e+01
    endloop
  endfacet
  facet normal -1.836970e-16 -1.000000e+00 -1.365914e-14
    outer loop
      vertex -3.697861e+00 -9.500000e+00 2.505411e+01
      vertex -1.074646e+00 -9.500000e+00 1.879282e+01
      vertex -3.068008e+00 -9.500000e+00 2.557358e+01
    endloop
  endfacet
  facet normal -1.836970e-16 -1.000000e+00 -1.365914e-14
    outer loop
      vertex -3.068008e+00 -9.500000e+00 2.557358e+01
      vertex -1.074646e+00 -9.500000e+00 1.879282e+01
      vertex -2.366241e+00 -9.500000e+00 2.599081e+01
    endloop
  endfacet
  facet normal -1.836970e-16 -1.000000e+00 -1.365914e-14
    outer loop
      vertex -2.366241e+00 -9.500000e+00 2.599081e+01
      vertex -1.074646e+00 -9.500000e+00 1.879282e+01
      vertex -1.608994e+00 -9.500000e+00 2.629602e+01
    endloop
  endfacet
  facet normal -1.836970e-16 -1.000000e+00 -1.365914e-14
    outer loop
      vertex -1.608994e+00 -9.500000e+00 2.629602e+01
      vertex -1.074646e+00 -9.500000e+00 1.879282e+01
      vertex -8.140411e-01 -9.500000e+00 2.648206e+01
    endloop
  endfacet
  facet normal -1.836970e-16 -1.000000e+00 -1.365914e-14
    outer loop
      vertex -8.140411e-01 -9.500000e+00 2.648206e+01
      vertex -1.074646e+00 -9.500000e+00 1.879282e+01
      vertex -8.013458e-01 -9.500000e+00 2.379022e+01
    endloop
  endfacet
  facet normal -1.836970e-16 -1.000000e+00 -1.365914e-14
    outer loop
      vertex -8.013458e-01 -9.500000e+00 2.379022e+01
      vertex -1.074646e+00 -9.500000e+00 1.879282e+01
      vertex -7.558441e-01 -9.500000e+00 2.357477e+01
    endloop
  endfacet
  facet normal -1.836970e-16 -1.000000e+00 -1.365914e-14
    outer loop
      vertex -7.558441e-01 -9.500000e+00 2.357477e+01
      vertex -1.074646e+00 -9.500000e+00 1.879282e+01
      vertex 1.087662e+00 -9.500000e+00 1.879282e+01
    endloop
  endfacet
  facet normal -1.836970e-16 -1.000000e+00 -1.365914e-14
    outer loop
      vertex -7.558441e-01 -9.500000e+00 2.357477e+01
      vertex 1.087662e+00 -9.500000e+00 1.879282e+01
      vertex -6.561432e-01 -9.500000e+00 2.337845e+01
    endloop
  endfacet
  facet normal -1.836970e-16 -1.000000e+00 -1.365914e-14
    outer loop
      vertex -6.561432e-01 -9.500000e+00 2.337845e+01
      vertex 1.087662e+00 -9.500000e+00 1.879282e+01
      vertex -5.090027e-01 -9.500000e+00 2.321460e+01
    endloop
  endfacet
  facet normal -1.836970e-16 -1.000000e+00 -1.365914e-14
    outer loop
      vertex -5.090027e-01 -9.500000e+00 2.321460e+01
      vertex 1.087662e+00 -9.500000e+00 1.879282e+01
      vertex -3.244934e-01 -9.500000e+00 2.309442e+01
    endloop
  endfacet
  facet normal -1.836970e-16 -1.000000e+00 -1.365914e-14
    outer loop
      vertex -3.244934e-01 -9.500000e+00 2.309442e+01
      vertex 1.087662e+00 -9.500000e+00 1.879282e+01
      vertex -1.151581e-01 -9.500000e+00 2.302609e+01
    endloop
  endfacet
  facet normal -1.836970e-16 -1.000000e+00 -1.365914e-14
    outer loop
      vertex -1.151581e-01 -9.500000e+00 2.302609e+01
      vertex 1.087662e+00 -9.500000e+00 1.879282e+01
      vertex 1.047363e-01 -9.500000e+00 2.301428e+01
    endloop
  endfacet
  facet normal -1.836970e-16 -1.000000e+00 -1.365914e-14
    outer loop
      vertex 1.047363e-01 -9.500000e+00 2.301428e+01
      vertex 1.087662e+00 -9.500000e+00 1.879282e+01
      vertex 3.201904e-01 -9.500000e+00 2.305978e+01
    endloop
  endfacet
  facet normal -1.836970e-16 -1.000000e+00 -1.365914e-14
    outer loop
      vertex 3.201904e-01 -9.500000e+00 2.305978e+01
      vertex 1.087662e+00 -9.500000e+00 1.879282e+01
      vertex 5.165253e-01 -9.500000e+00 2.315948e+01
    endloop
  endfacet
  facet normal -1.836970e-16 -1.000000e+00 -1.365914e-14
    outer loop
      vertex 5.165253e-01 -9.500000e+00 2.315948e+01
      vertex 1.087662e+00 -9.500000e+00 1.879282e+01
      vertex 6.803741e-01 -9.500000e+00 2.330661e+01
    endloop
  endfacet
  facet normal -1.836970e-16 -1.000000e+00 -1.365914e-14
    outer loop
      vertex 6.803741e-01 -9.500000e+00 2.330661e+01
      vertex 1.087662e+00 -9.500000e+00 1.879282e+01
      vertex 8.005524e-01 -9.500000e+00 2.349112e+01
    endloop
  endfacet
  facet normal -1.836970e-16 -1.000000e+00 -1.365914e-14
    outer loop
      vertex 8.005524e-01 -9.500000e+00 2.349112e+01
      vertex 1.087662e+00 -9.500000e+00 1.879282e+01
      vertex 8.688660e-01 -9.500000e+00 2.370047e+01
    endloop
  endfacet
  facet normal -1.836970e-16 -1.000000e+00 -1.365914e-14
    outer loop
      vertex 8.688660e-01 -9.500000e+00 2.370047e+01
      vertex 1.087662e+00 -9.500000e+00 1.879282e+01
      vertex 8.806915e-01 -9.500000e+00 2.392035e+01
    endloop
  endfacet
  facet normal -1.836970e-16 -1.000000e+00 -1.365914e-14
    outer loop
      vertex 1.050000e+01 -9.500000e+00 0.000000e+00
      vertex -1.050000e+01 -9.500000e+00 1.100006e+00
      vertex -1.050000e+01 -9.500000e+00 0.000000e+00
    endloop
  endfacet
  facet normal -1.836970e-16 -1.000000e+00 -1.365914e-14
    outer loop
      vertex -1.050000e+01 -9.500000e+00 1.100006e+00
      vertex 1.050000e+01 -9.500000e+00 0.000000e+00
      vertex -4.913513e+00 -9.500000e+00 3.444824e+00
    endloop
  endfacet
  facet normal -1.836970e-16 -1.000000e+00 -1.365914e-14
    outer loop
      vertex -4.913513e+00 -9.500000e+00 3.444824e+00
      vertex 1.050000e+01 -9.500000e+00 0.000000e+00
      vertex 4.915237e+00 -9.500000e+00 3.444824e+00
    endloop
  endfacet
  facet normal -1.836970e-16 -1.000000e+00 -1.365914e-14
    outer loop
      vertex -8.140411e-01 -9.500000e+00 2.648206e+01
      vertex -7.895203e-01 -9.500000e+00 2.401013e+01
      vertex 0.000000e+00 -9.500000e+00 2.654456e+01
    endloop
  endfacet
  facet normal -1.836970e-16 -1.000000e+00 -1.365914e-14
    outer loop
      vertex -7.895203e-01 -9.500000e+00 2.401013e+01
      vertex -8.140411e-01 -9.500000e+00 2.648206e+01
      vertex -8.013458e-01 -9.500000e+00 2.379022e+01
    endloop
  endfacet
  facet normal -1.836970e-16 -1.000000e+00 -1.365914e-14
    outer loop
      vertex 0.000000e+00 -9.500000e+00 2.654456e+01
      vertex -7.895203e-01 -9.500000e+00 2.401013e+01
      vertex -7.211914e-01 -9.500000e+00 2.421945e+01
    endloop
  endfacet
  facet normal -1.836970e-16 -1.000000e+00 -1.365914e-14
    outer loop
      vertex 0.000000e+00 -9.500000e+00 2.654456e+01
      vertex -7.211914e-01 -9.500000e+00 2.421945e+01
      vertex -6.010132e-01 -9.500000e+00 2.440399e+01
    endloop
  endfacet
  facet normal -1.836970e-16 -1.000000e+00 -1.365914e-14
    outer loop
      vertex 0.000000e+00 -9.500000e+00 2.654456e+01
      vertex -6.010132e-01 -9.500000e+00 2.440399e+01
      vertex -4.371796e-01 -9.500000e+00 2.455112e+01
    endloop
  endfacet
  facet normal -1.836970e-16 -1.000000e+00 -1.365914e-14
    outer loop
      vertex 0.000000e+00 -9.500000e+00 2.654456e+01
      vertex -4.371796e-01 -9.500000e+00 2.455112e+01
      vertex -2.408447e-01 -9.500000e+00 2.465082e+01
    endloop
  endfacet
  facet normal -1.836970e-16 -1.000000e+00 -1.365914e-14
    outer loop
      vertex 0.000000e+00 -9.500000e+00 2.654456e+01
      vertex -2.408447e-01 -9.500000e+00 2.465082e+01
      vertex -2.539063e-02 -9.500000e+00 2.469632e+01
    endloop
  endfacet
  facet normal -1.836970e-16 -1.000000e+00 -1.365914e-14
    outer loop
      vertex 0.000000e+00 -9.500000e+00 2.654456e+01
      vertex -2.539063e-02 -9.500000e+00 2.469632e+01
      vertex 1.945038e-01 -9.500000e+00 2.468448e+01
    endloop
  endfacet
  facet normal -1.836970e-16 -1.000000e+00 -1.365914e-14
    outer loop
      vertex 0.000000e+00 -9.500000e+00 2.654456e+01
      vertex 1.945038e-01 -9.500000e+00 2.468448e+01
      vertex 8.140411e-01 -9.500000e+00 2.648206e+01
    endloop
  endfacet
  facet normal -1.836970e-16 -1.000000e+00 -1.365914e-14
    outer loop
      vertex 8.140411e-01 -9.500000e+00 2.648206e+01
      vertex 1.945038e-01 -9.500000e+00 2.468448e+01
      vertex 4.038391e-01 -9.500000e+00 2.461618e+01
    endloop
  endfacet
  facet normal -1.836970e-16 -1.000000e+00 -1.365914e-14
    outer loop
      vertex 8.140411e-01 -9.500000e+00 2.648206e+01
      vertex 4.038391e-01 -9.500000e+00 2.461618e+01
      vertex 5.883484e-01 -9.500000e+00 2.449600e+01
    endloop
  endfacet
  facet normal -1.836970e-16 -1.000000e+00 -1.365914e-14
    outer loop
      vertex 8.140411e-01 -9.500000e+00 2.648206e+01
      vertex 5.883484e-01 -9.500000e+00 2.449600e+01
      vertex 7.354889e-01 -9.500000e+00 2.433215e+01
    endloop
  endfacet
  facet normal -1.836970e-16 -1.000000e+00 -1.365914e-14
    outer loop
      vertex 8.140411e-01 -9.500000e+00 2.648206e+01
      vertex 7.354889e-01 -9.500000e+00 2.433215e+01
      vertex 8.351898e-01 -9.500000e+00 2.413580e+01
    endloop
  endfacet
  facet normal -1.836970e-16 -1.000000e+00 -1.365914e-14
    outer loop
      vertex 8.140411e-01 -9.500000e+00 2.648206e+01
      vertex 8.351898e-01 -9.500000e+00 2.413580e+01
      vertex 1.609009e+00 -9.500000e+00 2.629602e+01
    endloop
  endfacet
  facet normal -1.836970e-16 -1.000000e+00 -1.365914e-14
    outer loop
      vertex 1.609009e+00 -9.500000e+00 2.629602e+01
      vertex 8.351898e-01 -9.500000e+00 2.413580e+01
      vertex 8.806915e-01 -9.500000e+00 2.392035e+01
    endloop
  endfacet
  facet normal -1.836970e-16 -1.000000e+00 -1.365914e-14
    outer loop
      vertex 1.609009e+00 -9.500000e+00 2.629602e+01
      vertex 8.806915e-01 -9.500000e+00 2.392035e+01
      vertex 1.087662e+00 -9.500000e+00 1.879282e+01
    endloop
  endfacet
  facet normal -1.836970e-16 -1.000000e+00 -1.365914e-14
    outer loop
      vertex 1.609009e+00 -9.500000e+00 2.629602e+01
      vertex 1.087662e+00 -9.500000e+00 1.879282e+01
      vertex 4.915237e+00 -9.500000e+00 3.444824e+00
    endloop
  endfacet
  facet normal -1.836970e-16 -1.000000e+00 -1.365914e-14
    outer loop
      vertex 1.609009e+00 -9.500000e+00 2.629602e+01
      vertex 4.915237e+00 -9.500000e+00 3.444824e+00
      vertex 2.366241e+00 -9.500000e+00 2.599081e+01
    endloop
  endfacet
  facet normal -1.836970e-16 -1.000000e+00 -1.365914e-14
    outer loop
      vertex 2.366241e+00 -9.500000e+00 2.599081e+01
      vertex 4.915237e+00 -9.500000e+00 3.444824e+00
      vertex 3.068008e+00 -9.500000e+00 2.557358e+01
    endloop
  endfacet
  facet normal -1.836970e-16 -1.000000e+00 -1.365914e-14
    outer loop
      vertex 3.068008e+00 -9.500000e+00 2.557358e+01
      vertex 4.915237e+00 -9.500000e+00 3.444824e+00
      vertex 3.697861e+00 -9.500000e+00 2.505411e+01
    endloop
  endfacet
  facet normal -1.836970e-16 -1.000000e+00 -1.365914e-14
    outer loop
      vertex 3.697861e+00 -9.500000e+00 2.505411e+01
      vertex 4.915237e+00 -9.500000e+00 3.444824e+00
      vertex 4.241043e+00 -9.500000e+00 2.444455e+01
    endloop
  endfacet
  facet normal -1.836970e-16 -1.000000e+00 -1.365914e-14
    outer loop
      vertex 4.241043e+00 -9.500000e+00 2.444455e+01
      vertex 4.915237e+00 -9.500000e+00 3.444824e+00
      vertex 1.050000e+01 -9.500000e+00 1.100006e+00
    endloop
  endfacet
  facet normal -1.836970e-16 -1.000000e+00 -1.365914e-14
    outer loop
      vertex 1.050000e+01 -9.500000e+00 1.100006e+00
      vertex 4.915237e+00 -9.500000e+00 3.444824e+00
      vertex 1.050000e+01 -9.500000e+00 0.000000e+00
    endloop
  endfacet
  facet normal -1.701052e-16 1.000000e+00 1.376390e-14
    outer loop
      vertex -4.241028e+00 9.500000e+00 2.444455e+01
      vertex -1.050000e+01 9.500000e+00 0.000000e+00
      vertex -1.050000e+01 9.500000e+00 1.100006e+00
    endloop
  endfacet
  facet normal -1.701052e-16 1.000000e+00 1.376390e-14
    outer loop
      vertex -1.050000e+01 9.500000e+00 0.000000e+00
      vertex -4.241028e+00 9.500000e+00 2.444455e+01
      vertex -4.915619e+00 9.500000e+00 3.445343e+00
    endloop
  endfacet
  facet normal -1.701052e-16 1.000000e+00 1.376390e-14
    outer loop
      vertex -4.915619e+00 9.500000e+00 3.445343e+00
      vertex -4.241028e+00 9.500000e+00 2.444455e+01
      vertex -1.087646e+00 9.500000e+00 1.887643e+01
    endloop
  endfacet
  facet normal -1.701052e-16 1.000000e+00 1.376390e-14
    outer loop
      vertex -1.087646e+00 9.500000e+00 1.887643e+01
      vertex -4.241028e+00 9.500000e+00 2.444455e+01
      vertex -3.697861e+00 9.500000e+00 2.505411e+01
    endloop
  endfacet
  facet normal -1.701052e-16 1.000000e+00 1.376390e-14
    outer loop
      vertex -1.087646e+00 9.500000e+00 1.887643e+01
      vertex -3.697861e+00 9.500000e+00 2.505411e+01
      vertex -3.068008e+00 9.500000e+00 2.557358e+01
    endloop
  endfacet
  facet normal -1.701052e-16 1.000000e+00 1.376390e-14
    outer loop
      vertex -1.087646e+00 9.500000e+00 1.887643e+01
      vertex -3.068008e+00 9.500000e+00 2.557358e+01
      vertex -2.366241e+00 9.500000e+00 2.599081e+01
    endloop
  endfacet
  facet normal -1.701052e-16 1.000000e+00 1.376390e-14
    outer loop
      vertex -1.087646e+00 9.500000e+00 1.887643e+01
      vertex -2.366241e+00 9.500000e+00 2.599081e+01
      vertex -1.608994e+00 9.500000e+00 2.629602e+01
    endloop
  endfacet
  facet normal -1.701052e-16 1.000000e+00 1.376390e-14
    outer loop
      vertex -1.087646e+00 9.500000e+00 1.887643e+01
      vertex -1.608994e+00 9.500000e+00 2.629602e+01
      vertex -8.140411e-01 9.500000e+00 2.648206e+01
    endloop
  endfacet
  facet normal -1.701052e-16 1.000000e+00 1.376390e-14
    outer loop
      vertex -1.087646e+00 9.500000e+00 1.887643e+01
      vertex -8.140411e-01 9.500000e+00 2.648206e+01
      vertex -8.418274e-01 9.500000e+00 2.353220e+01
    endloop
  endfacet
  facet normal -1.701052e-16 1.000000e+00 1.376390e-14
    outer loop
      vertex -8.418274e-01 9.500000e+00 2.353220e+01
      vertex -8.140411e-01 9.500000e+00 2.648206e+01
      vertex -7.992859e-01 9.500000e+00 2.374823e+01
    endloop
  endfacet
  facet normal -1.701052e-16 1.000000e+00 1.376390e-14
    outer loop
      vertex -7.992859e-01 9.500000e+00 2.374823e+01
      vertex -8.140411e-01 9.500000e+00 2.648206e+01
      vertex 0.000000e+00 9.500000e+00 2.654456e+01
    endloop
  endfacet
  facet normal -1.701052e-16 1.000000e+00 1.376390e-14
    outer loop
      vertex -7.992859e-01 9.500000e+00 2.374823e+01
      vertex 0.000000e+00 9.500000e+00 2.654456e+01
      vertex -7.022858e-01 9.500000e+00 2.394592e+01
    endloop
  endfacet
  facet normal -1.701052e-16 1.000000e+00 1.376390e-14
    outer loop
      vertex -7.022858e-01 9.500000e+00 2.394592e+01
      vertex 0.000000e+00 9.500000e+00 2.654456e+01
      vertex -5.574188e-01 9.500000e+00 2.411179e+01
    endloop
  endfacet
  facet normal -1.701052e-16 1.000000e+00 1.376390e-14
    outer loop
      vertex -5.574188e-01 9.500000e+00 2.411179e+01
      vertex 0.000000e+00 9.500000e+00 2.654456e+01
      vertex -3.745728e-01 9.500000e+00 2.423447e+01
    endloop
  endfacet
  facet normal -1.701052e-16 1.000000e+00 1.376390e-14
    outer loop
      vertex -3.745728e-01 9.500000e+00 2.423447e+01
      vertex 0.000000e+00 9.500000e+00 2.654456e+01
      vertex -1.661987e-01 9.500000e+00 2.430566e+01
    endloop
  endfacet
  facet normal -1.701052e-16 1.000000e+00 1.376390e-14
    outer loop
      vertex -1.661987e-01 9.500000e+00 2.430566e+01
      vertex 0.000000e+00 9.500000e+00 2.654456e+01
      vertex 5.351257e-02 9.500000e+00 2.432050e+01
    endloop
  endfacet
  facet normal -1.701052e-16 1.000000e+00 1.376390e-14
    outer loop
      vertex 5.351257e-02 9.500000e+00 2.432050e+01
      vertex 0.000000e+00 9.500000e+00 2.654456e+01
      vertex 8.140411e-01 9.500000e+00 2.648206e+01
    endloop
  endfacet
  facet normal -1.701052e-16 1.000000e+00 1.376390e-14
    outer loop
      vertex 5.351257e-02 9.500000e+00 2.432050e+01
      vertex 8.140411e-01 9.500000e+00 2.648206e+01
      vertex 2.695770e-01 9.500000e+00 2.427798e+01
    endloop
  endfacet
  facet normal -1.701052e-16 1.000000e+00 1.376390e-14
    outer loop
      vertex 2.695770e-01 9.500000e+00 2.427798e+01
      vertex 8.140411e-01 9.500000e+00 2.648206e+01
      vertex 4.672546e-01 9.500000e+00 2.418097e+01
    endloop
  endfacet
  facet normal -1.701052e-16 1.000000e+00 1.376390e-14
    outer loop
      vertex 4.672546e-01 9.500000e+00 2.418097e+01
      vertex 8.140411e-01 9.500000e+00 2.648206e+01
      vertex 6.331024e-01 9.500000e+00 2.403610e+01
    endloop
  endfacet
  facet normal -1.701052e-16 1.000000e+00 1.376390e-14
    outer loop
      vertex 6.331024e-01 9.500000e+00 2.403610e+01
      vertex 8.140411e-01 9.500000e+00 2.648206e+01
      vertex 7.557983e-01 9.500000e+00 2.385324e+01
    endloop
  endfacet
  facet normal -1.701052e-16 1.000000e+00 1.376390e-14
    outer loop
      vertex 7.557983e-01 9.500000e+00 2.385324e+01
      vertex 8.140411e-01 9.500000e+00 2.648206e+01
      vertex 8.269958e-01 9.500000e+00 2.364487e+01
    endloop
  endfacet
  facet normal -1.701052e-16 1.000000e+00 1.376390e-14
    outer loop
      vertex 8.269958e-01 9.500000e+00 2.364487e+01
      vertex 8.140411e-01 9.500000e+00 2.648206e+01
      vertex 1.609009e+00 9.500000e+00 2.629602e+01
    endloop
  endfacet
  facet normal -1.701052e-16 1.000000e+00 1.376390e-14
    outer loop
      vertex 8.269958e-01 9.500000e+00 2.364487e+01
      vertex 1.609009e+00 9.500000e+00 2.629602e+01
      vertex 8.418274e-01 9.500000e+00 2.342517e+01
    endloop
  endfacet
  facet normal -1.701052e-16 1.000000e+00 1.376390e-14
    outer loop
      vertex 8.418274e-01 9.500000e+00 2.342517e+01
      vertex 1.609009e+00 9.500000e+00 2.629602e+01
      vertex 1.087662e+00 9.500000e+00 1.887643e+01
    endloop
  endfacet
  facet normal -1.701052e-16 1.000000e+00 1.376390e-14
    outer loop
      vertex 1.087662e+00 9.500000e+00 1.887643e+01
      vertex 1.609009e+00 9.500000e+00 2.629602e+01
      vertex 4.917862e+00 9.500000e+00 3.445343e+00
    endloop
  endfacet
  facet normal -1.701052e-16 1.000000e+00 1.376390e-14
    outer loop
      vertex 4.917862e+00 9.500000e+00 3.445343e+00
      vertex 1.609009e+00 9.500000e+00 2.629602e+01
      vertex 2.366241e+00 9.500000e+00 2.599081e+01
    endloop
  endfacet
  facet normal -1.701052e-16 1.000000e+00 1.376390e-14
    outer loop
      vertex 4.917862e+00 9.500000e+00 3.445343e+00
      vertex 2.366241e+00 9.500000e+00 2.599081e+01
      vertex 3.068008e+00 9.500000e+00 2.557358e+01
    endloop
  endfacet
  facet normal -1.701052e-16 1.000000e+00 1.376390e-14
    outer loop
      vertex 4.917862e+00 9.500000e+00 3.445343e+00
      vertex 3.068008e+00 9.500000e+00 2.557358e+01
      vertex 3.697861e+00 9.500000e+00 2.505411e+01
    endloop
  endfacet
  facet normal -1.701052e-16 1.000000e+00 1.376390e-14
    outer loop
      vertex 4.917862e+00 9.500000e+00 3.445343e+00
      vertex 3.697861e+00 9.500000e+00 2.505411e+01
      vertex 4.241043e+00 9.500000e+00 2.444455e+01
    endloop
  endfacet
  facet normal -1.701052e-16 1.000000e+00 1.376390e-14
    outer loop
      vertex 4.917862e+00 9.500000e+00 3.445343e+00
      vertex 4.241043e+00 9.500000e+00 2.444455e+01
      vertex 1.050000e+01 9.500000e+00 1.100006e+00
    endloop
  endfacet
  facet normal -1.701052e-16 1.000000e+00 1.376390e-14
    outer loop
      vertex -4.915619e+00 9.500000e+00 3.445343e+00
      vertex 1.050000e+01 9.500000e+00 0.000000e+00
      vertex -1.050000e+01 9.500000e+00 0.000000e+00
    endloop
  endfacet
  facet normal -1.701052e-16 1.000000e+00 1.376390e-14
    outer loop
      vertex 1.050000e+01 9.500000e+00 0.000000e+00
      vertex -4.915619e+00 9.500000e+00 3.445343e+00
      vertex 4.917862e+00 9.500000e+00 3.445343e+00
    endloop
  endfacet
  facet normal -1.701052e-16 1.000000e+00 1.376390e-14
    outer loop
      vertex 1.050000e+01 9.500000e+00 0.000000e+00
      vertex 4.917862e+00 9.500000e+00 3.445343e+00
      vertex 1.050000e+01 9.500000e+00 1.100006e+00
    endloop
  endfacet
  facet normal -1.701052e-16 1.000000e+00 1.376390e-14
    outer loop
      vertex -1.087646e+00 9.500000e+00 1.887643e+01
      vertex -7.557983e-01 9.500000e+00 2.310410e+01
      vertex 1.087662e+00 9.500000e+00 1.887643e+01
    endloop
  endfacet
  facet normal -1.701052e-16 1.000000e+00 1.376390e-14
    outer loop
      vertex -7.557983e-01 9.500000e+00 2.310410e+01
      vertex -1.087646e+00 9.500000e+00 1.887643e+01
      vertex -8.269958e-01 9.500000e+00 2.331247e+01
    endloop
  endfacet
  facet normal -1.701052e-16 1.000000e+00 1.376390e-14
    outer loop
      vertex -8.269958e-01 9.500000e+00 2.331247e+01
      vertex -1.087646e+00 9.500000e+00 1.887643e+01
      vertex -8.418274e-01 9.500000e+00 2.353220e+01
    endloop
  endfacet
  facet normal -1.701052e-16 1.000000e+00 1.376390e-14
    outer loop
      vertex 1.087662e+00 9.500000e+00 1.887643e+01
      vertex -7.557983e-01 9.500000e+00 2.310410e+01
      vertex -6.331024e-01 9.500000e+00 2.292123e+01
    endloop
  endfacet
  facet normal -1.701052e-16 1.000000e+00 1.376390e-14
    outer loop
      vertex 1.087662e+00 9.500000e+00 1.887643e+01
      vertex -6.331024e-01 9.500000e+00 2.292123e+01
      vertex -4.672546e-01 9.500000e+00 2.277640e+01
    endloop
  endfacet
  facet normal -1.701052e-16 1.000000e+00 1.376390e-14
    outer loop
      vertex 1.087662e+00 9.500000e+00 1.887643e+01
      vertex -4.672546e-01 9.500000e+00 2.277640e+01
      vertex -2.695618e-01 9.500000e+00 2.267938e+01
    endloop
  endfacet
  facet normal -1.701052e-16 1.000000e+00 1.376390e-14
    outer loop
      vertex 1.087662e+00 9.500000e+00 1.887643e+01
      vertex -2.695618e-01 9.500000e+00 2.267938e+01
      vertex -5.351257e-02 9.500000e+00 2.263684e+01
    endloop
  endfacet
  facet normal -1.701052e-16 1.000000e+00 1.376390e-14
    outer loop
      vertex 1.087662e+00 9.500000e+00 1.887643e+01
      vertex -5.351257e-02 9.500000e+00 2.263684e+01
      vertex 1.661987e-01 9.500000e+00 2.265167e+01
    endloop
  endfacet
  facet normal -1.701052e-16 1.000000e+00 1.376390e-14
    outer loop
      vertex 1.087662e+00 9.500000e+00 1.887643e+01
      vertex 1.661987e-01 9.500000e+00 2.265167e+01
      vertex 3.745728e-01 9.500000e+00 2.272287e+01
    endloop
  endfacet
  facet normal -1.701052e-16 1.000000e+00 1.376390e-14
    outer loop
      vertex 1.087662e+00 9.500000e+00 1.887643e+01
      vertex 3.745728e-01 9.500000e+00 2.272287e+01
      vertex 5.574341e-01 9.500000e+00 2.284558e+01
    endloop
  endfacet
  facet normal -1.701052e-16 1.000000e+00 1.376390e-14
    outer loop
      vertex 1.087662e+00 9.500000e+00 1.887643e+01
      vertex 5.574341e-01 9.500000e+00 2.284558e+01
      vertex 7.023010e-01 9.500000e+00 2.301141e+01
    endloop
  endfacet
  facet normal -1.701052e-16 1.000000e+00 1.376390e-14
    outer loop
      vertex 1.087662e+00 9.500000e+00 1.887643e+01
      vertex 7.023010e-01 9.500000e+00 2.301141e+01
      vertex 7.993011e-01 9.500000e+00 2.320911e+01
    endloop
  endfacet
  facet normal -1.701052e-16 1.000000e+00 1.376390e-14
    outer loop
      vertex 1.087662e+00 9.500000e+00 1.887643e+01
      vertex 7.993011e-01 9.500000e+00 2.320911e+01
      vertex 8.418274e-01 9.500000e+00 2.342517e+01
    endloop
  endfacet
  facet normal 5.110434e-01 -2.341749e-15 8.595549e-01
    outer loop
      vertex 2.366241e+00 -9.500000e+00 2.599081e+01
      vertex 3.068008e+00 -7.000000e+00 2.557358e+01
      vertex 2.366241e+00 -7.000000e+00 2.599081e+01
    endloop
  endfacet
  facet normal 5.110434e-01 -2.341749e-15 8.595549e-01
    outer loop
      vertex 3.068008e+00 -7.000000e+00 2.557358e+01
      vertex 2.366241e+00 -9.500000e+00 2.599081e+01
      vertex 3.068008e+00 -9.500000e+00 2.557358e+01
    endloop
  endfacet
  facet normal -8.178736e-15 -1.000000e+00 4.341384e-15
    outer loop
      vertex -1.087646e+00 7.000000e+00 1.887643e+01
      vertex -8.269958e-01 7.000000e+00 2.331247e+01
      vertex -8.418274e-01 7.000000e+00 2.353220e+01
    endloop
  endfacet
  facet normal -8.178736e-15 -1.000000e+00 4.341384e-15
    outer loop
      vertex -8.269958e-01 7.000000e+00 2.331247e+01
      vertex -1.087646e+00 7.000000e+00 1.887643e+01
      vertex -7.557983e-01 7.000000e+00 2.310410e+01
    endloop
  endfacet
  facet normal -8.178736e-15 -1.000000e+00 4.341384e-15
    outer loop
      vertex -7.557983e-01 7.000000e+00 2.310410e+01
      vertex -1.087646e+00 7.000000e+00 1.887643e+01
      vertex 1.087662e+00 7.000000e+00 1.887643e+01
    endloop
  endfacet
  facet normal -8.178736e-15 -1.000000e+00 4.341384e-15
    outer loop
      vertex -7.557983e-01 7.000000e+00 2.310410e+01
      vertex 1.087662e+00 7.000000e+00 1.887643e+01
      vertex -6.331024e-01 7.000000e+00 2.292123e+01
    endloop
  endfacet
  facet normal -8.178736e-15 -1.000000e+00 4.341384e-15
    outer loop
      vertex -6.331024e-01 7.000000e+00 2.292123e+01
      vertex 1.087662e+00 7.000000e+00 1.887643e+01
      vertex -4.672546e-01 7.000000e+00 2.277640e+01
    endloop
  endfacet
  facet normal -8.178736e-15 -1.000000e+00 4.341384e-15
    outer loop
      vertex -4.672546e-01 7.000000e+00 2.277640e+01
      vertex 1.087662e+00 7.000000e+00 1.887643e+01
      vertex -2.695618e-01 7.000000e+00 2.267938e+01
    endloop
  endfacet
  facet normal -8.178736e-15 -1.000000e+00 4.341384e-15
    outer loop
      vertex -2.695618e-01 7.000000e+00 2.267938e+01
      vertex 1.087662e+00 7.000000e+00 1.887643e+01
      vertex -5.351257e-02 7.000000e+00 2.263684e+01
    endloop
  endfacet
  facet normal -8.178736e-15 -1.000000e+00 4.341384e-15
    outer loop
      vertex -5.351257e-02 7.000000e+00 2.263684e+01
      vertex 1.087662e+00 7.000000e+00 1.887643e+01
      vertex 1.661987e-01 7.000000e+00 2.265167e+01
    endloop
  endfacet
  facet normal -8.178736e-15 -1.000000e+00 4.341384e-15
    outer loop
      vertex 1.661987e-01 7.000000e+00 2.265167e+01
      vertex 1.087662e+00 7.000000e+00 1.887643e+01
      vertex 3.745728e-01 7.000000e+00 2.272287e+01
    endloop
  endfacet
  facet normal -8.178736e-15 -1.000000e+00 4.341384e-15
    outer loop
      vertex 3.745728e-01 7.000000e+00 2.272287e+01
      vertex 1.087662e+00 7.000000e+00 1.887643e+01
      vertex 5.574341e-01 7.000000e+00 2.284558e+01
    endloop
  endfacet
  facet normal -8.178736e-15 -1.000000e+00 4.341384e-15
    outer loop
      vertex 5.574341e-01 7.000000e+00 2.284558e+01
      vertex 1.087662e+00 7.000000e+00 1.887643e+01
      vertex 7.023010e-01 7.000000e+00 2.301141e+01
    endloop
  endfacet
  facet normal -8.178736e-15 -1.000000e+00 4.341384e-15
    outer loop
      vertex 7.023010e-01 7.000000e+00 2.301141e+01
      vertex 1.087662e+00 7.000000e+00 1.887643e+01
      vertex 7.993011e-01 7.000000e+00 2.320911e+01
    endloop
  endfacet
  facet normal -8.178736e-15 -1.000000e+00 4.341384e-15
    outer loop
      vertex 7.993011e-01 7.000000e+00 2.320911e+01
      vertex 1.087662e+00 7.000000e+00 1.887643e+01
      vertex 8.418274e-01 7.000000e+00 2.342517e+01
    endloop
  endfacet
  facet normal -8.178736e-15 -1.000000e+00 4.341384e-15
    outer loop
      vertex 1.011685e+01 7.000000e+00 2.529083e+00
      vertex -4.916534e+00 7.000000e+00 3.445557e+00
      vertex -1.011684e+01 7.000000e+00 2.529083e+00
    endloop
  endfacet
  facet normal -8.178736e-15 -1.000000e+00 4.341384e-15
    outer loop
      vertex -4.916534e+00 7.000000e+00 3.445557e+00
      vertex 1.011685e+01 7.000000e+00 2.529083e+00
      vertex 4.917862e+00 7.000000e+00 3.445343e+00
    endloop
  endfacet
  facet normal -8.178736e-15 -1.000000e+00 4.341384e-15
    outer loop
      vertex -4.916534e+00 7.000000e+00 3.445557e+00
      vertex -4.241028e+00 7.000000e+00 2.444455e+01
      vertex -1.011684e+01 7.000000e+00 2.529083e+00
    endloop
  endfacet
  facet normal -8.178736e-15 -1.000000e+00 4.341384e-15
    outer loop
      vertex -4.241028e+00 7.000000e+00 2.444455e+01
      vertex -4.916534e+00 7.000000e+00 3.445557e+00
      vertex -1.087646e+00 7.000000e+00 1.887643e+01
    endloop
  endfacet
  facet normal -8.178736e-15 -1.000000e+00 4.341384e-15
    outer loop
      vertex -4.241028e+00 7.000000e+00 2.444455e+01
      vertex -1.087646e+00 7.000000e+00 1.887643e+01
      vertex -3.697861e+00 7.000000e+00 2.505411e+01
    endloop
  endfacet
  facet normal -8.178736e-15 -1.000000e+00 4.341384e-15
    outer loop
      vertex -3.697861e+00 7.000000e+00 2.505411e+01
      vertex -1.087646e+00 7.000000e+00 1.887643e+01
      vertex -3.068008e+00 7.000000e+00 2.557358e+01
    endloop
  endfacet
  facet normal -8.178736e-15 -1.000000e+00 4.341384e-15
    outer loop
      vertex -3.068008e+00 7.000000e+00 2.557358e+01
      vertex -1.087646e+00 7.000000e+00 1.887643e+01
      vertex -2.366241e+00 7.000000e+00 2.599081e+01
    endloop
  endfacet
  facet normal -8.178736e-15 -1.000000e+00 4.341384e-15
    outer loop
      vertex -2.366241e+00 7.000000e+00 2.599081e+01
      vertex -1.087646e+00 7.000000e+00 1.887643e+01
      vertex -1.608994e+00 7.000000e+00 2.629602e+01
    endloop
  endfacet
  facet normal -8.178736e-15 -1.000000e+00 4.341384e-15
    outer loop
      vertex -1.608994e+00 7.000000e+00 2.629602e+01
      vertex -1.087646e+00 7.000000e+00 1.887643e+01
      vertex -8.140411e-01 7.000000e+00 2.648206e+01
    endloop
  endfacet
  facet normal -8.178736e-15 -1.000000e+00 4.341384e-15
    outer loop
      vertex -8.140411e-01 7.000000e+00 2.648206e+01
      vertex -1.087646e+00 7.000000e+00 1.887643e+01
      vertex -8.418274e-01 7.000000e+00 2.353220e+01
    endloop
  endfacet
  facet normal -8.178736e-15 -1.000000e+00 4.341384e-15
    outer loop
      vertex -8.140411e-01 7.000000e+00 2.648206e+01
      vertex -8.418274e-01 7.000000e+00 2.353220e+01
      vertex -7.992859e-01 7.000000e+00 2.374823e+01
    endloop
  endfacet
  facet normal -8.178736e-15 -1.000000e+00 4.341384e-15
    outer loop
      vertex -8.140411e-01 7.000000e+00 2.648206e+01
      vertex -7.992859e-01 7.000000e+00 2.374823e+01
      vertex 0.000000e+00 7.000000e+00 2.654456e+01
    endloop
  endfacet
  facet normal -8.178736e-15 -1.000000e+00 4.341384e-15
    outer loop
      vertex 0.000000e+00 7.000000e+00 2.654456e+01
      vertex -7.992859e-01 7.000000e+00 2.374823e+01
      vertex -7.022858e-01 7.000000e+00 2.394592e+01
    endloop
  endfacet
  facet normal -8.178736e-15 -1.000000e+00 4.341384e-15
    outer loop
      vertex 0.000000e+00 7.000000e+00 2.654456e+01
      vertex -7.022858e-01 7.000000e+00 2.394592e+01
      vertex -5.574188e-01 7.000000e+00 2.411179e+01
    endloop
  endfacet
  facet normal -8.178736e-15 -1.000000e+00 4.341384e-15
    outer loop
      vertex 0.000000e+00 7.000000e+00 2.654456e+01
      vertex -5.574188e-01 7.000000e+00 2.411179e+01
      vertex -3.745728e-01 7.000000e+00 2.423447e+01
    endloop
  endfacet
  facet normal -8.178736e-15 -1.000000e+00 4.341384e-15
    outer loop
      vertex 0.000000e+00 7.000000e+00 2.654456e+01
      vertex -3.745728e-01 7.000000e+00 2.423447e+01
      vertex -1.661987e-01 7.000000e+00 2.430566e+01
    endloop
  endfacet
  facet normal -8.178736e-15 -1.000000e+00 4.341384e-15
    outer loop
      vertex 0.000000e+00 7.000000e+00 2.654456e+01
      vertex -1.661987e-01 7.000000e+00 2.430566e+01
      vertex 5.351257e-02 7.000000e+00 2.432050e+01
    endloop
  endfacet
  facet normal -8.178736e-15 -1.000000e+00 4.341384e-15
    outer loop
      vertex 0.000000e+00 7.000000e+00 2.654456e+01
      vertex 5.351257e-02 7.000000e+00 2.432050e+01
      vertex 8.140411e-01 7.000000e+00 2.648206e+01
    endloop
  endfacet
  facet normal -8.178736e-15 -1.000000e+00 4.341384e-15
    outer loop
      vertex 8.140411e-01 7.000000e+00 2.648206e+01
      vertex 5.351257e-02 7.000000e+00 2.432050e+01
      vertex 2.695770e-01 7.000000e+00 2.427798e+01
    endloop
  endfacet
  facet normal -8.178736e-15 -1.000000e+00 4.341384e-15
    outer loop
      vertex 8.140411e-01 7.000000e+00 2.648206e+01
      vertex 2.695770e-01 7.000000e+00 2.427798e+01
      vertex 4.672546e-01 7.000000e+00 2.418097e+01
    endloop
  endfacet
  facet normal -8.178736e-15 -1.000000e+00 4.341384e-15
    outer loop
      vertex 8.140411e-01 7.000000e+00 2.648206e+01
      vertex 4.672546e-01 7.000000e+00 2.418097e+01
      vertex 6.331024e-01 7.000000e+00 2.403610e+01
    endloop
  endfacet
  facet normal -8.178736e-15 -1.000000e+00 4.341384e-15
    outer loop
      vertex 8.140411e-01 7.000000e+00 2.648206e+01
      vertex 6.331024e-01 7.000000e+00 2.403610e+01
      vertex 7.557983e-01 7.000000e+00 2.385324e+01
    endloop
  endfacet
  facet normal -8.178736e-15 -1.000000e+00 4.341384e-15
    outer loop
      vertex 8.140411e-01 7.000000e+00 2.648206e+01
      vertex 7.557983e-01 7.000000e+00 2.385324e+01
      vertex 8.269958e-01 7.000000e+00 2.364487e+01
    endloop
  endfacet
  facet normal -8.178736e-15 -1.000000e+00 4.341384e-15
    outer loop
      vertex 8.140411e-01 7.000000e+00 2.648206e+01
      vertex 8.269958e-01 7.000000e+00 2.364487e+01
      vertex 1.609009e+00 7.000000e+00 2.629602e+01
    endloop
  endfacet
  facet normal -8.178736e-15 -1.000000e+00 4.341384e-15
    outer loop
      vertex 1.609009e+00 7.000000e+00 2.629602e+01
      vertex 8.269958e-01 7.000000e+00 2.364487e+01
      vertex 8.418274e-01 7.000000e+00 2.342517e+01
    endloop
  endfacet
  facet normal -8.178736e-15 -1.000000e+00 4.341384e-15
    outer loop
      vertex 1.609009e+00 7.000000e+00 2.629602e+01
      vertex 8.418274e-01 7.000000e+00 2.342517e+01
      vertex 1.087662e+00 7.000000e+00 1.887643e+01
    endloop
  endfacet
  facet normal -8.178736e-15 -1.000000e+00 4.341384e-15
    outer loop
      vertex 1.609009e+00 7.000000e+00 2.629602e+01
      vertex 1.087662e+00 7.000000e+00 1.887643e+01
      vertex 4.917862e+00 7.000000e+00 3.445343e+00
    endloop
  endfacet
  facet normal -8.178736e-15 -1.000000e+00 4.341384e-15
    outer loop
      vertex 1.609009e+00 7.000000e+00 2.629602e+01
      vertex 4.917862e+00 7.000000e+00 3.445343e+00
      vertex 2.366241e+00 7.000000e+00 2.599081e+01
    endloop
  endfacet
  facet normal -8.178736e-15 -1.000000e+00 4.341384e-15
    outer loop
      vertex 2.366241e+00 7.000000e+00 2.599081e+01
      vertex 4.917862e+00 7.000000e+00 3.445343e+00
      vertex 3.068008e+00 7.000000e+00 2.557358e+01
    endloop
  endfacet
  facet normal -8.178736e-15 -1.000000e+00 4.341384e-15
    outer loop
      vertex 3.068008e+00 7.000000e+00 2.557358e+01
      vertex 4.917862e+00 7.000000e+00 3.445343e+00
      vertex 3.697861e+00 7.000000e+00 2.505411e+01
    endloop
  endfacet
  facet normal -8.178736e-15 -1.000000e+00 4.341384e-15
    outer loop
      vertex 3.697861e+00 7.000000e+00 2.505411e+01
      vertex 4.917862e+00 7.000000e+00 3.445343e+00
      vertex 4.241043e+00 7.000000e+00 2.444455e+01
    endloop
  endfacet
  facet normal -8.178736e-15 -1.000000e+00 4.341384e-15
    outer loop
      vertex 4.241043e+00 7.000000e+00 2.444455e+01
      vertex 4.917862e+00 7.000000e+00 3.445343e+00
      vertex 1.011685e+01 7.000000e+00 2.529083e+00
    endloop
  endfacet
  facet normal 7.465833e-01 -3.472057e-15 6.652919e-01
    outer loop
      vertex 3.697861e+00 -7.000000e+00 2.505411e+01
      vertex 4.241043e+00 -9.500000e+00 2.444455e+01
      vertex 4.241043e+00 -7.000000e+00 2.444455e+01
    endloop
  endfacet
  facet normal 7.465833e-01 -3.472057e-15 6.652919e-01
    outer loop
      vertex 4.241043e+00 -9.500000e+00 2.444455e+01
      vertex 3.697861e+00 -7.000000e+00 2.505411e+01
      vertex 3.697861e+00 -9.500000e+00 2.505411e+01
    endloop
  endfacet
  facet normal 3.738362e-01 -1.006449e-14 9.274948e-01
    outer loop
      vertex 1.609009e+00 -9.500000e+00 2.629602e+01
      vertex 2.366241e+00 -7.000000e+00 2.599081e+01
      vertex 1.609009e+00 -7.000000e+00 2.629602e+01
    endloop
  endfacet
  facet normal 3.738362e-01 -1.006449e-14 9.274948e-01
    outer loop
      vertex 2.366241e+00 -7.000000e+00 2.599081e+01
      vertex 1.609009e+00 -9.500000e+00 2.629602e+01
      vertex 2.366241e+00 -9.500000e+00 2.599081e+01
    endloop
  endfacet
  facet normal 6.362710e-01 -2.948032e-15 7.714656e-01
    outer loop
      vertex 3.068008e+00 -9.500000e+00 2.557358e+01
      vertex 3.697861e+00 -7.000000e+00 2.505411e+01
      vertex 3.068008e+00 -7.000000e+00 2.557358e+01
    endloop
  endfacet
  facet normal 6.362710e-01 -2.948032e-15 7.714656e-01
    outer loop
      vertex 3.697861e+00 -7.000000e+00 2.505411e+01
      vertex 3.068008e+00 -9.500000e+00 2.557358e+01
      vertex 3.697861e+00 -9.500000e+00 2.505411e+01
    endloop
  endfacet
  facet normal 2.278655e-01 -1.858734e-14 9.736926e-01
    outer loop
      vertex 8.140411e-01 -9.500000e+00 2.648206e+01
      vertex 1.609009e+00 -7.000000e+00 2.629602e+01
      vertex 8.140411e-01 -7.000000e+00 2.648206e+01
    endloop
  endfacet
  facet normal 2.278655e-01 -1.858734e-14 9.736926e-01
    outer loop
      vertex 1.609009e+00 -7.000000e+00 2.629602e+01
      vertex 8.140411e-01 -9.500000e+00 2.648206e+01
      vertex 1.609009e+00 -9.500000e+00 2.629602e+01
    endloop
  endfacet
  facet normal 7.655335e-02 -1.829341e-14 9.970655e-01
    outer loop
      vertex 0.000000e+00 -9.500000e+00 2.654456e+01
      vertex 8.140411e-01 -7.000000e+00 2.648206e+01
      vertex 0.000000e+00 -7.000000e+00 2.654456e+01
    endloop
  endfacet
  facet normal 7.655335e-02 -1.829341e-14 9.970655e-01
    outer loop
      vertex 8.140411e-01 -7.000000e+00 2.648206e+01
      vertex 0.000000e+00 -9.500000e+00 2.654456e+01
      vertex 8.140411e-01 -9.500000e+00 2.648206e+01
    endloop
  endfacet
  facet normal -7.655335e-02 -1.792001e-14 9.970655e-01
    outer loop
      vertex -8.140411e-01 -9.500000e+00 2.648206e+01
      vertex 0.000000e+00 -7.000000e+00 2.654456e+01
      vertex -8.140411e-01 -7.000000e+00 2.648206e+01
    endloop
  endfacet
  facet normal -7.655335e-02 -1.792001e-14 9.970655e-01
    outer loop
      vertex 0.000000e+00 -7.000000e+00 2.654456e+01
      vertex -8.140411e-01 -9.500000e+00 2.648206e+01
      vertex 0.000000e+00 -9.500000e+00 2.654456e+01
    endloop
  endfacet
  facet normal -2.278655e-01 -1.644816e-14 9.736926e-01
    outer loop
      vertex -1.608994e+00 -9.500000e+00 2.629602e+01
      vertex -8.140411e-01 -7.000000e+00 2.648206e+01
      vertex -1.608994e+00 -7.000000e+00 2.629602e+01
    endloop
  endfacet
  facet normal -2.278655e-01 -1.644816e-14 9.736926e-01
    outer loop
      vertex -8.140411e-01 -7.000000e+00 2.648206e+01
      vertex -1.608994e+00 -9.500000e+00 2.629602e+01
      vertex -8.140411e-01 -9.500000e+00 2.648206e+01
    endloop
  endfacet
  facet normal -3.738362e-01 -1.492664e-14 9.274948e-01
    outer loop
      vertex -2.366241e+00 -9.500000e+00 2.599081e+01
      vertex -1.608994e+00 -7.000000e+00 2.629602e+01
      vertex -2.366241e+00 -7.000000e+00 2.599081e+01
    endloop
  endfacet
  facet normal -3.738362e-01 -1.492664e-14 9.274948e-01
    outer loop
      vertex -1.608994e+00 -7.000000e+00 2.629602e+01
      vertex -2.366241e+00 -9.500000e+00 2.599081e+01
      vertex -1.608994e+00 -9.500000e+00 2.629602e+01
    endloop
  endfacet
  facet normal -5.110434e-01 -7.611953e-15 8.595549e-01
    outer loop
      vertex -3.068008e+00 -9.500000e+00 2.557358e+01
      vertex -2.366241e+00 -7.000000e+00 2.599081e+01
      vertex -3.068008e+00 -7.000000e+00 2.557358e+01
    endloop
  endfacet
  facet normal -5.110434e-01 -7.611953e-15 8.595549e-01
    outer loop
      vertex -2.366241e+00 -7.000000e+00 2.599081e+01
      vertex -3.068008e+00 -9.500000e+00 2.557358e+01
      vertex -2.366241e+00 -9.500000e+00 2.599081e+01
    endloop
  endfacet
  facet normal -6.362710e-01 1.641197e-16 7.714656e-01
    outer loop
      vertex -3.697861e+00 -9.500000e+00 2.505411e+01
      vertex -3.068008e+00 -7.000000e+00 2.557358e+01
      vertex -3.697861e+00 -7.000000e+00 2.505411e+01
    endloop
  endfacet
  facet normal -6.362710e-01 1.641197e-16 7.714656e-01
    outer loop
      vertex -3.068008e+00 -7.000000e+00 2.557358e+01
      vertex -3.697861e+00 -9.500000e+00 2.505411e+01
      vertex -3.068008e+00 -9.500000e+00 2.557358e+01
    endloop
  endfacet
  facet normal 7.465833e-01 6.638180e-15 6.652919e-01
    outer loop
      vertex 3.697861e+00 9.500000e+00 2.505411e+01
      vertex 4.241043e+00 7.000000e+00 2.444455e+01
      vertex 4.241043e+00 9.500000e+00 2.444455e+01
    endloop
  endfacet
  facet normal 7.465833e-01 6.638180e-15 6.652919e-01
    outer loop
      vertex 4.241043e+00 7.000000e+00 2.444455e+01
      vertex 3.697861e+00 9.500000e+00 2.505411e+01
      vertex 3.697861e+00 7.000000e+00 2.505411e+01
    endloop
  endfacet
  facet normal -7.465833e-01 3.545176e-15 6.652919e-01
    outer loop
      vertex -3.697861e+00 -9.500000e+00 2.505411e+01
      vertex -4.241028e+00 -7.000000e+00 2.444455e+01
      vertex -4.241028e+00 -9.500000e+00 2.444455e+01
    endloop
  endfacet
  facet normal -7.465833e-01 3.545176e-15 6.652919e-01
    outer loop
      vertex -4.241028e+00 -7.000000e+00 2.444455e+01
      vertex -3.697861e+00 -9.500000e+00 2.505411e+01
      vertex -3.697861e+00 -7.000000e+00 2.505411e+01
    endloop
  endfacet
  facet normal 5.110434e-01 -5.494762e-15 8.595549e-01
    outer loop
      vertex 2.366241e+00 7.000000e+00 2.599081e+01
      vertex 3.068008e+00 9.500000e+00 2.557358e+01
      vertex 2.366241e+00 9.500000e+00 2.599081e+01
    endloop
  endfacet
  facet normal 5.110434e-01 -5.494762e-15 8.595549e-01
    outer loop
      vertex 3.068008e+00 9.500000e+00 2.557358e+01
      vertex 2.366241e+00 7.000000e+00 2.599081e+01
      vertex 3.068008e+00 7.000000e+00 2.557358e+01
    endloop
  endfacet
  facet normal 3.738362e-01 -6.697475e-15 9.274948e-01
    outer loop
      vertex 1.609009e+00 7.000000e+00 2.629602e+01
      vertex 2.366241e+00 9.500000e+00 2.599081e+01
      vertex 1.609009e+00 9.500000e+00 2.629602e+01
    endloop
  endfacet
  facet normal 3.738362e-01 -6.697475e-15 9.274948e-01
    outer loop
      vertex 2.366241e+00 9.500000e+00 2.599081e+01
      vertex 1.609009e+00 7.000000e+00 2.629602e+01
      vertex 2.366241e+00 7.000000e+00 2.599081e+01
    endloop
  endfacet
  facet normal 6.362710e-01 2.803787e-15 7.714656e-01
    outer loop
      vertex 3.068008e+00 7.000000e+00 2.557358e+01
      vertex 3.697861e+00 9.500000e+00 2.505411e+01
      vertex 3.068008e+00 9.500000e+00 2.557358e+01
    endloop
  endfacet
  facet normal 6.362710e-01 2.803787e-15 7.714656e-01
    outer loop
      vertex 3.697861e+00 9.500000e+00 2.505411e+01
      vertex 3.068008e+00 7.000000e+00 2.557358e+01
      vertex 3.697861e+00 7.000000e+00 2.505411e+01
    endloop
  endfacet
  facet normal 2.278655e-01 1.044514e-15 9.736926e-01
    outer loop
      vertex 8.140411e-01 7.000000e+00 2.648206e+01
      vertex 1.609009e+00 9.500000e+00 2.629602e+01
      vertex 8.140411e-01 9.500000e+00 2.648206e+01
    endloop
  endfacet
  facet normal 2.278655e-01 1.044514e-15 9.736926e-01
    outer loop
      vertex 1.609009e+00 9.500000e+00 2.629602e+01
      vertex 8.140411e-01 7.000000e+00 2.648206e+01
      vertex 1.609009e+00 7.000000e+00 2.629602e+01
    endloop
  endfacet
  facet normal 7.655335e-02 3.922665e-16 9.970655e-01
    outer loop
      vertex 0.000000e+00 7.000000e+00 2.654456e+01
      vertex 8.140411e-01 9.500000e+00 2.648206e+01
      vertex 0.000000e+00 9.500000e+00 2.654456e+01
    endloop
  endfacet
  facet normal 7.655335e-02 3.922665e-16 9.970655e-01
    outer loop
      vertex 8.140411e-01 9.500000e+00 2.648206e+01
      vertex 0.000000e+00 7.000000e+00 2.654456e+01
      vertex 8.140411e-01 7.000000e+00 2.648206e+01
    endloop
  endfacet
  facet normal -7.655335e-02 7.505626e-17 9.970655e-01
    outer loop
      vertex -8.140411e-01 7.000000e+00 2.648206e+01
      vertex 0.000000e+00 9.500000e+00 2.654456e+01
      vertex -8.140411e-01 9.500000e+00 2.648206e+01
    endloop
  endfacet
  facet normal -7.655335e-02 7.505626e-17 9.970655e-01
    outer loop
      vertex 0.000000e+00 9.500000e+00 2.654456e+01
      vertex -8.140411e-01 7.000000e+00 2.648206e+01
      vertex 0.000000e+00 7.000000e+00 2.654456e+01
    endloop
  endfacet
  facet normal -2.278655e-01 -9.262557e-16 9.736926e-01
    outer loop
      vertex -1.608994e+00 7.000000e+00 2.629602e+01
      vertex -8.140411e-01 9.500000e+00 2.648206e+01
      vertex -1.608994e+00 9.500000e+00 2.629602e+01
    endloop
  endfacet
  facet normal -2.278655e-01 -9.262557e-16 9.736926e-01
    outer loop
      vertex -8.140411e-01 9.500000e+00 2.648206e+01
      vertex -1.608994e+00 7.000000e+00 2.629602e+01
      vertex -8.140411e-01 7.000000e+00 2.648206e+01
    endloop
  endfacet
  facet normal -3.738362e-01 6.811060e-15 9.274948e-01
    outer loop
      vertex -2.366241e+00 7.000000e+00 2.599081e+01
      vertex -1.608994e+00 9.500000e+00 2.629602e+01
      vertex -2.366241e+00 9.500000e+00 2.599081e+01
    endloop
  endfacet
  facet normal -3.738362e-01 6.811060e-15 9.274948e-01
    outer loop
      vertex -1.608994e+00 9.500000e+00 2.629602e+01
      vertex -2.366241e+00 7.000000e+00 2.599081e+01
      vertex -1.608994e+00 7.000000e+00 2.629602e+01
    endloop
  endfacet
  facet normal -5.110434e-01 7.906252e-15 8.595549e-01
    outer loop
      vertex -3.068008e+00 7.000000e+00 2.557358e+01
      vertex -2.366241e+00 9.500000e+00 2.599081e+01
      vertex -3.068008e+00 9.500000e+00 2.557358e+01
    endloop
  endfacet
  facet normal -5.110434e-01 7.906252e-15 8.595549e-01
    outer loop
      vertex -2.366241e+00 9.500000e+00 2.599081e+01
      vertex -3.068008e+00 7.000000e+00 2.557358e+01
      vertex -2.366241e+00 7.000000e+00 2.599081e+01
    endloop
  endfacet
  facet normal -6.362710e-01 -2.705635e-15 7.714656e-01
    outer loop
      vertex -3.697861e+00 7.000000e+00 2.505411e+01
      vertex -3.068008e+00 9.500000e+00 2.557358e+01
      vertex -3.697861e+00 9.500000e+00 2.505411e+01
    endloop
  endfacet
  facet normal -6.362710e-01 -2.705635e-15 7.714656e-01
    outer loop
      vertex -3.068008e+00 9.500000e+00 2.557358e+01
      vertex -3.697861e+00 7.000000e+00 2.505411e+01
      vertex -3.068008e+00 7.000000e+00 2.557358e+01
    endloop
  endfacet
  facet normal -7.465833e-01 -6.565061e-15 6.652919e-01
    outer loop
      vertex -3.697861e+00 7.000000e+00 2.505411e+01
      vertex -4.241028e+00 9.500000e+00 2.444455e+01
      vertex -4.241028e+00 7.000000e+00 2.444455e+01
    endloop
  endfacet
  facet normal -7.465833e-01 -6.565061e-15 6.652919e-01
    outer loop
      vertex -4.241028e+00 9.500000e+00 2.444455e+01
      vertex -3.697861e+00 7.000000e+00 2.505411e+01
      vertex -3.697861e+00 9.500000e+00 2.505411e+01
    endloop
  endfacet
  facet normal -6.123234e-17 6.123234e-17 1.000000e+00
    outer loop
      vertex -1.050000e+01 7.000000e+00 1.100006e+00
      vertex 1.050000e+01 7.000000e+00 1.100006e+00
      vertex -5.500000e+00 7.000000e+00 1.100006e+00
    endloop
  endfacet
  facet normal -6.123234e-17 6.123234e-17 1.000000e+00
    outer loop
      vertex 1.050000e+01 7.000000e+00 1.100006e+00
      vertex -1.050000e+01 7.000000e+00 1.100006e+00
      vertex -1.050000e+01 -7.000000e+00 1.100006e+00
    endloop
  endfacet
  facet normal -6.123234e-17 6.123234e-17 1.000000e+00
    outer loop
      vertex 1.050000e+01 7.000000e+00 1.100006e+00
      vertex -1.050000e+01 -7.000000e+00 1.100006e+00
      vertex 1.050000e+01 -7.000000e+00 1.100006e+00
    endloop
  endfacet
  facet normal -6.123234e-17 6.123234e-17 1.000000e+00
    outer loop
      vertex -1.011684e+01 -7.000000e+00 2.529083e+00
      vertex 1.011685e+01 7.000000e+00 2.529083e+00
      vertex -1.011684e+01 7.000000e+00 2.529083e+00
    endloop
  endfacet
  facet normal -6.123234e-17 6.123234e-17 1.000000e+00
    outer loop
      vertex 1.011685e+01 7.000000e+00 2.529083e+00
      vertex -1.011684e+01 -7.000000e+00 2.529083e+00
      vertex 1.011685e+01 -7.000000e+00 2.529083e+00
    endloop
  endfacet
  facet normal -2.309735e-05 -9.085091e-05 -1.000000e+00
    outer loop
      vertex 4.917862e+00 7.000000e+00 3.445343e+00
      vertex -4.916534e+00 7.000000e+00 3.445557e+00
      vertex -4.915619e+00 9.500000e+00 3.445343e+00
    endloop
  endfacet
  facet normal -1.072404e-03 -4.202550e-03 -9.999906e-01
    outer loop
      vertex 4.915237e+00 -9.500000e+00 3.444824e+00
      vertex -4.913651e+00 -7.000000e+00 3.444855e+00
      vertex 4.917862e+00 -7.000000e+00 3.434296e+00
    endloop
  endfacet
  facet normal 6.123234e-17 -1.810902e-14 -1.000000e+00
    outer loop
      vertex 4.917862e+00 7.000000e+00 3.445343e+00
      vertex -4.915619e+00 9.500000e+00 3.445343e+00
      vertex 4.917862e+00 9.500000e+00 3.445343e+00
    endloop
  endfacet
  facet normal 9.658864e-01 -4.053331e-16 2.589661e-01
    outer loop
      vertex 4.241043e+00 9.500000e+00 2.444455e+01
      vertex 1.050000e+01 7.000000e+00 1.100006e+00
      vertex 1.050000e+01 9.500000e+00 1.100006e+00
    endloop
  endfacet
  facet normal 9.658864e-01 -4.053331e-16 2.589661e-01
    outer loop
      vertex 1.050000e+01 7.000000e+00 1.100006e+00
      vertex 4.241043e+00 9.500000e+00 2.444455e+01
      vertex 1.011685e+01 7.000000e+00 2.529083e+00
    endloop
  endfacet
  facet normal 9.658864e-01 -4.053331e-16 2.589661e-01
    outer loop
      vertex 1.050000e+01 7.000000e+00 1.100006e+00
      vertex 1.011685e+01 7.000000e+00 2.529083e+00
      vertex 1.050000e+01 -7.000000e+00 1.100006e+00
    endloop
  endfacet
  facet normal 9.658864e-01 -4.053331e-16 2.589661e-01
    outer loop
      vertex 1.050000e+01 -7.000000e+00 1.100006e+00
      vertex 1.011685e+01 7.000000e+00 2.529083e+00
      vertex 1.050000e+01 -9.500000e+00 1.100006e+00
    endloop
  endfacet
  facet normal 9.658864e-01 -4.053331e-16 2.589661e-01
    outer loop
      vertex 1.011685e+01 7.000000e+00 2.529083e+00
      vertex 4.241043e+00 9.500000e+00 2.444455e+01
      vertex 4.241043e+00 7.000000e+00 2.444455e+01
    endloop
  endfacet
  facet normal 9.658864e-01 -4.053331e-16 2.589661e-01
    outer loop
      vertex 1.050000e+01 -9.500000e+00 1.100006e+00
      vertex 1.011685e+01 -7.000000e+00 2.529083e+00
      vertex 4.241043e+00 -9.500000e+00 2.444455e+01
    endloop
  endfacet
  facet normal 9.658864e-01 -4.053331e-16 2.589661e-01
    outer loop
      vertex 1.011685e+01 -7.000000e+00 2.529083e+00
      vertex 1.050000e+01 -9.500000e+00 1.100006e+00
      vertex 1.011685e+01 7.000000e+00 2.529083e+00
    endloop
  endfacet
  facet normal 9.658864e-01 -4.053331e-16 2.589661e-01
    outer loop
      vertex 4.241043e+00 -9.500000e+00 2.444455e+01
      vertex 1.011685e+01 -7.000000e+00 2.529083e+00
      vertex 4.241043e+00 -7.000000e+00 2.444455e+01
    endloop
  endfacet
  facet normal 6.123485e-17 1.366696e-05 -1.000000e+00
    outer loop
      vertex -4.913513e+00 -9.500000e+00 3.444824e+00
      vertex -4.913651e+00 -7.000000e+00 3.444855e+00
      vertex 4.915237e+00 -9.500000e+00 3.444824e+00
    endloop
  endfacet
  facet normal -9.705492e-01 -1.993363e-15 -2.409029e-01
    outer loop
      vertex 4.917862e+00 7.000000e+00 3.445343e+00
      vertex 1.087662e+00 9.500000e+00 1.887643e+01
      vertex 4.917862e+00 9.500000e+00 3.445343e+00
    endloop
  endfacet
  facet normal -9.705492e-01 -1.993363e-15 -2.409029e-01
    outer loop
      vertex 1.087662e+00 9.500000e+00 1.887643e+01
      vertex 4.917862e+00 7.000000e+00 3.445343e+00
      vertex 1.087662e+00 7.000000e+00 1.887643e+01
    endloop
  endfacet
  facet normal 6.123234e-17 -6.123234e-17 -1.000000e+00
    outer loop
      vertex 1.087662e+00 7.000000e+00 1.887643e+01
      vertex -1.087646e+00 9.500000e+00 1.887643e+01
      vertex 1.087662e+00 9.500000e+00 1.887643e+01
    endloop
  endfacet
  facet normal 6.123234e-17 -6.123234e-17 -1.000000e+00
    outer loop
      vertex -1.087646e+00 9.500000e+00 1.887643e+01
      vertex 1.087662e+00 7.000000e+00 1.887643e+01
      vertex -1.087646e+00 7.000000e+00 1.887643e+01
    endloop
  endfacet
  facet normal 6.123234e-17 -6.123234e-17 -1.000000e+00
    outer loop
      vertex 1.087662e+00 -9.500000e+00 1.879282e+01
      vertex -1.074646e+00 -7.000000e+00 1.879282e+01
      vertex 1.087662e+00 -7.000000e+00 1.879282e+01
    endloop
  endfacet
  facet normal 6.123234e-17 -6.123234e-17 -1.000000e+00
    outer loop
      vertex -1.074646e+00 -7.000000e+00 1.879282e+01
      vertex 1.087662e+00 -9.500000e+00 1.879282e+01
      vertex -1.074646e+00 -9.500000e+00 1.879282e+01
    endloop
  endfacet
  facet normal -1.000000e+00 1.836970e-16 -6.123234e-17
    outer loop
      vertex -1.050000e+01 -9.500000e+00 1.100006e+00
      vertex -1.050000e+01 9.500000e+00 0.000000e+00
      vertex -1.050000e+01 -9.500000e+00 0.000000e+00
    endloop
  endfacet
  facet normal -1.000000e+00 1.836970e-16 -6.123234e-17
    outer loop
      vertex -1.050000e+01 9.500000e+00 0.000000e+00
      vertex -1.050000e+01 -9.500000e+00 1.100006e+00
      vertex -1.050000e+01 9.500000e+00 1.100006e+00
    endloop
  endfacet
  facet normal -1.000000e+00 1.836970e-16 -6.123234e-17
    outer loop
      vertex -1.050000e+01 9.500000e+00 1.100006e+00
      vertex -1.050000e+01 -9.500000e+00 1.100006e+00
      vertex -1.050000e+01 -7.000000e+00 1.100006e+00
    endloop
  endfacet
  facet normal -1.000000e+00 1.836970e-16 -6.123234e-17
    outer loop
      vertex -1.050000e+01 9.500000e+00 1.100006e+00
      vertex -1.050000e+01 -7.000000e+00 1.100006e+00
      vertex -1.050000e+01 7.000000e+00 1.100006e+00
    endloop
  endfacet
  facet normal -9.702825e-01 -1.922208e-15 -2.419749e-01
    outer loop
      vertex 4.915237e+00 -9.500000e+00 3.444824e+00
      vertex 1.087662e+00 -7.000000e+00 1.879282e+01
      vertex 4.917862e+00 -7.000000e+00 3.434296e+00
    endloop
  endfacet
  facet normal -9.702825e-01 -1.922208e-15 -2.419749e-01
    outer loop
      vertex 1.087662e+00 -7.000000e+00 1.879282e+01
      vertex 4.915237e+00 -9.500000e+00 3.444824e+00
      vertex 1.087662e+00 -9.500000e+00 1.879282e+01
    endloop
  endfacet
  facet normal 6.123234e-17 -6.123234e-17 -1.000000e+00
    outer loop
      vertex 1.050000e+01 -9.500000e+00 0.000000e+00
      vertex -1.050000e+01 9.500000e+00 0.000000e+00
      vertex 1.050000e+01 9.500000e+00 0.000000e+00
    endloop
  endfacet
  facet normal 6.123234e-17 -6.123234e-17 -1.000000e+00
    outer loop
      vertex -1.050000e+01 9.500000e+00 0.000000e+00
      vertex 1.050000e+01 -9.500000e+00 0.000000e+00
      vertex -1.050000e+01 -9.500000e+00 0.000000e+00
    endloop
  endfacet
  facet normal 1.000000e+00 -1.836970e-16 6.123234e-17
    outer loop
      vertex 1.050000e+01 9.500000e+00 1.100006e+00
      vertex 1.050000e+01 -9.500000e+00 0.000000e+00
      vertex 1.050000e+01 9.500000e+00 0.000000e+00
    endloop
  endfacet
  facet normal 1.000000e+00 -1.836970e-16 6.123234e-17
    outer loop
      vertex 1.050000e+01 -9.500000e+00 0.000000e+00
      vertex 1.050000e+01 9.500000e+00 1.100006e+00
      vertex 1.050000e+01 -9.500000e+00 1.100006e+00
    endloop
  endfacet
  facet normal 1.000000e+00 -1.836970e-16 6.123234e-17
    outer loop
      vertex 1.050000e+01 -9.500000e+00 1.100006e+00
      vertex 1.050000e+01 9.500000e+00 1.100006e+00
      vertex 1.050000e+01 7.000000e+00 1.100006e+00
    endloop
  endfacet
  facet normal 1.000000e+00 -1.836970e-16 6.123234e-17
    outer loop
      vertex 1.050000e+01 -9.500000e+00 1.100006e+00
      vertex 1.050000e+01 7.000000e+00 1.100006e+00
      vertex 1.050000e+01 -7.000000e+00 1.100006e+00
    endloop
  endfacet
  facet normal 4.317130e-01 -2.407214e-17 9.020110e-01
    outer loop
      vertex -3.244934e-01 -9.500000e+00 2.309442e+01
      vertex -1.151581e-01 -7.000000e+00 2.302609e+01
      vertex -3.244934e-01 -7.000000e+00 2.309442e+01
    endloop
  endfacet
  facet normal 1.835451e-01 2.647539e-17 9.830113e-01
    outer loop
      vertex -1.151581e-01 -7.000000e+00 2.302609e+01
      vertex -3.244934e-01 -9.500000e+00 2.309442e+01
      vertex -1.151581e-01 -9.500000e+00 2.302609e+01
    endloop
  endfacet
  facet normal -7.713109e-02 7.521868e-17 9.970210e-01
    outer loop
      vertex 1.047363e-01 -9.500000e+00 2.301428e+01
      vertex 3.201904e-01 -7.000000e+00 2.305978e+01
      vertex 1.047363e-01 -7.000000e+00 2.301428e+01
    endloop
  endfacet
  facet normal -3.325509e-01 1.188359e-16 9.430853e-01
    outer loop
      vertex 3.201904e-01 -7.000000e+00 2.305978e+01
      vertex 1.047363e-01 -9.500000e+00 2.301428e+01
      vertex 3.201904e-01 -9.500000e+00 2.305978e+01
    endloop
  endfacet
  facet normal 1.835451e-01 2.647539e-17 9.830113e-01
    outer loop
      vertex -1.151581e-01 -9.500000e+00 2.302609e+01
      vertex 1.047363e-01 -7.000000e+00 2.301428e+01
      vertex -1.151581e-01 -7.000000e+00 2.302609e+01
    endloop
  endfacet
  facet normal -7.713109e-02 7.521868e-17 9.970210e-01
    outer loop
      vertex 1.047363e-01 -7.000000e+00 2.301428e+01
      vertex -1.151581e-01 -9.500000e+00 2.302609e+01
      vertex 1.047363e-01 -9.500000e+00 2.301428e+01
    endloop
  endfacet
  facet normal 8.248799e-01 -1.169129e-16 5.653080e-01
    outer loop
      vertex -6.561432e-01 -7.000000e+00 2.337845e+01
      vertex -5.090027e-01 -9.500000e+00 2.321460e+01
      vertex -5.090027e-01 -7.000000e+00 2.321460e+01
    endloop
  endfacet
  facet normal 6.504604e-01 -7.297921e-17 7.595402e-01
    outer loop
      vertex -5.090027e-01 -9.500000e+00 2.321460e+01
      vertex -6.561432e-01 -7.000000e+00 2.337845e+01
      vertex -6.561432e-01 -9.500000e+00 2.337845e+01
    endloop
  endfacet
  facet normal 6.504604e-01 -7.297921e-17 7.595402e-01
    outer loop
      vertex -5.090027e-01 -9.500000e+00 2.321460e+01
      vertex -3.244934e-01 -7.000000e+00 2.309442e+01
      vertex -5.090027e-01 -7.000000e+00 2.321460e+01
    endloop
  endfacet
  facet normal 4.317130e-01 -2.407214e-17 9.020110e-01
    outer loop
      vertex -3.244934e-01 -7.000000e+00 2.309442e+01
      vertex -5.090027e-01 -9.500000e+00 2.321460e+01
      vertex -3.244934e-01 -9.500000e+00 2.309442e+01
    endloop
  endfacet
  facet normal 9.430853e-01 -1.528791e-16 3.325509e-01
    outer loop
      vertex -7.558441e-01 -7.000000e+00 2.357477e+01
      vertex -6.561432e-01 -9.500000e+00 2.337845e+01
      vertex -6.561432e-01 -7.000000e+00 2.337845e+01
    endloop
  endfacet
  facet normal 8.248799e-01 -1.169129e-16 5.653080e-01
    outer loop
      vertex -6.561432e-01 -9.500000e+00 2.337845e+01
      vertex -7.558441e-01 -7.000000e+00 2.357477e+01
      vertex -7.558441e-01 -9.500000e+00 2.357477e+01
    endloop
  endfacet
  facet normal 5.653080e-01 -1.543547e-16 -8.248799e-01
    outer loop
      vertex -4.371796e-01 -9.500000e+00 2.455112e+01
      vertex -6.010132e-01 -7.000000e+00 2.440399e+01
      vertex -4.371796e-01 -7.000000e+00 2.455112e+01
    endloop
  endfacet
  facet normal 7.595402e-01 -1.793545e-16 -6.504604e-01
    outer loop
      vertex -6.010132e-01 -7.000000e+00 2.440399e+01
      vertex -4.371796e-01 -9.500000e+00 2.455112e+01
      vertex -6.010132e-01 -9.500000e+00 2.440399e+01
    endloop
  endfacet
  facet normal 3.325509e-01 -1.188359e-16 -9.430853e-01
    outer loop
      vertex -2.408447e-01 -9.500000e+00 2.465082e+01
      vertex -4.371796e-01 -7.000000e+00 2.455112e+01
      vertex -2.408447e-01 -7.000000e+00 2.465082e+01
    endloop
  endfacet
  facet normal 5.653080e-01 -1.543547e-16 -8.248799e-01
    outer loop
      vertex -4.371796e-01 -7.000000e+00 2.455112e+01
      vertex -2.408447e-01 -9.500000e+00 2.465082e+01
      vertex -4.371796e-01 -9.500000e+00 2.455112e+01
    endloop
  endfacet
  facet normal 4.440578e-01 -1.364361e-16 -8.959982e-01
    outer loop
      vertex -3.745728e-01 7.000000e+00 2.423447e+01
      vertex -5.574188e-01 9.500000e+00 2.411179e+01
      vertex -3.745728e-01 9.500000e+00 2.423447e+01
    endloop
  endfacet
  facet normal 6.608282e-01 -1.673493e-16 -7.505372e-01
    outer loop
      vertex -5.574188e-01 9.500000e+00 2.411179e+01
      vertex -3.745728e-01 7.000000e+00 2.423447e+01
      vertex -5.574188e-01 7.000000e+00 2.411179e+01
    endloop
  endfacet
  facet normal 5.539283e-01 -5.077510e-17 8.325644e-01
    outer loop
      vertex -4.672546e-01 7.000000e+00 2.277640e+01
      vertex -2.695618e-01 9.500000e+00 2.267938e+01
      vertex -4.672546e-01 9.500000e+00 2.277640e+01
    endloop
  endfacet
  facet normal 3.195701e-01 -6.826021e-19 9.475626e-01
    outer loop
      vertex -2.695618e-01 9.500000e+00 2.267938e+01
      vertex -4.672546e-01 7.000000e+00 2.277640e+01
      vertex -2.695618e-01 7.000000e+00 2.267938e+01
    endloop
  endfacet
  facet normal 3.195701e-01 -6.826021e-19 9.475626e-01
    outer loop
      vertex -2.695618e-01 7.000000e+00 2.267938e+01
      vertex -5.351257e-02 9.500000e+00 2.263684e+01
      vertex -2.695618e-01 9.500000e+00 2.267938e+01
    endloop
  endfacet
  facet normal 6.343377e-02 4.945643e-17 9.979861e-01
    outer loop
      vertex -5.351257e-02 9.500000e+00 2.263684e+01
      vertex -2.695618e-01 7.000000e+00 2.267938e+01
      vertex -5.351257e-02 7.000000e+00 2.263684e+01
    endloop
  endfacet
  facet normal -6.504604e-01 7.297921e-17 -7.595402e-01
    outer loop
      vertex 5.883484e-01 -9.500000e+00 2.449600e+01
      vertex 7.354889e-01 -7.000000e+00 2.433215e+01
      vertex 7.354889e-01 -9.500000e+00 2.433215e+01
    endloop
  endfacet
  facet normal -8.248799e-01 1.169129e-16 -5.653080e-01
    outer loop
      vertex 7.354889e-01 -7.000000e+00 2.433215e+01
      vertex 5.883484e-01 -9.500000e+00 2.449600e+01
      vertex 5.883484e-01 -7.000000e+00 2.449600e+01
    endloop
  endfacet
  facet normal -8.248799e-01 1.169129e-16 -5.653080e-01
    outer loop
      vertex 7.354889e-01 -9.500000e+00 2.433215e+01
      vertex 8.351898e-01 -7.000000e+00 2.413580e+01
      vertex 8.351898e-01 -9.500000e+00 2.413580e+01
    endloop
  endfacet
  facet normal -9.430853e-01 1.528791e-16 -3.325509e-01
    outer loop
      vertex 8.351898e-01 -7.000000e+00 2.413580e+01
      vertex 7.354889e-01 -9.500000e+00 2.433215e+01
      vertex 7.354889e-01 -7.000000e+00 2.433215e+01
    endloop
  endfacet
  facet normal -9.430853e-01 1.528791e-16 -3.325509e-01
    outer loop
      vertex 8.351898e-01 -9.500000e+00 2.413580e+01
      vertex 8.806915e-01 -7.000000e+00 2.392035e+01
      vertex 8.806915e-01 -9.500000e+00 2.392035e+01
    endloop
  endfacet
  facet normal -9.970210e-01 1.784269e-16 -7.713109e-02
    outer loop
      vertex 8.806915e-01 -7.000000e+00 2.392035e+01
      vertex 8.351898e-01 -9.500000e+00 2.413580e+01
      vertex 8.351898e-01 -7.000000e+00 2.413580e+01
    endloop
  endfacet
  facet normal -9.970210e-01 1.784269e-16 -7.713109e-02
    outer loop
      vertex 8.806915e-01 -9.500000e+00 2.392035e+01
      vertex 8.688660e-01 -7.000000e+00 2.370047e+01
      vertex 8.688660e-01 -9.500000e+00 2.370047e+01
    endloop
  endfacet
  facet normal -9.830113e-01 1.918151e-16 1.835451e-01
    outer loop
      vertex 8.688660e-01 -7.000000e+00 2.370047e+01
      vertex 8.806915e-01 -9.500000e+00 2.392035e+01
      vertex 8.806915e-01 -7.000000e+00 2.392035e+01
    endloop
  endfacet
  facet normal -9.830113e-01 1.918151e-16 1.835451e-01
    outer loop
      vertex 8.688660e-01 -9.500000e+00 2.370047e+01
      vertex 8.005524e-01 -7.000000e+00 2.349112e+01
      vertex 8.005524e-01 -9.500000e+00 2.349112e+01
    endloop
  endfacet
  facet normal -9.020110e-01 1.921315e-16 4.317130e-01
    outer loop
      vertex 8.005524e-01 -7.000000e+00 2.349112e+01
      vertex 8.688660e-01 -9.500000e+00 2.370047e+01
      vertex 8.688660e-01 -7.000000e+00 2.370047e+01
    endloop
  endfacet
  facet normal -9.020110e-01 1.921315e-16 4.317130e-01
    outer loop
      vertex 8.005524e-01 -9.500000e+00 2.349112e+01
      vertex 6.803741e-01 -7.000000e+00 2.330661e+01
      vertex 6.803741e-01 -9.500000e+00 2.330661e+01
    endloop
  endfacet
  facet normal -7.595402e-01 1.793545e-16 6.504604e-01
    outer loop
      vertex 6.803741e-01 -7.000000e+00 2.330661e+01
      vertex 8.005524e-01 -9.500000e+00 2.349112e+01
      vertex 8.005524e-01 -7.000000e+00 2.349112e+01
    endloop
  endfacet
  facet normal 9.970210e-01 -1.784269e-16 7.713109e-02
    outer loop
      vertex -8.013458e-01 -7.000000e+00 2.379022e+01
      vertex -7.558441e-01 -9.500000e+00 2.357477e+01
      vertex -7.558441e-01 -7.000000e+00 2.357477e+01
    endloop
  endfacet
  facet normal 9.430853e-01 -1.528791e-16 3.325509e-01
    outer loop
      vertex -7.558441e-01 -9.500000e+00 2.357477e+01
      vertex -8.013458e-01 -7.000000e+00 2.379022e+01
      vertex -8.013458e-01 -9.500000e+00 2.379022e+01
    endloop
  endfacet
  facet normal 9.830113e-01 -1.918151e-16 -1.835451e-01
    outer loop
      vertex -7.895203e-01 -7.000000e+00 2.401013e+01
      vertex -8.013458e-01 -9.500000e+00 2.379022e+01
      vertex -8.013458e-01 -7.000000e+00 2.379022e+01
    endloop
  endfacet
  facet normal 9.970210e-01 -1.784269e-16 7.713109e-02
    outer loop
      vertex -8.013458e-01 -9.500000e+00 2.379022e+01
      vertex -7.895203e-01 -7.000000e+00 2.401013e+01
      vertex -7.895203e-01 -9.500000e+00 2.401013e+01
    endloop
  endfacet
  facet normal 9.020110e-01 -1.921315e-16 -4.317130e-01
    outer loop
      vertex -7.211914e-01 -7.000000e+00 2.421945e+01
      vertex -7.895203e-01 -9.500000e+00 2.401013e+01
      vertex -7.895203e-01 -7.000000e+00 2.401013e+01
    endloop
  endfacet
  facet normal 9.830113e-01 -1.918151e-16 -1.835451e-01
    outer loop
      vertex -7.895203e-01 -9.500000e+00 2.401013e+01
      vertex -7.211914e-01 -7.000000e+00 2.421945e+01
      vertex -7.211914e-01 -9.500000e+00 2.421945e+01
    endloop
  endfacet
  facet normal 7.595402e-01 -1.793545e-16 -6.504604e-01
    outer loop
      vertex -6.010132e-01 -7.000000e+00 2.440399e+01
      vertex -7.211914e-01 -9.500000e+00 2.421945e+01
      vertex -7.211914e-01 -7.000000e+00 2.421945e+01
    endloop
  endfacet
  facet normal 9.020110e-01 -1.921315e-16 -4.317130e-01
    outer loop
      vertex -7.211914e-01 -9.500000e+00 2.421945e+01
      vertex -6.010132e-01 -7.000000e+00 2.440399e+01
      vertex -6.010132e-01 -9.500000e+00 2.440399e+01
    endloop
  endfacet
  facet normal 6.343377e-02 4.945643e-17 9.979861e-01
    outer loop
      vertex -5.351257e-02 7.000000e+00 2.263684e+01
      vertex 1.661987e-01 9.500000e+00 2.265167e+01
      vertex -5.351257e-02 9.500000e+00 2.263684e+01
    endloop
  endfacet
  facet normal -1.970255e-01 9.622508e-17 9.803984e-01
    outer loop
      vertex 1.661987e-01 9.500000e+00 2.265167e+01
      vertex -5.351257e-02 7.000000e+00 2.263684e+01
      vertex 1.661987e-01 7.000000e+00 2.265167e+01
    endloop
  endfacet
endsolid Default
