solid Default
  facet normal -5.000000e-01 8.660254e-01 -1.060575e-16
    outer loop
      vertex 8.516102e+00 1.604462e+00 -5.684342e-14
      vertex 8.998463e+00 1.804291e+00 9.000000e+00
      vertex 8.998463e+00 1.804291e+00 -5.684342e-14
    endloop
  endfacet
  facet normal -2.588190e-01 9.659258e-01 -1.182918e-16
    outer loop
      vertex 8.998463e+00 1.804291e+00 9.000000e+00
      vertex 8.516102e+00 1.604462e+00 -5.684342e-14
      vertex 8.516102e+00 1.604462e+00 9.000000e+00
    endloop
  endfacet
  facet normal 5.000000e-01 -8.660254e-01 1.060575e-16
    outer loop
      vertex 1.051610e+01 -1.859589e+00 9.000000e+00
      vertex 1.093032e+01 -1.541779e+00 -5.684342e-14
      vertex 1.093032e+01 -1.541779e+00 9.000000e+00
    endloop
  endfacet
  facet normal 7.071068e-01 -7.071068e-01 8.659561e-17
    outer loop
      vertex 1.093032e+01 -1.541779e+00 -5.684342e-14
      vertex 1.051610e+01 -1.859589e+00 9.000000e+00
      vertex 1.051610e+01 -1.859589e+00 -5.684342e-14
    endloop
  endfacet
  facet normal 8.660254e-01 -5.000000e-01 6.123234e-17
    outer loop
      vertex 1.124815e+01 -1.127594e+00 9.000000e+00
      vertex 1.093032e+01 -1.541779e+00 -5.684342e-14
      vertex 1.124815e+01 -1.127594e+00 -5.684342e-14
    endloop
  endfacet
  facet normal 7.071068e-01 -7.071068e-01 8.659561e-17
    outer loop
      vertex 1.093032e+01 -1.541779e+00 -5.684342e-14
      vertex 1.124815e+01 -1.127594e+00 9.000000e+00
      vertex 1.093032e+01 -1.541779e+00 9.000000e+00
    endloop
  endfacet
  facet normal 9.659258e-01 -2.588190e-01 3.169619e-17
    outer loop
      vertex 1.144796e+01 -6.451721e-01 9.000000e+00
      vertex 1.124815e+01 -1.127594e+00 -5.684342e-14
      vertex 1.144796e+01 -6.451721e-01 -5.684342e-14
    endloop
  endfacet
  facet normal 8.660254e-01 -5.000000e-01 6.123234e-17
    outer loop
      vertex 1.124815e+01 -1.127594e+00 -5.684342e-14
      vertex 1.144796e+01 -6.451721e-01 9.000000e+00
      vertex 1.124815e+01 -1.127594e+00 9.000000e+00
    endloop
  endfacet
  facet normal 1.000000e+00 1.836970e-16 -2.249640e-32
    outer loop
      vertex 1.151610e+01 -1.275940e-01 9.000000e+00
      vertex 1.144796e+01 -6.451721e-01 -5.684342e-14
      vertex 1.151610e+01 -1.275940e-01 -5.684342e-14
    endloop
  endfacet
  facet normal 9.659258e-01 -2.588190e-01 3.169619e-17
    outer loop
      vertex 1.144796e+01 -6.451721e-01 -5.684342e-14
      vertex 1.151610e+01 -1.275940e-01 9.000000e+00
      vertex 1.144796e+01 -6.451721e-01 9.000000e+00
    endloop
  endfacet
  facet normal 9.659258e-01 2.588190e-01 -3.169619e-17
    outer loop
      vertex 1.144796e+01 3.900452e-01 9.000000e+00
      vertex 1.151610e+01 -1.275940e-01 -5.684342e-14
      vertex 1.144796e+01 3.900452e-01 -5.684342e-14
    endloop
  endfacet
  facet normal 1.000000e+00 1.836970e-16 -2.249640e-32
    outer loop
      vertex 1.151610e+01 -1.275940e-01 -5.684342e-14
      vertex 1.144796e+01 3.900452e-01 9.000000e+00
      vertex 1.151610e+01 -1.275940e-01 9.000000e+00
    endloop
  endfacet
  facet normal 8.660254e-01 5.000000e-01 -6.123234e-17
    outer loop
      vertex 1.124815e+01 8.724060e-01 9.000000e+00
      vertex 1.144796e+01 3.900452e-01 -5.684342e-14
      vertex 1.124815e+01 8.724060e-01 -5.684342e-14
    endloop
  endfacet
  facet normal 9.659258e-01 2.588190e-01 -3.169619e-17
    outer loop
      vertex 1.144796e+01 3.900452e-01 -5.684342e-14
      vertex 1.124815e+01 8.724060e-01 9.000000e+00
      vertex 1.144796e+01 3.900452e-01 9.000000e+00
    endloop
  endfacet
  facet normal 7.071068e-01 7.071068e-01 -8.659561e-17
    outer loop
      vertex 1.093032e+01 1.286652e+00 9.000000e+00
      vertex 1.124815e+01 8.724060e-01 -5.684342e-14
      vertex 1.093032e+01 1.286652e+00 -5.684342e-14
    endloop
  endfacet
  facet normal 8.660254e-01 5.000000e-01 -6.123234e-17
    outer loop
      vertex 1.124815e+01 8.724060e-01 -5.684342e-14
      vertex 1.093032e+01 1.286652e+00 9.000000e+00
      vertex 1.124815e+01 8.724060e-01 9.000000e+00
    endloop
  endfacet
  facet normal 5.000000e-01 8.660254e-01 -1.060575e-16
    outer loop
      vertex 1.051610e+01 1.604462e+00 -5.684342e-14
      vertex 1.093032e+01 1.286652e+00 9.000000e+00
      vertex 1.093032e+01 1.286652e+00 -5.684342e-14
    endloop
  endfacet
  facet normal 7.071068e-01 7.071068e-01 -8.659561e-17
    outer loop
      vertex 1.093032e+01 1.286652e+00 9.000000e+00
      vertex 1.051610e+01 1.604462e+00 -5.684342e-14
      vertex 1.051610e+01 1.604462e+00 9.000000e+00
    endloop
  endfacet
  facet normal 2.588190e-01 9.659258e-01 -1.182918e-16
    outer loop
      vertex 1.003374e+01 1.804291e+00 -5.684342e-14
      vertex 1.051610e+01 1.604462e+00 9.000000e+00
      vertex 1.051610e+01 1.604462e+00 -5.684342e-14
    endloop
  endfacet
  facet normal 5.000000e-01 8.660254e-01 -1.060575e-16
    outer loop
      vertex 1.051610e+01 1.604462e+00 9.000000e+00
      vertex 1.003374e+01 1.804291e+00 -5.684342e-14
      vertex 1.003374e+01 1.804291e+00 9.000000e+00
    endloop
  endfacet
  facet normal -1.836970e-16 1.000000e+00 -1.224647e-16
    outer loop
      vertex 9.516102e+00 1.872406e+00 -5.684342e-14
      vertex 1.003374e+01 1.804291e+00 9.000000e+00
      vertex 1.003374e+01 1.804291e+00 -5.684342e-14
    endloop
  endfacet
  facet normal 2.588190e-01 9.659258e-01 -1.182918e-16
    outer loop
      vertex 1.003374e+01 1.804291e+00 9.000000e+00
      vertex 9.516102e+00 1.872406e+00 -5.684342e-14
      vertex 9.516102e+00 1.872406e+00 9.000000e+00
    endloop
  endfacet
  facet normal -2.588190e-01 9.659258e-01 -1.182918e-16
    outer loop
      vertex 8.998463e+00 1.804291e+00 -5.684342e-14
      vertex 9.516102e+00 1.872406e+00 9.000000e+00
      vertex 9.516102e+00 1.872406e+00 -5.684342e-14
    endloop
  endfacet
  facet normal -1.836970e-16 1.000000e+00 -1.224647e-16
    outer loop
      vertex 9.516102e+00 1.872406e+00 9.000000e+00
      vertex 8.998463e+00 1.804291e+00 -5.684342e-14
      vertex 8.998463e+00 1.804291e+00 9.000000e+00
    endloop
  endfacet
  facet normal -8.747615e-01 -4.845538e-01 5.934073e-17
    outer loop
      vertex -1.735076e+01 -1.096649e+00 9.000000e+00
      vertex -1.754197e+01 -6.108093e-01 -5.684342e-14
      vertex -1.735076e+01 -1.096649e+00 -5.684342e-14
    endloop
  endfacet
  facet normal -9.703664e-01 -2.416381e-01 2.959213e-17
    outer loop
      vertex -1.754197e+01 -6.108093e-01 -5.684342e-14
      vertex -1.735076e+01 -1.096649e+00 9.000000e+00
      vertex -1.754197e+01 -6.108093e-01 9.000000e+00
    endloop
  endfacet
  facet normal 7.195430e-01 6.944479e-01 -8.504534e-17
    outer loop
      vertex -1.416214e+01 1.261322e+00 9.000000e+00
      vertex -1.385171e+01 8.415222e-01 -5.684342e-14
      vertex -1.416214e+01 1.261322e+00 -5.684342e-14
    endloop
  endfacet
  facet normal 8.747615e-01 4.845538e-01 -5.934073e-17
    outer loop
      vertex -1.385171e+01 8.415222e-01 -5.684342e-14
      vertex -1.416214e+01 1.261322e+00 9.000000e+00
      vertex -1.385171e+01 8.415222e-01 9.000000e+00
    endloop
  endfacet
  facet normal 5.152888e-01 8.570166e-01 -1.049543e-16
    outer loop
      vertex -1.457065e+01 1.586456e+00 -5.684342e-14
      vertex -1.416214e+01 1.261322e+00 9.000000e+00
      vertex -1.416214e+01 1.261322e+00 -5.684342e-14
    endloop
  endfacet
  facet normal 7.195430e-01 6.944479e-01 -8.504534e-17
    outer loop
      vertex -1.416214e+01 1.261322e+00 9.000000e+00
      vertex -1.457065e+01 1.586456e+00 -5.684342e-14
      vertex -1.457065e+01 1.586456e+00 9.000000e+00
    endloop
  endfacet
  facet normal 2.759185e-01 9.611810e-01 -1.177107e-16
    outer loop
      vertex -1.504940e+01 1.794769e+00 -5.684342e-14
      vertex -1.457065e+01 1.586456e+00 9.000000e+00
      vertex -1.457065e+01 1.586456e+00 -5.684342e-14
    endloop
  endfacet
  facet normal 5.152888e-01 8.570166e-01 -1.049543e-16
    outer loop
      vertex -1.457065e+01 1.586456e+00 9.000000e+00
      vertex -1.504940e+01 1.794769e+00 -5.684342e-14
      vertex -1.504940e+01 1.794769e+00 9.000000e+00
    endloop
  endfacet
  facet normal 1.774486e-02 9.998425e-01 -1.224454e-16
    outer loop
      vertex -1.556574e+01 1.872101e+00 -5.684342e-14
      vertex -1.504940e+01 1.794769e+00 9.000000e+00
      vertex -1.504940e+01 1.794769e+00 -5.684342e-14
    endloop
  endfacet
  facet normal 2.759185e-01 9.611810e-01 -1.177107e-16
    outer loop
      vertex -1.504940e+01 1.794769e+00 9.000000e+00
      vertex -1.556574e+01 1.872101e+00 -5.684342e-14
      vertex -1.556574e+01 1.872101e+00 9.000000e+00
    endloop
  endfacet
  facet normal -2.416381e-01 9.703664e-01 -1.188356e-16
    outer loop
      vertex -1.608451e+01 1.813141e+00 -5.684342e-14
      vertex -1.556574e+01 1.872101e+00 9.000000e+00
      vertex -1.556574e+01 1.872101e+00 -5.684342e-14
    endloop
  endfacet
  facet normal 1.774486e-02 9.998425e-01 -1.224454e-16
    outer loop
      vertex -1.556574e+01 1.872101e+00 9.000000e+00
      vertex -1.608451e+01 1.813141e+00 -5.684342e-14
      vertex -1.608451e+01 1.813141e+00 9.000000e+00
    endloop
  endfacet
  facet normal -4.845538e-01 8.747615e-01 -1.071274e-16
    outer loop
      vertex -1.657034e+01 1.621979e+00 -5.684342e-14
      vertex -1.608451e+01 1.813141e+00 9.000000e+00
      vertex -1.608451e+01 1.813141e+00 -5.684342e-14
    endloop
  endfacet
  facet normal -2.416381e-01 9.703664e-01 -1.188356e-16
    outer loop
      vertex -1.608451e+01 1.813141e+00 9.000000e+00
      vertex -1.657034e+01 1.621979e+00 -5.684342e-14
      vertex -1.657034e+01 1.621979e+00 9.000000e+00
    endloop
  endfacet
  facet normal -6.944479e-01 7.195430e-01 -8.811860e-17
    outer loop
      vertex -1.699012e+01 1.311493e+00 -5.684342e-14
      vertex -1.657034e+01 1.621979e+00 9.000000e+00
      vertex -1.657034e+01 1.621979e+00 -5.684342e-14
    endloop
  endfacet
  facet normal -4.845538e-01 8.747615e-01 -1.071274e-16
    outer loop
      vertex -1.657034e+01 1.621979e+00 9.000000e+00
      vertex -1.699012e+01 1.311493e+00 -5.684342e-14
      vertex -1.699012e+01 1.311493e+00 9.000000e+00
    endloop
  endfacet
  facet normal -8.570166e-01 5.152888e-01 -6.310468e-17
    outer loop
      vertex -1.731527e+01 9.029846e-01 9.000000e+00
      vertex -1.699012e+01 1.311493e+00 -5.684342e-14
      vertex -1.731527e+01 9.029846e-01 -5.684342e-14
    endloop
  endfacet
  facet normal -6.944479e-01 7.195430e-01 -8.811860e-17
    outer loop
      vertex -1.699012e+01 1.311493e+00 -5.684342e-14
      vertex -1.731527e+01 9.029846e-01 9.000000e+00
      vertex -1.699012e+01 1.311493e+00 9.000000e+00
    endloop
  endfacet
  facet normal -9.611810e-01 2.759185e-01 -3.379027e-17
    outer loop
      vertex -1.752359e+01 4.242859e-01 9.000000e+00
      vertex -1.731527e+01 9.029846e-01 -5.684342e-14
      vertex -1.752359e+01 4.242859e-01 -5.684342e-14
    endloop
  endfacet
  facet normal -8.570166e-01 5.152888e-01 -6.310468e-17
    outer loop
      vertex -1.731527e+01 9.029846e-01 -5.684342e-14
      vertex -1.752359e+01 4.242859e-01 9.000000e+00
      vertex -1.731527e+01 9.029846e-01 9.000000e+00
    endloop
  endfacet
  facet normal -9.998425e-01 1.774486e-02 -2.173119e-18
    outer loop
      vertex -1.760092e+01 -9.207153e-02 9.000000e+00
      vertex -1.752359e+01 4.242859e-01 -5.684342e-14
      vertex -1.760092e+01 -9.207153e-02 -5.684342e-14
    endloop
  endfacet
  facet normal -9.611810e-01 2.759185e-01 -3.379027e-17
    outer loop
      vertex -1.752359e+01 4.242859e-01 -5.684342e-14
      vertex -1.760092e+01 -9.207153e-02 9.000000e+00
      vertex -1.752359e+01 4.242859e-01 9.000000e+00
    endloop
  endfacet
  facet normal -9.703664e-01 -2.416381e-01 2.959213e-17
    outer loop
      vertex -1.754197e+01 -6.108093e-01 9.000000e+00
      vertex -1.760092e+01 -9.207153e-02 -5.684342e-14
      vertex -1.754197e+01 -6.108093e-01 -5.684342e-14
    endloop
  endfacet
  facet normal -9.998425e-01 1.774486e-02 -2.173119e-18
    outer loop
      vertex -1.760092e+01 -9.207153e-02 -5.684342e-14
      vertex -1.754197e+01 -6.108093e-01 9.000000e+00
      vertex -1.760092e+01 -9.207153e-02 9.000000e+00
    endloop
  endfacet
  facet normal 0.000000e+00 -1.224647e-16 -1.000000e+00
    outer loop
      vertex -1.615306e+01 -2.049896e+00 -5.684342e-14
      vertex -1.511795e+01 -2.068268e+00 -5.684342e-14
      vertex -1.563672e+01 -2.127228e+00 -5.684342e-14
    endloop
  endfacet
  facet normal 0.000000e+00 -1.224647e-16 -1.000000e+00
    outer loop
      vertex -1.511795e+01 -2.068268e+00 -5.684342e-14
      vertex -1.615306e+01 -2.049896e+00 -5.684342e-14
      vertex -1.463212e+01 -1.877106e+00 -5.684342e-14
    endloop
  endfacet
  facet normal 0.000000e+00 -1.224647e-16 -1.000000e+00
    outer loop
      vertex -1.463212e+01 -1.877106e+00 -5.684342e-14
      vertex -1.615306e+01 -2.049896e+00 -5.684342e-14
      vertex -1.663181e+01 -1.841583e+00 -5.684342e-14
    endloop
  endfacet
  facet normal 0.000000e+00 -1.224647e-16 -1.000000e+00
    outer loop
      vertex -1.463212e+01 -1.877106e+00 -5.684342e-14
      vertex -1.663181e+01 -1.841583e+00 -5.684342e-14
      vertex -1.421234e+01 -1.566620e+00 -5.684342e-14
    endloop
  endfacet
  facet normal 0.000000e+00 -1.224647e-16 -1.000000e+00
    outer loop
      vertex -1.421234e+01 -1.566620e+00 -5.684342e-14
      vertex -1.663181e+01 -1.841583e+00 -5.684342e-14
      vertex -1.704032e+01 -1.516449e+00 -5.684342e-14
    endloop
  endfacet
  facet normal 0.000000e+00 -1.224647e-16 -1.000000e+00
    outer loop
      vertex -1.421234e+01 -1.566620e+00 -5.684342e-14
      vertex -1.704032e+01 -1.516449e+00 -5.684342e-14
      vertex -1.388720e+01 -1.158112e+00 -5.684342e-14
    endloop
  endfacet
  facet normal 0.000000e+00 -1.224647e-16 -1.000000e+00
    outer loop
      vertex -1.388720e+01 -1.158112e+00 -5.684342e-14
      vertex -1.704032e+01 -1.516449e+00 -5.684342e-14
      vertex -1.735076e+01 -1.096649e+00 -5.684342e-14
    endloop
  endfacet
  facet normal 0.000000e+00 -1.224647e-16 -1.000000e+00
    outer loop
      vertex -1.388720e+01 -1.158112e+00 -5.684342e-14
      vertex -1.735076e+01 -1.096649e+00 -5.684342e-14
      vertex -1.367887e+01 -6.794128e-01 -5.684342e-14
    endloop
  endfacet
  facet normal 0.000000e+00 -1.224647e-16 -1.000000e+00
    outer loop
      vertex -1.367887e+01 -6.794128e-01 -5.684342e-14
      vertex -1.735076e+01 -1.096649e+00 -5.684342e-14
      vertex -1.754197e+01 -6.108093e-01 -5.684342e-14
    endloop
  endfacet
  facet normal 0.000000e+00 -1.224647e-16 -1.000000e+00
    outer loop
      vertex -1.367887e+01 -6.794128e-01 -5.684342e-14
      vertex -1.754197e+01 -6.108093e-01 -5.684342e-14
      vertex -1.360154e+01 -1.630554e-01 -5.684342e-14
    endloop
  endfacet
  facet normal 0.000000e+00 -1.224647e-16 -1.000000e+00
    outer loop
      vertex -1.360154e+01 -1.630554e-01 -5.684342e-14
      vertex -1.754197e+01 -6.108093e-01 -5.684342e-14
      vertex -1.760092e+01 -9.207153e-02 -5.684342e-14
    endloop
  endfacet
  facet normal 0.000000e+00 -1.224647e-16 -1.000000e+00
    outer loop
      vertex -1.360154e+01 -1.630554e-01 -5.684342e-14
      vertex -1.760092e+01 -9.207153e-02 -5.684342e-14
      vertex -1.366050e+01 3.556824e-01 -5.684342e-14
    endloop
  endfacet
  facet normal 0.000000e+00 -1.224647e-16 -1.000000e+00
    outer loop
      vertex -1.366050e+01 3.556824e-01 -5.684342e-14
      vertex -1.760092e+01 -9.207153e-02 -5.684342e-14
      vertex -1.752359e+01 4.242859e-01 -5.684342e-14
    endloop
  endfacet
  facet normal 0.000000e+00 -1.224647e-16 -1.000000e+00
    outer loop
      vertex -1.366050e+01 3.556824e-01 -5.684342e-14
      vertex -1.752359e+01 4.242859e-01 -5.684342e-14
      vertex -1.385171e+01 8.415222e-01 -5.684342e-14
    endloop
  endfacet
  facet normal 0.000000e+00 -1.224647e-16 -1.000000e+00
    outer loop
      vertex -1.385171e+01 8.415222e-01 -5.684342e-14
      vertex -1.752359e+01 4.242859e-01 -5.684342e-14
      vertex -1.731527e+01 9.029846e-01 -5.684342e-14
    endloop
  endfacet
  facet normal 0.000000e+00 -1.224647e-16 -1.000000e+00
    outer loop
      vertex -1.385171e+01 8.415222e-01 -5.684342e-14
      vertex -1.731527e+01 9.029846e-01 -5.684342e-14
      vertex -1.416214e+01 1.261322e+00 -5.684342e-14
    endloop
  endfacet
  facet normal 0.000000e+00 -1.224647e-16 -1.000000e+00
    outer loop
      vertex -1.416214e+01 1.261322e+00 -5.684342e-14
      vertex -1.731527e+01 9.029846e-01 -5.684342e-14
      vertex -1.699012e+01 1.311493e+00 -5.684342e-14
    endloop
  endfacet
  facet normal 0.000000e+00 -1.224647e-16 -1.000000e+00
    outer loop
      vertex -1.416214e+01 1.261322e+00 -5.684342e-14
      vertex -1.699012e+01 1.311493e+00 -5.684342e-14
      vertex -1.457065e+01 1.586456e+00 -5.684342e-14
    endloop
  endfacet
  facet normal 0.000000e+00 -1.224647e-16 -1.000000e+00
    outer loop
      vertex -1.457065e+01 1.586456e+00 -5.684342e-14
      vertex -1.699012e+01 1.311493e+00 -5.684342e-14
      vertex -1.657034e+01 1.621979e+00 -5.684342e-14
    endloop
  endfacet
  facet normal 0.000000e+00 -1.224647e-16 -1.000000e+00
    outer loop
      vertex -1.457065e+01 1.586456e+00 -5.684342e-14
      vertex -1.657034e+01 1.621979e+00 -5.684342e-14
      vertex -1.504940e+01 1.794769e+00 -5.684342e-14
    endloop
  endfacet
  facet normal 0.000000e+00 -1.224647e-16 -1.000000e+00
    outer loop
      vertex -1.504940e+01 1.794769e+00 -5.684342e-14
      vertex -1.657034e+01 1.621979e+00 -5.684342e-14
      vertex -1.608451e+01 1.813141e+00 -5.684342e-14
    endloop
  endfacet
  facet normal 0.000000e+00 -1.224647e-16 -1.000000e+00
    outer loop
      vertex -1.504940e+01 1.794769e+00 -5.684342e-14
      vertex -1.608451e+01 1.813141e+00 -5.684342e-14
      vertex -1.556574e+01 1.872101e+00 -5.684342e-14
    endloop
  endfacet
  facet normal -7.195430e-01 -6.944479e-01 8.504534e-17
    outer loop
      vertex -1.704032e+01 -1.516449e+00 9.000000e+00
      vertex -1.735076e+01 -1.096649e+00 -5.684342e-14
      vertex -1.704032e+01 -1.516449e+00 -5.684342e-14
    endloop
  endfacet
  facet normal -8.747615e-01 -4.845538e-01 5.934073e-17
    outer loop
      vertex -1.735076e+01 -1.096649e+00 -5.684342e-14
      vertex -1.704032e+01 -1.516449e+00 9.000000e+00
      vertex -1.735076e+01 -1.096649e+00 9.000000e+00
    endloop
  endfacet
  facet normal -7.195430e-01 -6.944479e-01 8.504534e-17
    outer loop
      vertex -1.704032e+01 -1.516449e+00 9.000000e+00
      vertex -1.663181e+01 -1.841583e+00 -5.684342e-14
      vertex -1.663181e+01 -1.841583e+00 9.000000e+00
    endloop
  endfacet
  facet normal -5.152888e-01 -8.570166e-01 1.049543e-16
    outer loop
      vertex -1.663181e+01 -1.841583e+00 -5.684342e-14
      vertex -1.704032e+01 -1.516449e+00 9.000000e+00
      vertex -1.704032e+01 -1.516449e+00 -5.684342e-14
    endloop
  endfacet
  facet normal -5.152888e-01 -8.570166e-01 1.049543e-16
    outer loop
      vertex -1.663181e+01 -1.841583e+00 9.000000e+00
      vertex -1.615306e+01 -2.049896e+00 -5.684342e-14
      vertex -1.615306e+01 -2.049896e+00 9.000000e+00
    endloop
  endfacet
  facet normal -2.759185e-01 -9.611810e-01 1.177107e-16
    outer loop
      vertex -1.615306e+01 -2.049896e+00 -5.684342e-14
      vertex -1.663181e+01 -1.841583e+00 9.000000e+00
      vertex -1.663181e+01 -1.841583e+00 -5.684342e-14
    endloop
  endfacet
  facet normal -2.759185e-01 -9.611810e-01 1.177107e-16
    outer loop
      vertex -1.615306e+01 -2.049896e+00 9.000000e+00
      vertex -1.563672e+01 -2.127228e+00 -5.684342e-14
      vertex -1.563672e+01 -2.127228e+00 9.000000e+00
    endloop
  endfacet
  facet normal -1.774486e-02 -9.998425e-01 1.224454e-16
    outer loop
      vertex -1.563672e+01 -2.127228e+00 -5.684342e-14
      vertex -1.615306e+01 -2.049896e+00 9.000000e+00
      vertex -1.615306e+01 -2.049896e+00 -5.684342e-14
    endloop
  endfacet
  facet normal -1.774486e-02 -9.998425e-01 1.224454e-16
    outer loop
      vertex -1.563672e+01 -2.127228e+00 9.000000e+00
      vertex -1.511795e+01 -2.068268e+00 -5.684342e-14
      vertex -1.511795e+01 -2.068268e+00 9.000000e+00
    endloop
  endfacet
  facet normal 2.416381e-01 -9.703664e-01 1.188356e-16
    outer loop
      vertex -1.511795e+01 -2.068268e+00 -5.684342e-14
      vertex -1.563672e+01 -2.127228e+00 9.000000e+00
      vertex -1.563672e+01 -2.127228e+00 -5.684342e-14
    endloop
  endfacet
  facet normal 2.416381e-01 -9.703664e-01 1.188356e-16
    outer loop
      vertex -1.511795e+01 -2.068268e+00 9.000000e+00
      vertex -1.463212e+01 -1.877106e+00 -5.684342e-14
      vertex -1.463212e+01 -1.877106e+00 9.000000e+00
    endloop
  endfacet
  facet normal 4.845538e-01 -8.747615e-01 1.071274e-16
    outer loop
      vertex -1.463212e+01 -1.877106e+00 -5.684342e-14
      vertex -1.511795e+01 -2.068268e+00 9.000000e+00
      vertex -1.511795e+01 -2.068268e+00 -5.684342e-14
    endloop
  endfacet
  facet normal 4.845538e-01 -8.747615e-01 1.071274e-16
    outer loop
      vertex -1.463212e+01 -1.877106e+00 9.000000e+00
      vertex -1.421234e+01 -1.566620e+00 -5.684342e-14
      vertex -1.421234e+01 -1.566620e+00 9.000000e+00
    endloop
  endfacet
  facet normal 6.944479e-01 -7.195430e-01 8.811860e-17
    outer loop
      vertex -1.421234e+01 -1.566620e+00 -5.684342e-14
      vertex -1.463212e+01 -1.877106e+00 9.000000e+00
      vertex -1.463212e+01 -1.877106e+00 -5.684342e-14
    endloop
  endfacet
  facet normal 8.570166e-01 -5.152888e-01 6.310468e-17
    outer loop
      vertex -1.388720e+01 -1.158112e+00 9.000000e+00
      vertex -1.421234e+01 -1.566620e+00 -5.684342e-14
      vertex -1.388720e+01 -1.158112e+00 -5.684342e-14
    endloop
  endfacet
  facet normal 6.944479e-01 -7.195430e-01 8.811860e-17
    outer loop
      vertex -1.421234e+01 -1.566620e+00 -5.684342e-14
      vertex -1.388720e+01 -1.158112e+00 9.000000e+00
      vertex -1.421234e+01 -1.566620e+00 9.000000e+00
    endloop
  endfacet
  facet normal 9.611810e-01 -2.759185e-01 3.379027e-17
    outer loop
      vertex -1.367887e+01 -6.794128e-01 9.000000e+00
      vertex -1.388720e+01 -1.158112e+00 -5.684342e-14
      vertex -1.367887e+01 -6.794128e-01 -5.684342e-14
    endloop
  endfacet
  facet normal 8.570166e-01 -5.152888e-01 6.310468e-17
    outer loop
      vertex -1.388720e+01 -1.158112e+00 -5.684342e-14
      vertex -1.367887e+01 -6.794128e-01 9.000000e+00
      vertex -1.388720e+01 -1.158112e+00 9.000000e+00
    endloop
  endfacet
  facet normal 9.998425e-01 -1.774486e-02 2.173119e-18
    outer loop
      vertex -1.360154e+01 -1.630554e-01 9.000000e+00
      vertex -1.367887e+01 -6.794128e-01 -5.684342e-14
      vertex -1.360154e+01 -1.630554e-01 -5.684342e-14
    endloop
  endfacet
  facet normal 9.611810e-01 -2.759185e-01 3.379027e-17
    outer loop
      vertex -1.367887e+01 -6.794128e-01 -5.684342e-14
      vertex -1.360154e+01 -1.630554e-01 9.000000e+00
      vertex -1.367887e+01 -6.794128e-01 9.000000e+00
    endloop
  endfacet
  facet normal 0.000000e+00 -1.224647e-16 -1.000000e+00
    outer loop
      vertex 8.998463e+00 -2.059418e+00 -5.684342e-14
      vertex 1.003374e+01 -2.059418e+00 -5.684342e-14
      vertex 9.516102e+00 -2.127594e+00 -5.684342e-14
    endloop
  endfacet
  facet normal 0.000000e+00 -1.224647e-16 -1.000000e+00
    outer loop
      vertex 1.003374e+01 -2.059418e+00 -5.684342e-14
      vertex 8.998463e+00 -2.059418e+00 -5.684342e-14
      vertex 8.516102e+00 -1.859589e+00 -5.684342e-14
    endloop
  endfacet
  facet normal 0.000000e+00 -1.224647e-16 -1.000000e+00
    outer loop
      vertex 1.003374e+01 -2.059418e+00 -5.684342e-14
      vertex 8.516102e+00 -1.859589e+00 -5.684342e-14
      vertex 1.051610e+01 -1.859589e+00 -5.684342e-14
    endloop
  endfacet
  facet normal 0.000000e+00 -1.224647e-16 -1.000000e+00
    outer loop
      vertex 1.051610e+01 -1.859589e+00 -5.684342e-14
      vertex 8.516102e+00 -1.859589e+00 -5.684342e-14
      vertex 8.101887e+00 -1.541779e+00 -5.684342e-14
    endloop
  endfacet
  facet normal 0.000000e+00 -1.224647e-16 -1.000000e+00
    outer loop
      vertex 1.051610e+01 -1.859589e+00 -5.684342e-14
      vertex 8.101887e+00 -1.541779e+00 -5.684342e-14
      vertex 1.093032e+01 -1.541779e+00 -5.684342e-14
    endloop
  endfacet
  facet normal 0.000000e+00 -1.224647e-16 -1.000000e+00
    outer loop
      vertex 1.093032e+01 -1.541779e+00 -5.684342e-14
      vertex 8.101887e+00 -1.541779e+00 -5.684342e-14
      vertex 7.784054e+00 -1.127594e+00 -5.684342e-14
    endloop
  endfacet
  facet normal 0.000000e+00 -1.224647e-16 -1.000000e+00
    outer loop
      vertex 1.093032e+01 -1.541779e+00 -5.684342e-14
      vertex 7.784054e+00 -1.127594e+00 -5.684342e-14
      vertex 1.124815e+01 -1.127594e+00 -5.684342e-14
    endloop
  endfacet
  facet normal 0.000000e+00 -1.224647e-16 -1.000000e+00
    outer loop
      vertex 1.124815e+01 -1.127594e+00 -5.684342e-14
      vertex 7.784054e+00 -1.127594e+00 -5.684342e-14
      vertex 1.144796e+01 -6.451721e-01 -5.684342e-14
    endloop
  endfacet
  facet normal 0.000000e+00 -1.224647e-16 -1.000000e+00
    outer loop
      vertex 1.144796e+01 -6.451721e-01 -5.684342e-14
      vertex 7.784054e+00 -1.127594e+00 -5.684342e-14
      vertex 7.584248e+00 -6.451721e-01 -5.684342e-14
    endloop
  endfacet
  facet normal 0.000000e+00 -1.224647e-16 -1.000000e+00
    outer loop
      vertex 1.144796e+01 -6.451721e-01 -5.684342e-14
      vertex 7.584248e+00 -6.451721e-01 -5.684342e-14
      vertex 7.516102e+00 -1.275940e-01 -5.684342e-14
    endloop
  endfacet
  facet normal 0.000000e+00 -1.224647e-16 -1.000000e+00
    outer loop
      vertex 1.144796e+01 -6.451721e-01 -5.684342e-14
      vertex 7.516102e+00 -1.275940e-01 -5.684342e-14
      vertex 1.151610e+01 -1.275940e-01 -5.684342e-14
    endloop
  endfacet
  facet normal 0.000000e+00 -1.224647e-16 -1.000000e+00
    outer loop
      vertex 1.151610e+01 -1.275940e-01 -5.684342e-14
      vertex 7.516102e+00 -1.275940e-01 -5.684342e-14
      vertex 7.584248e+00 3.900452e-01 -5.684342e-14
    endloop
  endfacet
  facet normal 0.000000e+00 -1.224647e-16 -1.000000e+00
    outer loop
      vertex 1.151610e+01 -1.275940e-01 -5.684342e-14
      vertex 7.584248e+00 3.900452e-01 -5.684342e-14
      vertex 1.144796e+01 3.900452e-01 -5.684342e-14
    endloop
  endfacet
  facet normal 0.000000e+00 -1.224647e-16 -1.000000e+00
    outer loop
      vertex 1.144796e+01 3.900452e-01 -5.684342e-14
      vertex 7.584248e+00 3.900452e-01 -5.684342e-14
      vertex 7.784054e+00 8.724060e-01 -5.684342e-14
    endloop
  endfacet
  facet normal 0.000000e+00 -1.224647e-16 -1.000000e+00
    outer loop
      vertex 1.144796e+01 3.900452e-01 -5.684342e-14
      vertex 7.784054e+00 8.724060e-01 -5.684342e-14
      vertex 1.124815e+01 8.724060e-01 -5.684342e-14
    endloop
  endfacet
  facet normal 0.000000e+00 -1.224647e-16 -1.000000e+00
    outer loop
      vertex 1.124815e+01 8.724060e-01 -5.684342e-14
      vertex 7.784054e+00 8.724060e-01 -5.684342e-14
      vertex 1.093032e+01 1.286652e+00 -5.684342e-14
    endloop
  endfacet
  facet normal 0.000000e+00 -1.224647e-16 -1.000000e+00
    outer loop
      vertex 1.093032e+01 1.286652e+00 -5.684342e-14
      vertex 7.784054e+00 8.724060e-01 -5.684342e-14
      vertex 8.101887e+00 1.286652e+00 -5.684342e-14
    endloop
  endfacet
  facet normal 0.000000e+00 -1.224647e-16 -1.000000e+00
    outer loop
      vertex 1.093032e+01 1.286652e+00 -5.684342e-14
      vertex 8.101887e+00 1.286652e+00 -5.684342e-14
      vertex 8.516102e+00 1.604462e+00 -5.684342e-14
    endloop
  endfacet
  facet normal 0.000000e+00 -1.224647e-16 -1.000000e+00
    outer loop
      vertex 1.093032e+01 1.286652e+00 -5.684342e-14
      vertex 8.516102e+00 1.604462e+00 -5.684342e-14
      vertex 1.051610e+01 1.604462e+00 -5.684342e-14
    endloop
  endfacet
  facet normal 0.000000e+00 -1.224647e-16 -1.000000e+00
    outer loop
      vertex 1.051610e+01 1.604462e+00 -5.684342e-14
      vertex 8.516102e+00 1.604462e+00 -5.684342e-14
      vertex 8.998463e+00 1.804291e+00 -5.684342e-14
    endloop
  endfacet
  facet normal 0.000000e+00 -1.224647e-16 -1.000000e+00
    outer loop
      vertex 1.051610e+01 1.604462e+00 -5.684342e-14
      vertex 8.998463e+00 1.804291e+00 -5.684342e-14
      vertex 1.003374e+01 1.804291e+00 -5.684342e-14
    endloop
  endfacet
  facet normal 0.000000e+00 -1.224647e-16 -1.000000e+00
    outer loop
      vertex 1.003374e+01 1.804291e+00 -5.684342e-14
      vertex 8.998463e+00 1.804291e+00 -5.684342e-14
      vertex 9.516102e+00 1.872406e+00 -5.684342e-14
    endloop
  endfacet
  facet normal 9.703664e-01 2.416381e-01 -2.959213e-17
    outer loop
      vertex -1.366050e+01 3.556824e-01 9.000000e+00
      vertex -1.360154e+01 -1.630554e-01 -5.684342e-14
      vertex -1.366050e+01 3.556824e-01 -5.684342e-14
    endloop
  endfacet
  facet normal 9.998425e-01 -1.774486e-02 2.173119e-18
    outer loop
      vertex -1.360154e+01 -1.630554e-01 -5.684342e-14
      vertex -1.366050e+01 3.556824e-01 9.000000e+00
      vertex -1.360154e+01 -1.630554e-01 9.000000e+00
    endloop
  endfacet
  facet normal 8.747615e-01 4.845538e-01 -5.934073e-17
    outer loop
      vertex -1.385171e+01 8.415222e-01 9.000000e+00
      vertex -1.366050e+01 3.556824e-01 -5.684342e-14
      vertex -1.385171e+01 8.415222e-01 -5.684342e-14
    endloop
  endfacet
  facet normal 9.703664e-01 2.416381e-01 -2.959213e-17
    outer loop
      vertex -1.366050e+01 3.556824e-01 -5.684342e-14
      vertex -1.385171e+01 8.415222e-01 9.000000e+00
      vertex -1.366050e+01 3.556824e-01 9.000000e+00
    endloop
  endfacet
  facet normal -7.071068e-01 7.071068e-01 -8.659561e-17
    outer loop
      vertex 8.101887e+00 1.286652e+00 -5.684342e-14
      vertex 8.516102e+00 1.604462e+00 9.000000e+00
      vertex 8.516102e+00 1.604462e+00 -5.684342e-14
    endloop
  endfacet
  facet normal -5.000000e-01 8.660254e-01 -1.060575e-16
    outer loop
      vertex 8.516102e+00 1.604462e+00 9.000000e+00
      vertex 8.101887e+00 1.286652e+00 -5.684342e-14
      vertex 8.101887e+00 1.286652e+00 9.000000e+00
    endloop
  endfacet
  facet normal -8.660254e-01 5.000000e-01 -6.123234e-17
    outer loop
      vertex 7.784054e+00 8.724060e-01 9.000000e+00
      vertex 8.101887e+00 1.286652e+00 -5.684342e-14
      vertex 7.784054e+00 8.724060e-01 -5.684342e-14
    endloop
  endfacet
  facet normal -7.071068e-01 7.071068e-01 -8.659561e-17
    outer loop
      vertex 8.101887e+00 1.286652e+00 -5.684342e-14
      vertex 7.784054e+00 8.724060e-01 9.000000e+00
      vertex 8.101887e+00 1.286652e+00 9.000000e+00
    endloop
  endfacet
  facet normal -9.659258e-01 2.588190e-01 -3.169619e-17
    outer loop
      vertex 7.584248e+00 3.900452e-01 9.000000e+00
      vertex 7.784054e+00 8.724060e-01 -5.684342e-14
      vertex 7.584248e+00 3.900452e-01 -5.684342e-14
    endloop
  endfacet
  facet normal -8.660254e-01 5.000000e-01 -6.123234e-17
    outer loop
      vertex 7.784054e+00 8.724060e-01 -5.684342e-14
      vertex 7.584248e+00 3.900452e-01 9.000000e+00
      vertex 7.784054e+00 8.724060e-01 9.000000e+00
    endloop
  endfacet
  facet normal -1.000000e+00 -1.836970e-16 2.249640e-32
    outer loop
      vertex 7.516102e+00 -1.275940e-01 9.000000e+00
      vertex 7.584248e+00 3.900452e-01 -5.684342e-14
      vertex 7.516102e+00 -1.275940e-01 -5.684342e-14
    endloop
  endfacet
  facet normal -9.659258e-01 2.588190e-01 -3.169619e-17
    outer loop
      vertex 7.584248e+00 3.900452e-01 -5.684342e-14
      vertex 7.516102e+00 -1.275940e-01 9.000000e+00
      vertex 7.584248e+00 3.900452e-01 9.000000e+00
    endloop
  endfacet
  facet normal -9.659258e-01 -2.588190e-01 3.169619e-17
    outer loop
      vertex 7.584248e+00 -6.451721e-01 9.000000e+00
      vertex 7.516102e+00 -1.275940e-01 -5.684342e-14
      vertex 7.584248e+00 -6.451721e-01 -5.684342e-14
    endloop
  endfacet
  facet normal -1.000000e+00 -1.836970e-16 2.249640e-32
    outer loop
      vertex 7.516102e+00 -1.275940e-01 -5.684342e-14
      vertex 7.584248e+00 -6.451721e-01 9.000000e+00
      vertex 7.516102e+00 -1.275940e-01 9.000000e+00
    endloop
  endfacet
  facet normal -8.660254e-01 -5.000000e-01 6.123234e-17
    outer loop
      vertex 7.784054e+00 -1.127594e+00 9.000000e+00
      vertex 7.584248e+00 -6.451721e-01 -5.684342e-14
      vertex 7.784054e+00 -1.127594e+00 -5.684342e-14
    endloop
  endfacet
  facet normal -9.659258e-01 -2.588190e-01 3.169619e-17
    outer loop
      vertex 7.584248e+00 -6.451721e-01 -5.684342e-14
      vertex 7.784054e+00 -1.127594e+00 9.000000e+00
      vertex 7.584248e+00 -6.451721e-01 9.000000e+00
    endloop
  endfacet
  facet normal -7.071068e-01 -7.071068e-01 8.659561e-17
    outer loop
      vertex 8.101887e+00 -1.541779e+00 9.000000e+00
      vertex 7.784054e+00 -1.127594e+00 -5.684342e-14
      vertex 8.101887e+00 -1.541779e+00 -5.684342e-14
    endloop
  endfacet
  facet normal -8.660254e-01 -5.000000e-01 6.123234e-17
    outer loop
      vertex 7.784054e+00 -1.127594e+00 -5.684342e-14
      vertex 8.101887e+00 -1.541779e+00 9.000000e+00
      vertex 7.784054e+00 -1.127594e+00 9.000000e+00
    endloop
  endfacet
  facet normal -7.071068e-01 -7.071068e-01 8.659561e-17
    outer loop
      vertex 8.101887e+00 -1.541779e+00 9.000000e+00
      vertex 8.516102e+00 -1.859589e+00 -5.684342e-14
      vertex 8.516102e+00 -1.859589e+00 9.000000e+00
    endloop
  endfacet
  facet normal -5.000000e-01 -8.660254e-01 1.060575e-16
    outer loop
      vertex 8.516102e+00 -1.859589e+00 -5.684342e-14
      vertex 8.101887e+00 -1.541779e+00 9.000000e+00
      vertex 8.101887e+00 -1.541779e+00 -5.684342e-14
    endloop
  endfacet
  facet normal -5.000000e-01 -8.660254e-01 1.060575e-16
    outer loop
      vertex 8.516102e+00 -1.859589e+00 9.000000e+00
      vertex 8.998463e+00 -2.059418e+00 -5.684342e-14
      vertex 8.998463e+00 -2.059418e+00 9.000000e+00
    endloop
  endfacet
  facet normal -2.588190e-01 -9.659258e-01 1.182918e-16
    outer loop
      vertex 8.998463e+00 -2.059418e+00 -5.684342e-14
      vertex 8.516102e+00 -1.859589e+00 9.000000e+00
      vertex 8.516102e+00 -1.859589e+00 -5.684342e-14
    endloop
  endfacet
  facet normal -2.588190e-01 -9.659258e-01 1.182918e-16
    outer loop
      vertex 8.998463e+00 -2.059418e+00 9.000000e+00
      vertex 9.516102e+00 -2.127594e+00 -5.684342e-14
      vertex 9.516102e+00 -2.127594e+00 9.000000e+00
    endloop
  endfacet
  facet normal 1.600563e-15 -1.000000e+00 1.224647e-16
    outer loop
      vertex 9.516102e+00 -2.127594e+00 -5.684342e-14
      vertex 8.998463e+00 -2.059418e+00 9.000000e+00
      vertex 8.998463e+00 -2.059418e+00 -5.684342e-14
    endloop
  endfacet
  facet normal 1.600563e-15 -1.000000e+00 1.224647e-16
    outer loop
      vertex 9.516102e+00 -2.127594e+00 9.000000e+00
      vertex 1.003374e+01 -2.059418e+00 -5.684342e-14
      vertex 1.003374e+01 -2.059418e+00 9.000000e+00
    endloop
  endfacet
  facet normal 2.588190e-01 -9.659258e-01 1.182918e-16
    outer loop
      vertex 1.003374e+01 -2.059418e+00 -5.684342e-14
      vertex 9.516102e+00 -2.127594e+00 9.000000e+00
      vertex 9.516102e+00 -2.127594e+00 -5.684342e-14
    endloop
  endfacet
  facet normal 2.588190e-01 -9.659258e-01 1.182918e-16
    outer loop
      vertex 1.003374e+01 -2.059418e+00 9.000000e+00
      vertex 1.051610e+01 -1.859589e+00 -5.684342e-14
      vertex 1.051610e+01 -1.859589e+00 9.000000e+00
    endloop
  endfacet
  facet normal 5.000000e-01 -8.660254e-01 1.060575e-16
    outer loop
      vertex 1.051610e+01 -1.859589e+00 -5.684342e-14
      vertex 1.003374e+01 -2.059418e+00 9.000000e+00
      vertex 1.003374e+01 -2.059418e+00 -5.684342e-14
    endloop
  endfacet
  facet normal 1.000000e+00 1.836970e-16 -2.249640e-32
    outer loop
      vertex 2.477523e+01 -1.039999e+01 1.000000e+01
      vertex 2.477523e+01 -1.039999e+01 9.000000e+00
      vertex 2.477523e+01 1.020004e+01 1.000000e+01
    endloop
  endfacet
  facet normal 1.000000e+00 1.836970e-16 -2.249640e-32
    outer loop
      vertex 2.477523e+01 1.039999e+01 1.000000e+01
      vertex 2.477523e+01 -1.039999e+01 9.000000e+00
      vertex 2.477523e+01 1.039999e+01 9.000000e+00
    endloop
  endfacet
  facet normal 1.000000e+00 1.836970e-16 -2.249640e-32
    outer loop
      vertex 2.477523e+01 -1.039999e+01 9.000000e+00
      vertex 2.477523e+01 1.039999e+01 1.000000e+01
      vertex 2.477523e+01 1.020004e+01 1.000000e+01
    endloop
  endfacet
  facet normal 0.000000e+00 -1.224647e-16 -1.000000e+00
    outer loop
      vertex -2.479914e+01 -5.627594e+00 9.000000e+00
      vertex -1.563672e+01 -2.127228e+00 9.000000e+00
      vertex 9.516102e+00 -2.127594e+00 9.000000e+00
    endloop
  endfacet
  facet normal 0.000000e+00 -1.224647e-16 -1.000000e+00
    outer loop
      vertex -1.563672e+01 -2.127228e+00 9.000000e+00
      vertex -2.479914e+01 -5.627594e+00 9.000000e+00
      vertex -1.615306e+01 -2.049896e+00 9.000000e+00
    endloop
  endfacet
  facet normal 0.000000e+00 -1.224647e-16 -1.000000e+00
    outer loop
      vertex -1.615306e+01 -2.049896e+00 9.000000e+00
      vertex -2.479914e+01 -5.627594e+00 9.000000e+00
      vertex -1.663181e+01 -1.841583e+00 9.000000e+00
    endloop
  endfacet
  facet normal 0.000000e+00 -1.224647e-16 -1.000000e+00
    outer loop
      vertex -1.663181e+01 -1.841583e+00 9.000000e+00
      vertex -2.479914e+01 -5.627594e+00 9.000000e+00
      vertex -1.704032e+01 -1.516449e+00 9.000000e+00
    endloop
  endfacet
  facet normal 0.000000e+00 -1.224647e-16 -1.000000e+00
    outer loop
      vertex -1.704032e+01 -1.516449e+00 9.000000e+00
      vertex -2.479914e+01 -5.627594e+00 9.000000e+00
      vertex -2.479914e+01 5.372467e+00 9.000000e+00
    endloop
  endfacet
  facet normal 0.000000e+00 -1.224647e-16 -1.000000e+00
    outer loop
      vertex -1.704032e+01 -1.516449e+00 9.000000e+00
      vertex -2.479914e+01 5.372467e+00 9.000000e+00
      vertex -1.735076e+01 -1.096649e+00 9.000000e+00
    endloop
  endfacet
  facet normal 0.000000e+00 -1.224647e-16 -1.000000e+00
    outer loop
      vertex -1.735076e+01 -1.096649e+00 9.000000e+00
      vertex -2.479914e+01 5.372467e+00 9.000000e+00
      vertex -1.754197e+01 -6.108093e-01 9.000000e+00
    endloop
  endfacet
  facet normal 0.000000e+00 -1.224647e-16 -1.000000e+00
    outer loop
      vertex -1.754197e+01 -6.108093e-01 9.000000e+00
      vertex -2.479914e+01 5.372467e+00 9.000000e+00
      vertex -1.760092e+01 -9.207153e-02 9.000000e+00
    endloop
  endfacet
  facet normal 0.000000e+00 -1.224647e-16 -1.000000e+00
    outer loop
      vertex -1.760092e+01 -9.207153e-02 9.000000e+00
      vertex -2.479914e+01 5.372467e+00 9.000000e+00
      vertex -1.752359e+01 4.242859e-01 9.000000e+00
    endloop
  endfacet
  facet normal 0.000000e+00 -1.224647e-16 -1.000000e+00
    outer loop
      vertex -1.752359e+01 4.242859e-01 9.000000e+00
      vertex -2.479914e+01 5.372467e+00 9.000000e+00
      vertex -1.731527e+01 9.029846e-01 9.000000e+00
    endloop
  endfacet
  facet normal 0.000000e+00 -1.224647e-16 -1.000000e+00
    outer loop
      vertex -1.731527e+01 9.029846e-01 9.000000e+00
      vertex -2.479914e+01 5.372467e+00 9.000000e+00
      vertex -1.699012e+01 1.311493e+00 9.000000e+00
    endloop
  endfacet
  facet normal 0.000000e+00 -1.224647e-16 -1.000000e+00
    outer loop
      vertex -1.699012e+01 1.311493e+00 9.000000e+00
      vertex -2.479914e+01 5.372467e+00 9.000000e+00
      vertex -1.657034e+01 1.621979e+00 9.000000e+00
    endloop
  endfacet
  facet normal 0.000000e+00 -1.224647e-16 -1.000000e+00
    outer loop
      vertex -1.657034e+01 1.621979e+00 9.000000e+00
      vertex -2.479914e+01 5.372467e+00 9.000000e+00
      vertex -1.608451e+01 1.813141e+00 9.000000e+00
    endloop
  endfacet
  facet normal 0.000000e+00 -1.224647e-16 -1.000000e+00
    outer loop
      vertex -1.608451e+01 1.813141e+00 9.000000e+00
      vertex -2.479914e+01 5.372467e+00 9.000000e+00
      vertex -1.556574e+01 1.872101e+00 9.000000e+00
    endloop
  endfacet
  facet normal 0.000000e+00 -1.224647e-16 -1.000000e+00
    outer loop
      vertex -1.556574e+01 1.872101e+00 9.000000e+00
      vertex -2.479914e+01 5.372467e+00 9.000000e+00
      vertex 9.516102e+00 1.872406e+00 9.000000e+00
    endloop
  endfacet
  facet normal 0.000000e+00 -1.224647e-16 -1.000000e+00
    outer loop
      vertex -2.479914e+01 -5.627594e+00 9.000000e+00
      vertex 2.477523e+01 -1.039999e+01 9.000000e+00
      vertex 1.900068e+01 -1.039999e+01 9.000000e+00
    endloop
  endfacet
  facet normal 0.000000e+00 -1.224647e-16 -1.000000e+00
    outer loop
      vertex 2.477523e+01 -1.039999e+01 9.000000e+00
      vertex -2.479914e+01 -5.627594e+00 9.000000e+00
      vertex 9.516102e+00 -2.127594e+00 9.000000e+00
    endloop
  endfacet
  facet normal 0.000000e+00 -1.224647e-16 -1.000000e+00
    outer loop
      vertex 2.477523e+01 -1.039999e+01 9.000000e+00
      vertex 9.516102e+00 -2.127594e+00 9.000000e+00
      vertex 1.003374e+01 -2.059418e+00 9.000000e+00
    endloop
  endfacet
  facet normal 0.000000e+00 -1.224647e-16 -1.000000e+00
    outer loop
      vertex 2.477523e+01 -1.039999e+01 9.000000e+00
      vertex 1.003374e+01 -2.059418e+00 9.000000e+00
      vertex 1.051610e+01 -1.859589e+00 9.000000e+00
    endloop
  endfacet
  facet normal 0.000000e+00 -1.224647e-16 -1.000000e+00
    outer loop
      vertex 2.477523e+01 -1.039999e+01 9.000000e+00
      vertex 1.051610e+01 -1.859589e+00 9.000000e+00
      vertex 1.093032e+01 -1.541779e+00 9.000000e+00
    endloop
  endfacet
  facet normal 0.000000e+00 -1.224647e-16 -1.000000e+00
    outer loop
      vertex 2.477523e+01 -1.039999e+01 9.000000e+00
      vertex 1.093032e+01 -1.541779e+00 9.000000e+00
      vertex 2.477523e+01 1.039999e+01 9.000000e+00
    endloop
  endfacet
  facet normal 0.000000e+00 -1.224647e-16 -1.000000e+00
    outer loop
      vertex 2.477523e+01 1.039999e+01 9.000000e+00
      vertex 1.093032e+01 -1.541779e+00 9.000000e+00
      vertex 1.124815e+01 -1.127594e+00 9.000000e+00
    endloop
  endfacet
  facet normal 0.000000e+00 -1.224647e-16 -1.000000e+00
    outer loop
      vertex 2.477523e+01 1.039999e+01 9.000000e+00
      vertex 1.124815e+01 -1.127594e+00 9.000000e+00
      vertex 1.144796e+01 -6.451721e-01 9.000000e+00
    endloop
  endfacet
  facet normal 0.000000e+00 -1.224647e-16 -1.000000e+00
    outer loop
      vertex 2.477523e+01 1.039999e+01 9.000000e+00
      vertex 1.144796e+01 -6.451721e-01 9.000000e+00
      vertex 1.151610e+01 -1.275940e-01 9.000000e+00
    endloop
  endfacet
  facet normal 0.000000e+00 -1.224647e-16 -1.000000e+00
    outer loop
      vertex 2.477523e+01 1.039999e+01 9.000000e+00
      vertex 1.151610e+01 -1.275940e-01 9.000000e+00
      vertex 1.144796e+01 3.900452e-01 9.000000e+00
    endloop
  endfacet
  facet normal 0.000000e+00 -1.224647e-16 -1.000000e+00
    outer loop
      vertex 2.477523e+01 1.039999e+01 9.000000e+00
      vertex 1.144796e+01 3.900452e-01 9.000000e+00
      vertex 1.124815e+01 8.724060e-01 9.000000e+00
    endloop
  endfacet
  facet normal 0.000000e+00 -1.224647e-16 -1.000000e+00
    outer loop
      vertex 2.477523e+01 1.039999e+01 9.000000e+00
      vertex 1.124815e+01 8.724060e-01 9.000000e+00
      vertex 1.093032e+01 1.286652e+00 9.000000e+00
    endloop
  endfacet
  facet normal 0.000000e+00 -1.224647e-16 -1.000000e+00
    outer loop
      vertex 2.477523e+01 1.039999e+01 9.000000e+00
      vertex 1.093032e+01 1.286652e+00 9.000000e+00
      vertex 1.051610e+01 1.604462e+00 9.000000e+00
    endloop
  endfacet
  facet normal 0.000000e+00 -1.224647e-16 -1.000000e+00
    outer loop
      vertex 2.477523e+01 1.039999e+01 9.000000e+00
      vertex 1.051610e+01 1.604462e+00 9.000000e+00
      vertex 1.003374e+01 1.804291e+00 9.000000e+00
    endloop
  endfacet
  facet normal 0.000000e+00 -1.224647e-16 -1.000000e+00
    outer loop
      vertex 2.477523e+01 1.039999e+01 9.000000e+00
      vertex 1.003374e+01 1.804291e+00 9.000000e+00
      vertex 9.516102e+00 1.872406e+00 9.000000e+00
    endloop
  endfacet
  facet normal 0.000000e+00 -1.224647e-16 -1.000000e+00
    outer loop
      vertex 2.477523e+01 1.039999e+01 9.000000e+00
      vertex 9.516102e+00 1.872406e+00 9.000000e+00
      vertex -2.479914e+01 5.372467e+00 9.000000e+00
    endloop
  endfacet
  facet normal 0.000000e+00 -1.224647e-16 -1.000000e+00
    outer loop
      vertex 2.477523e+01 1.039999e+01 9.000000e+00
      vertex -2.479914e+01 5.372467e+00 9.000000e+00
      vertex 1.900068e+01 1.039999e+01 9.000000e+00
    endloop
  endfacet
  facet normal 0.000000e+00 -1.224647e-16 -1.000000e+00
    outer loop
      vertex -1.563672e+01 -2.127228e+00 9.000000e+00
      vertex 8.998463e+00 -2.059418e+00 9.000000e+00
      vertex 9.516102e+00 -2.127594e+00 9.000000e+00
    endloop
  endfacet
  facet normal 0.000000e+00 -1.224647e-16 -1.000000e+00
    outer loop
      vertex 8.998463e+00 -2.059418e+00 9.000000e+00
      vertex -1.563672e+01 -2.127228e+00 9.000000e+00
      vertex -1.511795e+01 -2.068268e+00 9.000000e+00
    endloop
  endfacet
  facet normal 0.000000e+00 -1.224647e-16 -1.000000e+00
    outer loop
      vertex 8.998463e+00 -2.059418e+00 9.000000e+00
      vertex -1.511795e+01 -2.068268e+00 9.000000e+00
      vertex -1.463212e+01 -1.877106e+00 9.000000e+00
    endloop
  endfacet
  facet normal 0.000000e+00 -1.224647e-16 -1.000000e+00
    outer loop
      vertex 8.998463e+00 -2.059418e+00 9.000000e+00
      vertex -1.463212e+01 -1.877106e+00 9.000000e+00
      vertex 8.516102e+00 -1.859589e+00 9.000000e+00
    endloop
  endfacet
  facet normal 0.000000e+00 -1.224647e-16 -1.000000e+00
    outer loop
      vertex 8.516102e+00 -1.859589e+00 9.000000e+00
      vertex -1.463212e+01 -1.877106e+00 9.000000e+00
      vertex -1.421234e+01 -1.566620e+00 9.000000e+00
    endloop
  endfacet
  facet normal 0.000000e+00 -1.224647e-16 -1.000000e+00
    outer loop
      vertex 8.516102e+00 -1.859589e+00 9.000000e+00
      vertex -1.421234e+01 -1.566620e+00 9.000000e+00
      vertex 8.101887e+00 -1.541779e+00 9.000000e+00
    endloop
  endfacet
  facet normal 0.000000e+00 -1.224647e-16 -1.000000e+00
    outer loop
      vertex 8.101887e+00 -1.541779e+00 9.000000e+00
      vertex -1.421234e+01 -1.566620e+00 9.000000e+00
      vertex -1.388720e+01 -1.158112e+00 9.000000e+00
    endloop
  endfacet
  facet normal 0.000000e+00 -1.224647e-16 -1.000000e+00
    outer loop
      vertex 8.101887e+00 -1.541779e+00 9.000000e+00
      vertex -1.388720e+01 -1.158112e+00 9.000000e+00
      vertex 7.784054e+00 -1.127594e+00 9.000000e+00
    endloop
  endfacet
  facet normal 0.000000e+00 -1.224647e-16 -1.000000e+00
    outer loop
      vertex 7.784054e+00 -1.127594e+00 9.000000e+00
      vertex -1.388720e+01 -1.158112e+00 9.000000e+00
      vertex -1.367887e+01 -6.794128e-01 9.000000e+00
    endloop
  endfacet
  facet normal 0.000000e+00 -1.224647e-16 -1.000000e+00
    outer loop
      vertex 7.784054e+00 -1.127594e+00 9.000000e+00
      vertex -1.367887e+01 -6.794128e-01 9.000000e+00
      vertex 7.584248e+00 -6.451721e-01 9.000000e+00
    endloop
  endfacet
  facet normal 0.000000e+00 -1.224647e-16 -1.000000e+00
    outer loop
      vertex 7.584248e+00 -6.451721e-01 9.000000e+00
      vertex -1.367887e+01 -6.794128e-01 9.000000e+00
      vertex -1.360154e+01 -1.630554e-01 9.000000e+00
    endloop
  endfacet
  facet normal 0.000000e+00 -1.224647e-16 -1.000000e+00
    outer loop
      vertex 7.584248e+00 -6.451721e-01 9.000000e+00
      vertex -1.360154e+01 -1.630554e-01 9.000000e+00
      vertex 7.516102e+00 -1.275940e-01 9.000000e+00
    endloop
  endfacet
  facet normal 0.000000e+00 -1.224647e-16 -1.000000e+00
    outer loop
      vertex 7.516102e+00 -1.275940e-01 9.000000e+00
      vertex -1.360154e+01 -1.630554e-01 9.000000e+00
      vertex -1.366050e+01 3.556824e-01 9.000000e+00
    endloop
  endfacet
  facet normal 0.000000e+00 -1.224647e-16 -1.000000e+00
    outer loop
      vertex 7.516102e+00 -1.275940e-01 9.000000e+00
      vertex -1.366050e+01 3.556824e-01 9.000000e+00
      vertex 7.584248e+00 3.900452e-01 9.000000e+00
    endloop
  endfacet
  facet normal 0.000000e+00 -1.224647e-16 -1.000000e+00
    outer loop
      vertex 7.584248e+00 3.900452e-01 9.000000e+00
      vertex -1.366050e+01 3.556824e-01 9.000000e+00
      vertex -1.385171e+01 8.415222e-01 9.000000e+00
    endloop
  endfacet
  facet normal 0.000000e+00 -1.224647e-16 -1.000000e+00
    outer loop
      vertex 7.584248e+00 3.900452e-01 9.000000e+00
      vertex -1.385171e+01 8.415222e-01 9.000000e+00
      vertex 7.784054e+00 8.724060e-01 9.000000e+00
    endloop
  endfacet
  facet normal 0.000000e+00 -1.224647e-16 -1.000000e+00
    outer loop
      vertex 7.784054e+00 8.724060e-01 9.000000e+00
      vertex -1.385171e+01 8.415222e-01 9.000000e+00
      vertex -1.416214e+01 1.261322e+00 9.000000e+00
    endloop
  endfacet
  facet normal 0.000000e+00 -1.224647e-16 -1.000000e+00
    outer loop
      vertex 7.784054e+00 8.724060e-01 9.000000e+00
      vertex -1.416214e+01 1.261322e+00 9.000000e+00
      vertex 8.101887e+00 1.286652e+00 9.000000e+00
    endloop
  endfacet
  facet normal 0.000000e+00 -1.224647e-16 -1.000000e+00
    outer loop
      vertex 8.101887e+00 1.286652e+00 9.000000e+00
      vertex -1.416214e+01 1.261322e+00 9.000000e+00
      vertex -1.457065e+01 1.586456e+00 9.000000e+00
    endloop
  endfacet
  facet normal 0.000000e+00 -1.224647e-16 -1.000000e+00
    outer loop
      vertex 8.101887e+00 1.286652e+00 9.000000e+00
      vertex -1.457065e+01 1.586456e+00 9.000000e+00
      vertex 8.516102e+00 1.604462e+00 9.000000e+00
    endloop
  endfacet
  facet normal 0.000000e+00 -1.224647e-16 -1.000000e+00
    outer loop
      vertex 8.516102e+00 1.604462e+00 9.000000e+00
      vertex -1.457065e+01 1.586456e+00 9.000000e+00
      vertex -1.504940e+01 1.794769e+00 9.000000e+00
    endloop
  endfacet
  facet normal 0.000000e+00 -1.224647e-16 -1.000000e+00
    outer loop
      vertex 8.516102e+00 1.604462e+00 9.000000e+00
      vertex -1.504940e+01 1.794769e+00 9.000000e+00
      vertex 8.998463e+00 1.804291e+00 9.000000e+00
    endloop
  endfacet
  facet normal 0.000000e+00 -1.224647e-16 -1.000000e+00
    outer loop
      vertex 8.998463e+00 1.804291e+00 9.000000e+00
      vertex -1.504940e+01 1.794769e+00 9.000000e+00
      vertex -1.556574e+01 1.872101e+00 9.000000e+00
    endloop
  endfacet
  facet normal 0.000000e+00 -1.224647e-16 -1.000000e+00
    outer loop
      vertex 8.998463e+00 1.804291e+00 9.000000e+00
      vertex -1.556574e+01 1.872101e+00 9.000000e+00
      vertex 9.516102e+00 1.872406e+00 9.000000e+00
    endloop
  endfacet
  facet normal -1.140361e-01 9.934766e-01 -1.216658e-16
    outer loop
      vertex -2.479914e+01 5.372467e+00 9.000000e+00
      vertex 1.900068e+01 1.039999e+01 1.000000e+01
      vertex 1.900068e+01 1.039999e+01 9.000000e+00
    endloop
  endfacet
  facet normal -5.711128e-02 9.983678e-01 -1.222648e-16
    outer loop
      vertex 1.900068e+01 1.039999e+01 1.000000e+01
      vertex -2.479914e+01 5.372467e+00 9.000000e+00
      vertex -2.479914e+01 5.372467e+00 1.000000e+01
    endloop
  endfacet
  facet normal -1.083181e-01 -9.941163e-01 1.217441e-16
    outer loop
      vertex -2.479914e+01 -5.627594e+00 1.000000e+01
      vertex 1.900068e+01 -1.039999e+01 9.000000e+00
      vertex 1.900068e+01 -1.039999e+01 1.000000e+01
    endloop
  endfacet
  facet normal -5.423887e-02 -9.985280e-01 1.222844e-16
    outer loop
      vertex 1.900068e+01 -1.039999e+01 9.000000e+00
      vertex -2.479914e+01 -5.627594e+00 1.000000e+01
      vertex -2.479914e+01 -5.627594e+00 9.000000e+00
    endloop
  endfacet
  facet normal -5.711128e-02 9.983678e-01 -1.222648e-16
    outer loop
      vertex 1.900068e+01 1.039999e+01 9.000000e+00
      vertex 2.477523e+01 1.039999e+01 1.000000e+01
      vertex 2.477523e+01 1.039999e+01 9.000000e+00
    endloop
  endfacet
  facet normal -1.836970e-16 1.000000e+00 -1.224647e-16
    outer loop
      vertex 2.477523e+01 1.039999e+01 1.000000e+01
      vertex 1.900068e+01 1.039999e+01 9.000000e+00
      vertex 1.900068e+01 1.039999e+01 1.000000e+01
    endloop
  endfacet
  facet normal -5.423887e-02 -9.985280e-01 1.222844e-16
    outer loop
      vertex 1.900068e+01 -1.039999e+01 1.000000e+01
      vertex 2.477523e+01 -1.039999e+01 9.000000e+00
      vertex 2.477523e+01 -1.039999e+01 1.000000e+01
    endloop
  endfacet
  facet normal 1.836970e-16 -1.000000e+00 1.224647e-16
    outer loop
      vertex 2.477523e+01 -1.039999e+01 9.000000e+00
      vertex 1.900068e+01 -1.039999e+01 1.000000e+01
      vertex 1.900068e+01 -1.039999e+01 9.000000e+00
    endloop
  endfacet
  facet normal 8.164267e-09 -1.115773e-07 -1.000000e+00
    outer loop
      vertex -2.479914e+01 1.622406e+00 1.100000e+01
      vertex 2.477648e+01 -1.749969e+00 1.100000e+01
      vertex -2.479914e+01 -1.877594e+00 1.100000e+01
    endloop
  endfacet
  facet normal 8.164267e-09 -1.115773e-07 -1.000000e+00
    outer loop
      vertex 2.477648e+01 -1.749969e+00 1.100000e+01
      vertex -2.479914e+01 1.622406e+00 1.100000e+01
      vertex 2.477710e+01 1.750031e+00 1.100000e+01
    endloop
  endfacet
  facet normal 2.572661e-03 -9.999967e-01 -6.013285e-06
    outer loop
      vertex -2.479914e+01 1.622406e+00 1.848001e+01
      vertex 2.477710e+01 1.750031e+00 1.100000e+01
      vertex 2.479894e+01 1.749969e+00 1.989407e+01
    endloop
  endfacet
  facet normal 2.572661e-03 -9.999967e-01 -6.013285e-06
    outer loop
      vertex 2.477710e+01 1.750031e+00 1.100000e+01
      vertex -2.479914e+01 1.622406e+00 1.848001e+01
      vertex -2.479914e+01 1.622406e+00 1.100000e+01
    endloop
  endfacet
  facet normal -2.572673e-03 9.999967e-01 6.168636e-06
    outer loop
      vertex 2.477648e+01 -1.749969e+00 1.100000e+01
      vertex -2.479914e+01 -1.877594e+00 1.848001e+01
      vertex 2.479914e+01 -1.750031e+00 1.989401e+01
    endloop
  endfacet
  facet normal -2.572673e-03 9.999967e-01 6.168636e-06
    outer loop
      vertex -2.479914e+01 -1.877594e+00 1.848001e+01
      vertex 2.477648e+01 -1.749969e+00 1.100000e+01
      vertex -2.479914e+01 -1.877594e+00 1.100000e+01
    endloop
  endfacet
  facet normal 9.999962e-01 -1.723767e-03 -2.155731e-03
    outer loop
      vertex 2.479914e+01 -1.750031e+00 1.989401e+01
      vertex 2.477648e+01 -4.249969e+00 1.100000e+01
      vertex 2.477648e+01 -1.749969e+00 1.100000e+01
    endloop
  endfacet
  facet normal 9.999962e-01 -1.723767e-03 -2.155731e-03
    outer loop
      vertex 2.477648e+01 -4.249969e+00 1.100000e+01
      vertex 2.479914e+01 -1.750031e+00 1.989401e+01
      vertex 2.478436e+01 -4.250031e+00 1.703445e+01
    endloop
  endfacet
  facet normal 9.999964e-01 1.683290e-03 -2.072188e-03
    outer loop
      vertex 2.478460e+01 4.250031e+00 1.703445e+01
      vertex 2.477710e+01 1.750031e+00 1.100000e+01
      vertex 2.477710e+01 4.250031e+00 1.100000e+01
    endloop
  endfacet
  facet normal 9.999964e-01 1.683290e-03 -2.072188e-03
    outer loop
      vertex 2.477710e+01 1.750031e+00 1.100000e+01
      vertex 2.478460e+01 4.250031e+00 1.703445e+01
      vertex 2.479894e+01 1.749969e+00 1.989407e+01
    endloop
  endfacet
  facet normal 9.999962e-01 -1.723767e-03 -2.155731e-03
    outer loop
      vertex 2.479914e+01 -1.750031e+00 1.989401e+01
      vertex 2.477648e+01 -4.249969e+00 1.100000e+01
      vertex 2.477648e+01 -1.749969e+00 1.100000e+01
    endloop
  endfacet
  facet normal 9.999962e-01 -1.723767e-03 -2.155731e-03
    outer loop
      vertex 2.477648e+01 -4.249969e+00 1.100000e+01
      vertex 2.479914e+01 -1.750031e+00 1.989401e+01
      vertex 2.478436e+01 -4.250031e+00 1.703445e+01
    endloop
  endfacet
  facet normal 1.000000e+00 1.836970e-16 -2.249640e-32
    outer loop
      vertex 2.477523e+01 1.039999e+01 1.000000e+01
      vertex 2.477523e+01 -1.039999e+01 9.000000e+00
      vertex 2.477523e+01 1.039999e+01 9.000000e+00
    endloop
  endfacet
  facet normal 1.000000e+00 1.836970e-16 -2.249640e-32
    outer loop
      vertex 2.477523e+01 -1.039999e+01 9.000000e+00
      vertex 2.477523e+01 1.039999e+01 1.000000e+01
      vertex 2.477523e+01 1.020004e+01 1.000000e+01
    endloop
  endfacet
  facet normal 1.000000e+00 1.836970e-16 -2.249640e-32
    outer loop
      vertex 2.477523e+01 -1.039999e+01 1.000000e+01
      vertex 2.477523e+01 -1.039999e+01 9.000000e+00
      vertex 2.477523e+01 1.020004e+01 1.000000e+01
    endloop
  endfacet
  facet normal 9.999964e-01 1.683290e-03 -2.072188e-03
    outer loop
      vertex 2.478460e+01 4.250031e+00 1.703445e+01
      vertex 2.477710e+01 1.750031e+00 1.100000e+01
      vertex 2.477710e+01 4.250031e+00 1.100000e+01
    endloop
  endfacet
  facet normal 9.999964e-01 1.683290e-03 -2.072188e-03
    outer loop
      vertex 2.477710e+01 1.750031e+00 1.100000e+01
      vertex 2.478460e+01 4.250031e+00 1.703445e+01
      vertex 2.479894e+01 1.749969e+00 1.989407e+01
    endloop
  endfacet
  facet normal -3.704626e-17 1.604932e-01 -9.870369e-01
    outer loop
      vertex -2.479914e+01 -4.249969e+00 1.100000e+01
      vertex 2.477523e+01 -1.039999e+01 1.000000e+01
      vertex 1.900068e+01 -1.039999e+01 1.000000e+01
    endloop
  endfacet
  facet normal -3.704626e-17 1.604932e-01 -9.870369e-01
    outer loop
      vertex 2.477523e+01 -1.039999e+01 1.000000e+01
      vertex -2.479914e+01 -4.249969e+00 1.100000e+01
      vertex 2.477648e+01 -4.249969e+00 1.100000e+01
    endloop
  endfacet
  facet normal -1.000000e+00 -1.836970e-16 2.249640e-32
    outer loop
      vertex -2.479914e+01 -5.627594e+00 1.000000e+01
      vertex -2.479914e+01 5.372467e+00 9.000000e+00
      vertex -2.479914e+01 -5.627594e+00 9.000000e+00
    endloop
  endfacet
  facet normal -1.000000e+00 -1.836970e-16 2.249640e-32
    outer loop
      vertex -2.479914e+01 5.372467e+00 9.000000e+00
      vertex -2.479914e+01 -5.627594e+00 1.000000e+01
      vertex -2.479914e+01 5.372467e+00 1.000000e+01
    endloop
  endfacet
  facet normal -1.000000e+00 -1.836970e-16 2.249640e-32
    outer loop
      vertex -2.479914e+01 5.372467e+00 1.000000e+01
      vertex -2.479914e+01 -5.627594e+00 1.000000e+01
      vertex -2.479914e+01 -4.249969e+00 1.100000e+01
    endloop
  endfacet
  facet normal -1.000000e+00 -1.836970e-16 2.249640e-32
    outer loop
      vertex -2.479914e+01 5.372467e+00 1.000000e+01
      vertex -2.479914e+01 -4.249969e+00 1.100000e+01
      vertex -2.479914e+01 -1.877594e+00 1.100000e+01
    endloop
  endfacet
  facet normal -1.000000e+00 -1.836970e-16 2.249640e-32
    outer loop
      vertex -2.479914e+01 -1.877594e+00 1.100000e+01
      vertex -2.479914e+01 -4.249969e+00 1.100000e+01
      vertex -2.479914e+01 -1.877594e+00 1.848001e+01
    endloop
  endfacet
  facet normal -1.000000e+00 -1.836970e-16 2.249640e-32
    outer loop
      vertex -2.479914e+01 -1.877594e+00 1.100000e+01
      vertex -2.479914e+01 4.250031e+00 1.100000e+01
      vertex -2.479914e+01 5.372467e+00 1.000000e+01
    endloop
  endfacet
  facet normal -1.000000e+00 -1.836970e-16 2.249640e-32
    outer loop
      vertex -2.479914e+01 4.250031e+00 1.100000e+01
      vertex -2.479914e+01 -1.877594e+00 1.100000e+01
      vertex -2.479914e+01 1.622406e+00 1.100000e+01
    endloop
  endfacet
  facet normal -1.000000e+00 -1.836970e-16 2.249640e-32
    outer loop
      vertex -2.479914e+01 4.250031e+00 1.100000e+01
      vertex -2.479914e+01 1.622406e+00 1.100000e+01
      vertex -2.479914e+01 1.622406e+00 1.848001e+01
    endloop
  endfacet
  facet normal 6.387634e-02 5.862412e-01 -8.076144e-01
    outer loop
      vertex -2.479914e+01 -4.249969e+00 1.100000e+01
      vertex 1.900068e+01 -1.039999e+01 1.000000e+01
      vertex -2.479914e+01 -5.627594e+00 1.000000e+01
    endloop
  endfacet
  facet normal 1.836971e-16 -1.000000e+00 -3.606229e-06
    outer loop
      vertex -2.479914e+01 -4.249969e+00 1.100000e+01
      vertex 2.477648e+01 -4.249969e+00 1.100000e+01
      vertex 2.478436e+01 -4.250031e+00 1.703445e+01
    endloop
  endfacet
  facet normal -2.069871e-02 7.526417e-01 6.581049e-01
    outer loop
      vertex -2.479914e+01 1.622406e+00 1.848001e+01
      vertex 2.479894e+01 1.749969e+00 1.989407e+01
      vertex 2.478460e+01 4.250031e+00 1.703445e+01
    endloop
  endfacet
  facet normal -1.836971e-16 1.000000e+00 -3.401889e-06
    outer loop
      vertex -2.479914e+01 4.250031e+00 1.100000e+01
      vertex 2.478460e+01 4.250031e+00 1.703445e+01
      vertex 2.477710e+01 4.250031e+00 1.100000e+01
    endloop
  endfacet
  facet normal -1.682744e-02 -7.527049e-01 6.581430e-01
    outer loop
      vertex -2.479914e+01 -1.877594e+00 1.848001e+01
      vertex 2.478436e+01 -4.250031e+00 1.703445e+01
      vertex 2.479914e+01 -1.750031e+00 1.989401e+01
    endloop
  endfacet
  facet normal -9.999987e-01 1.143381e-05 1.601160e-03
    outer loop
      vertex 2.477648e+01 -4.249969e+00 1.100000e+01
      vertex 2.477523e+01 1.020004e+01 1.000000e+01
      vertex 2.477523e+01 -1.039999e+01 1.000000e+01
    endloop
  endfacet
  facet normal -9.999987e-01 1.143381e-05 1.601160e-03
    outer loop
      vertex 2.477523e+01 1.020004e+01 1.000000e+01
      vertex 2.477648e+01 -4.249969e+00 1.100000e+01
      vertex 2.477523e+01 1.039999e+01 1.000000e+01
    endloop
  endfacet
  facet normal -9.999987e-01 1.143381e-05 1.601160e-03
    outer loop
      vertex 2.477523e+01 1.039999e+01 1.000000e+01
      vertex 2.477648e+01 -4.249969e+00 1.100000e+01
      vertex 2.477710e+01 1.750031e+00 1.100000e+01
    endloop
  endfacet
  facet normal -9.999987e-01 1.143381e-05 1.601160e-03
    outer loop
      vertex 2.477710e+01 1.750031e+00 1.100000e+01
      vertex 2.477648e+01 -4.249969e+00 1.100000e+01
      vertex 2.477648e+01 -1.749969e+00 1.100000e+01
    endloop
  endfacet
  facet normal -9.999987e-01 1.143381e-05 1.601160e-03
    outer loop
      vertex 2.477710e+01 4.250031e+00 1.100000e+01
      vertex 2.477523e+01 1.039999e+01 1.000000e+01
      vertex 2.477710e+01 1.750031e+00 1.100000e+01
    endloop
  endfacet
  facet normal -4.030304e-02 9.427144e-01 3.311575e-01
    outer loop
      vertex -2.479914e+01 1.622406e+00 1.848001e+01
      vertex 2.478460e+01 4.250031e+00 1.703445e+01
      vertex -2.479914e+01 4.250031e+00 1.100000e+01
    endloop
  endfacet
  facet normal 0.000000e+00 1.224647e-16 1.000000e+00
    outer loop
      vertex 2.477523e+01 1.020004e+01 1.000000e+01
      vertex 1.900068e+01 -1.039999e+01 1.000000e+01
      vertex 2.477523e+01 -1.039999e+01 1.000000e+01
    endloop
  endfacet
  facet normal 0.000000e+00 1.224647e-16 1.000000e+00
    outer loop
      vertex 1.900068e+01 -1.039999e+01 1.000000e+01
      vertex 2.477523e+01 1.020004e+01 1.000000e+01
      vertex 1.900068e+01 1.039999e+01 1.000000e+01
    endloop
  endfacet
  facet normal 0.000000e+00 1.224647e-16 1.000000e+00
    outer loop
      vertex 1.900068e+01 1.039999e+01 1.000000e+01
      vertex 2.477523e+01 1.020004e+01 1.000000e+01
      vertex 2.477523e+01 1.039999e+01 1.000000e+01
    endloop
  endfacet
  facet normal -7.613409e-02 6.632761e-01 7.444921e-01
    outer loop
      vertex 1.900068e+01 1.039999e+01 1.000000e+01
      vertex -2.479914e+01 5.372467e+00 1.000000e+01
      vertex -2.479914e+01 4.250031e+00 1.100000e+01
    endloop
  endfacet
  facet normal -2.570012e-17 1.604931e-01 9.870369e-01
    outer loop
      vertex 2.477523e+01 1.039999e+01 1.000000e+01
      vertex -2.479914e+01 4.250031e+00 1.100000e+01
      vertex 2.477710e+01 4.250031e+00 1.100000e+01
    endloop
  endfacet
  facet normal -2.570012e-17 1.604931e-01 9.870369e-01
    outer loop
      vertex -2.479914e+01 4.250031e+00 1.100000e+01
      vertex 2.477523e+01 1.039999e+01 1.000000e+01
      vertex 1.900068e+01 1.039999e+01 1.000000e+01
    endloop
  endfacet
  facet normal -3.676943e-02 -9.525601e-01 3.021212e-01
    outer loop
      vertex -2.479914e+01 -4.249969e+00 1.100000e+01
      vertex 2.478436e+01 -4.250031e+00 1.703445e+01
      vertex -2.479914e+01 -1.877594e+00 1.848001e+01
    endloop
  endfacet
endsolid Default
